<svg  viewBox="0 0 725 643" fill="none" xmlns="http://www.w3.org/2000/svg">
<g clip-path="url(#clip0_818_89)">
<path d="M194.03 201.484C194.216 201.484 196.772 214.421 196.772 214.421L312.664 190.638L287.304 73.3484L305.894 182.503L194.03 201.484Z" fill="#F5F5F5"/>
<path d="M286.197 66.8356L170.533 86.4641L190.159 202.147L305.822 182.518L286.197 66.8356Z" fill="white"/>
<path d="M305.832 182.457C305.832 182.457 305.832 182.271 305.723 181.915C305.615 181.558 305.569 181.016 305.445 180.365C305.197 178.955 304.84 176.864 304.36 174.168C303.431 168.729 302.052 160.781 300.317 150.648C296.847 130.413 291.905 101.532 285.987 66.8874L286.235 67.0579L170.653 86.7197L170.87 86.4098C178.043 128.786 184.813 168.528 190.467 202.103L190.204 201.917L274.012 187.818L297.544 183.882L303.741 182.844L305.29 182.596L305.847 182.503L305.321 182.612L303.771 182.891L297.575 183.96L274.105 188.004L190.204 202.367H189.987V202.15C184.27 168.528 177.594 128.832 170.328 86.4718V86.2239H170.592L286.235 66.624H286.468V66.8564C292.308 101.578 297.188 130.521 300.596 150.803C302.284 160.92 303.694 168.853 304.531 174.292C304.964 176.988 305.321 179.064 305.553 180.489C305.661 181.171 305.739 181.698 305.801 182.039C305.863 182.38 305.832 182.457 305.832 182.457Z" fill="#E0E0E0"/>
<path d="M265.151 162.315C265.151 162.315 267.785 175.361 268.327 176.569C268.327 176.569 265.848 179.931 266.112 180.861C266.375 181.791 268.374 183.34 268.374 183.34L273.439 182.472L278.737 179.033L278.892 170.527L275.794 162.578L271.782 159.479L265.151 162.315Z" fill="#E0E0E0"/>
<path d="M185.757 146.31C185.757 146.743 185.076 152.058 187.121 154.428C189.523 157.094 192.33 159.363 195.44 161.153C197.393 161.503 199.4 161.406 201.31 160.869C203.22 160.333 204.984 159.37 206.47 158.054C206.47 158.054 207.477 152.585 206.113 151.438C204.75 150.292 201.466 147.379 201.373 148.649C201.381 149.609 201.543 150.561 201.853 151.469C201.853 151.469 199.746 151.578 199.994 152.492C200.492 153.414 201.16 154.234 201.962 154.909C200.906 155.163 199.835 155.344 198.755 155.451C197.98 155.451 194.805 153.902 194.696 151.531C194.588 149.16 198.414 143.133 200.629 140.825C202.845 138.516 210.389 132.566 210.389 132.566L220.396 127.577L213.797 112.734C213.797 112.734 202.225 116.561 195.44 124.51C188.654 132.458 185.804 142.173 185.757 146.31Z" fill="#EBEBEB"/>
<path d="M237.019 160.951C237.019 160.951 242.41 163.198 244.765 164.05C247.12 164.902 256.229 166.591 258.986 165.723C261.744 164.856 270.775 161.819 270.775 161.819L274.059 135.03L278.815 129.096C278.815 129.096 272.216 122.898 268.188 122.309C264.16 121.721 252.526 124.68 252.526 124.68C252.526 124.68 238.011 130.18 237.701 130.769C237.391 131.358 234.835 154.273 234.835 154.273L237.019 160.951Z" fill="#EBEBEB"/>
<path d="M221.776 146.821C221.776 146.821 222.271 154.816 221.404 156.117C220.536 157.419 217.624 167.087 218.213 169.272C218.801 171.456 220.707 173.734 223.991 177.747C225.515 179.731 227.244 181.549 229.15 183.17L235.052 174.354L232.062 164.422L233.611 152.631L221.776 146.821Z" fill="#EBEBEB"/>
<path d="M213.797 112.734C213.797 112.734 217.933 109.496 219.637 109.511C223.247 109.511 231.116 114.005 231.116 114.005L254.354 124.494L236.755 148.37L224.517 154.32L218.011 142.126L206.779 133.589L213.797 112.734Z" fill="#EBEBEB"/>
<path d="M223.836 151.113C223.665 151.345 224.75 173.114 224.75 173.114L225.183 185.974C225.183 185.974 223.045 188.732 223.2 189.584C223.341 190.142 223.691 190.624 224.176 190.932C224.176 190.932 229.041 189.925 231.179 189.677C233.316 189.429 236.926 188.763 236.864 188.376C236.852 187.95 236.989 187.534 237.251 187.198L235.578 185.742C235.845 182.577 236.49 179.456 237.499 176.445C239.048 172.494 239.048 164.763 239.048 164.763L241.372 154.118C241.372 154.118 240.845 145.86 240.783 146.093C238.893 146.345 236.989 146.484 235.082 146.511L223.836 151.113Z" fill="#EBEBEB"/>
<path d="M229.01 190.204C228.972 189.681 229.044 189.157 229.22 188.663C229.396 188.17 229.672 187.718 230.032 187.338C230.162 187.178 230.324 187.048 230.509 186.957C230.693 186.866 230.895 186.816 231.101 186.811C231.503 186.902 231.856 187.139 232.092 187.477C232.571 188.06 232.968 188.707 233.27 189.398" fill="#EBEBEB"/>
<path d="M224.331 190.839C224.331 190.839 224.966 188.05 225.663 187.74C226.36 187.431 228.545 190.049 228.545 190.049L224.331 190.839Z" fill="#EBEBEB"/>
<path d="M227.507 114.624C227.507 114.624 235.098 113.075 237.793 113.307C240.489 113.54 247.088 116.592 247.646 117.956C248.203 119.319 248.467 132.04 247.46 132.861C246.341 133.591 245.182 134.258 243.99 134.859C242.208 135.975 241.805 136.316 240.891 135.898C239.977 135.479 240.535 136.455 239.001 137.447C237.468 138.439 235.903 138.47 235.516 139.26C235.129 140.05 232.851 145.86 232.077 146.635C231.767 146.911 231.396 147.109 230.994 147.211C230.592 147.314 230.171 147.318 229.767 147.224C229.363 147.13 228.988 146.94 228.672 146.67C228.357 146.4 228.112 146.059 227.956 145.674C226.794 143.443 223.386 127.949 223.309 128.166" fill="#EBEBEB"/>
<path d="M223.324 128.228C223.422 128.484 223.494 128.749 223.541 129.018C223.681 129.561 223.866 130.335 224.114 131.342C224.595 133.357 225.276 136.269 226.206 139.849C226.438 140.747 226.686 141.677 226.965 142.653C227.237 143.663 227.568 144.656 227.956 145.628C228.198 146.113 228.548 146.537 228.979 146.867C229.434 147.175 229.98 147.317 230.528 147.27C230.811 147.244 231.089 147.17 231.349 147.053C231.611 146.943 231.845 146.773 232.03 146.557C232.374 146.073 232.665 145.554 232.898 145.008C233.425 143.892 233.905 142.746 234.447 141.568C234.695 140.964 234.943 140.375 235.206 139.771C235.284 139.632 235.346 139.477 235.423 139.322C235.501 139.161 235.618 139.022 235.764 138.919C236.043 138.725 236.351 138.579 236.678 138.485C237.306 138.275 237.918 138.016 238.506 137.71C239.134 137.416 239.67 136.955 240.055 136.378L240.303 135.913C240.33 135.867 240.366 135.827 240.408 135.795C240.451 135.763 240.499 135.74 240.551 135.727C240.607 135.712 240.665 135.712 240.721 135.727H240.861C241.031 135.727 241.17 135.867 241.341 135.913C241.493 135.952 241.653 135.952 241.806 135.913C242.135 135.831 242.449 135.695 242.735 135.51C243.045 135.34 243.339 135.154 243.634 134.952C244.238 134.581 244.842 134.224 245.461 133.914C246.089 133.626 246.69 133.284 247.259 132.892L247.46 132.737V132.628C247.523 132.478 247.575 132.322 247.615 132.164C247.615 131.838 247.739 131.497 247.77 131.172C247.847 130.506 247.894 129.824 247.925 129.173C248.049 126.508 248.018 123.936 247.925 121.504C247.925 120.884 247.925 120.295 247.801 119.691L247.708 118.823C247.68 118.538 247.618 118.257 247.522 117.987C247.365 117.76 247.177 117.557 246.964 117.382L246.283 116.886C245.818 116.577 245.338 116.313 244.857 116.05C243.079 115.102 241.211 114.334 239.28 113.757C238.848 113.631 238.408 113.532 237.964 113.462C237.541 113.424 237.116 113.424 236.693 113.462C235.911 113.482 235.13 113.544 234.354 113.648C232.898 113.803 231.643 114.02 230.621 114.175L228.281 114.593L227.677 114.702H227.46H227.662L228.281 114.578L230.621 114.129C231.628 113.943 232.882 113.741 234.339 113.555C235.067 113.462 235.888 113.385 236.693 113.354C237.122 113.331 237.551 113.331 237.979 113.354C238.429 113.422 238.874 113.521 239.311 113.648C241.28 114.185 243.19 114.916 245.012 115.833C245.508 116.085 245.988 116.364 246.453 116.67L247.15 117.165C247.39 117.349 247.595 117.575 247.754 117.832C247.858 118.111 247.926 118.403 247.956 118.699C247.956 118.994 247.956 119.288 248.049 119.582C248.049 120.187 248.142 120.791 248.172 121.395C248.296 123.843 248.327 126.415 248.172 129.142C248.172 129.808 248.172 130.475 248.002 131.156C247.973 131.5 247.922 131.842 247.847 132.179C247.847 132.349 247.754 132.504 247.692 132.675V132.799L247.584 132.923L247.382 133.093C246.801 133.482 246.19 133.824 245.554 134.116C244.935 134.426 244.346 134.782 243.742 135.154C243.448 135.34 243.153 135.541 242.843 135.712C242.537 135.906 242.203 136.052 241.852 136.145C241.492 136.179 241.13 136.104 240.814 135.929C240.644 135.929 240.551 135.929 240.473 136.022C240.378 136.164 240.295 136.314 240.225 136.471C239.832 137.057 239.3 137.536 238.676 137.865C238.082 138.181 237.46 138.441 236.817 138.64C236.506 138.742 236.21 138.882 235.934 139.058C235.705 139.275 235.534 139.547 235.439 139.849C235.175 140.437 234.927 141.042 234.679 141.63C234.184 142.808 233.703 143.97 233.13 145.07C232.883 145.615 232.582 146.134 232.232 146.619C232.03 146.852 231.775 147.033 231.488 147.146C231.213 147.269 230.92 147.347 230.621 147.379C230.03 147.433 229.438 147.279 228.948 146.945C228.497 146.598 228.131 146.153 227.879 145.643C227.49 144.663 227.164 143.659 226.903 142.637C226.624 141.661 226.376 140.732 226.144 139.833C225.245 136.238 224.595 133.326 224.099 131.311C223.866 130.304 223.696 129.53 223.572 128.987L223.433 128.383C223.399 128.33 223.363 128.278 223.324 128.228Z" fill="#E0E0E0"/>
<path d="M244.516 127.36C244.51 127.273 244.51 127.185 244.516 127.097V126.369C244.515 125.462 244.458 124.557 244.346 123.657C244.205 122.324 243.737 121.047 242.983 119.939C242.532 119.301 241.945 118.771 241.263 118.389C240.514 118.002 239.689 117.785 238.846 117.754C238.001 117.676 237.151 117.676 236.306 117.754C235.515 117.829 234.729 117.948 233.951 118.111C232.639 118.385 231.35 118.758 230.094 119.226C229.245 119.546 228.417 119.919 227.615 120.342C227.405 120.467 227.203 120.607 227.011 120.76L226.81 120.915L226.949 120.775C227.127 120.603 227.324 120.452 227.538 120.326C227.817 120.156 228.173 119.985 228.576 119.784C228.978 119.582 229.474 119.381 230.001 119.164C231.255 118.663 232.551 118.274 233.874 118.002C234.656 117.833 235.447 117.709 236.244 117.63C237.096 117.521 237.957 117.489 238.815 117.537C239.679 117.584 240.523 117.811 241.294 118.203C241.997 118.58 242.605 119.109 243.076 119.753C243.832 120.887 244.296 122.191 244.423 123.549C244.528 124.454 244.565 125.365 244.532 126.276C244.532 126.57 244.532 126.818 244.532 127.004C244.539 127.123 244.533 127.242 244.516 127.36Z" fill="#E0E0E0"/>
<path d="M221.295 132.876H221.218L220.985 133.078L220.056 133.837L216.694 136.564L214.526 137.509L210.746 134.828L209.196 133.697C209.114 133.315 209.063 132.926 209.042 132.535C209.013 132.162 209.039 131.786 209.119 131.42C209.158 131.229 209.237 131.05 209.351 130.893C209.409 130.817 209.471 130.744 209.537 130.676L209.739 130.521L210.482 129.824C211.443 128.91 212.264 128.073 212.976 127.391C213.689 126.71 214.216 126.152 214.618 125.749L215.068 125.315C215.161 125.222 215.223 125.16 215.223 125.176L215.083 125.331L214.665 125.795L213.116 127.469C212.434 128.166 211.567 129.018 210.653 129.932L209.909 130.645L209.708 130.816C209.643 130.864 209.586 130.922 209.537 130.986C209.445 131.129 209.377 131.286 209.336 131.451C209.289 131.811 209.289 132.175 209.336 132.535C209.357 132.911 209.409 133.284 209.491 133.651L211.04 134.782L214.526 137.524H214.433L216.617 136.579L220.01 133.914L220.97 133.186L221.218 133L221.295 132.876Z" fill="#E0E0E0"/>
<path d="M209.971 133.279C209.971 133.279 201.853 137.927 199.576 138.144C196.295 137.91 193.038 137.423 189.832 136.688C189.832 136.688 194.108 140.685 197.252 141.537C200.135 142.632 203.276 142.853 206.284 142.173C209.261 140.98 212.076 139.418 214.665 137.524C214.681 136.923 214.567 136.326 214.33 135.773C214.093 135.22 213.74 134.725 213.294 134.322C212.848 133.919 212.32 133.617 211.747 133.437C211.173 133.257 210.567 133.203 209.971 133.279Z" fill="white"/>
<path d="M209.971 133.279C209.971 133.279 209.971 133.279 210.095 133.279H210.466C210.667 133.249 210.87 133.249 211.07 133.279H211.458C211.582 133.279 211.721 133.279 211.876 133.388C212.627 133.586 213.288 134.034 213.751 134.658C214.048 135.043 214.274 135.479 214.417 135.944C214.592 136.443 214.697 136.965 214.726 137.493C213.689 138.222 212.496 139.043 211.163 139.787C209.738 140.66 208.227 141.387 206.655 141.956C205.783 142.244 204.877 142.421 203.96 142.483C202.998 142.554 202.032 142.518 201.078 142.374C200.091 142.224 199.114 142.017 198.151 141.754C197.67 141.63 197.175 141.506 196.679 141.336L195.951 141.026L195.254 140.67C193.289 139.538 191.46 138.186 189.801 136.641L189.568 136.424H189.878C191.427 136.734 192.853 137.029 194.247 137.277C195.641 137.524 197.004 137.726 198.275 137.85C198.891 137.943 199.517 137.943 200.134 137.85C200.412 137.757 200.707 137.695 200.97 137.586L201.776 137.277C202.829 136.843 203.774 136.393 204.626 135.975C206.33 135.123 207.724 134.426 208.576 133.899L209.63 133.326L209.909 133.186H210.002H209.909L209.645 133.357L208.607 133.961C207.693 134.472 206.377 135.216 204.673 136.068C203.82 136.502 202.875 136.967 201.822 137.401L201.017 137.71C200.739 137.817 200.454 137.905 200.165 137.974C199.534 138.082 198.89 138.082 198.259 137.974C196.973 137.865 195.626 137.664 194.216 137.416C192.806 137.168 191.35 136.889 189.847 136.579V136.424C191.496 137.959 193.316 139.3 195.269 140.422L195.951 140.778L196.663 141.073C197.144 141.228 197.624 141.367 198.12 141.491C199.077 141.755 200.05 141.962 201.032 142.111C201.971 142.246 202.921 142.283 203.867 142.219C204.773 142.163 205.669 141.991 206.531 141.708C208.091 141.145 209.591 140.429 211.009 139.57C212.341 138.779 213.534 138.02 214.587 137.308C214.557 136.297 214.234 135.318 213.658 134.488C213.208 133.878 212.572 133.431 211.845 133.217C211.69 133.217 211.566 133.124 211.427 133.109H211.04C210.844 133.087 210.646 133.087 210.451 133.109H209.955L209.971 133.279Z" fill="#E0E0E0"/>
<path d="M193.673 134.193C193.673 134.193 193.441 134.193 193.085 134.193C192.632 134.063 192.188 133.908 191.752 133.728C191.322 133.556 190.882 133.406 190.436 133.279C190.247 133.246 190.06 133.2 189.878 133.14C190.072 133.097 190.273 133.097 190.467 133.14C190.928 133.237 191.379 133.377 191.814 133.558C192.326 133.744 192.79 133.945 193.131 134.054C193.314 134.09 193.495 134.137 193.673 134.193Z" fill="#E0E0E0"/>
<path d="M191.273 147.967C191.032 148.12 190.763 148.225 190.483 148.277C189.827 148.464 189.15 148.568 188.469 148.587C187.787 148.625 187.103 148.563 186.439 148.401C186.156 148.349 185.887 148.238 185.649 148.076C185.649 148.076 185.959 148.184 186.455 148.277C187.113 148.403 187.784 148.45 188.453 148.417C189.127 148.395 189.796 148.306 190.452 148.153C190.963 148.045 191.257 147.952 191.273 147.967Z" fill="#E0E0E0"/>
<path d="M190.994 143.552C190.994 143.552 190.002 143.226 188.732 142.994C187.461 142.761 186.393 142.808 186.393 142.746C186.624 142.712 186.859 142.712 187.09 142.746C187.65 142.748 188.21 142.794 188.763 142.885C189.291 142.982 189.81 143.127 190.312 143.319C190.55 143.36 190.78 143.438 190.994 143.552Z" fill="#E0E0E0"/>
<path d="M191.908 151.469C191.736 151.702 191.513 151.892 191.257 152.027C190.662 152.385 190.021 152.661 189.352 152.848C188.683 153.051 187.99 153.161 187.291 153.173C187.003 153.198 186.713 153.161 186.439 153.065C186.439 153.065 186.765 153.065 187.291 153.065C187.969 153.011 188.638 152.886 189.29 152.693C189.948 152.501 190.586 152.247 191.195 151.934C191.645 151.639 191.892 151.469 191.908 151.469Z" fill="#E0E0E0"/>
<path d="M194.031 155.9C193.898 156.042 193.741 156.158 193.566 156.241C193.166 156.47 192.746 156.662 192.311 156.814C191.884 156.982 191.444 157.111 190.994 157.202C190.653 157.202 190.437 157.202 190.437 157.202C190.437 157.202 190.638 157.202 190.963 157.047C191.289 156.892 191.753 156.799 192.249 156.613C192.745 156.427 193.194 156.241 193.504 156.102C193.676 156.025 193.851 155.958 194.031 155.9Z" fill="#E0E0E0"/>
<path d="M265.88 141.336C265.709 141.599 264.129 149.579 265.151 152.445C266.174 155.312 274.229 171.348 274.229 171.348L275.097 176.414C275.097 176.414 272.649 180.97 273.021 181.667C273.105 181.857 273.233 182.023 273.395 182.153C273.556 182.282 273.747 182.371 273.951 182.411L287.645 180.086L287.738 178.893L286.189 176.833L285.554 175.64C285.554 175.64 284.392 168.76 284.423 168.327C284.454 167.893 284.129 149.346 284.129 149.346L283.741 136.316C282.557 133.927 281.118 131.672 279.45 129.592C277.545 127.732 268.25 125.625 268.25 125.625L265.88 141.336Z" fill="#EBEBEB"/>
<path d="M289.194 158.193C288.923 159.325 289.021 160.514 289.472 161.587C290.34 163.446 294.228 165.847 294.476 165.863C294.724 165.878 293.949 164.608 293.949 164.608C295.135 165.09 296.404 165.333 297.683 165.321C298.86 165.057 297.977 165.321 297.977 165.321L298.69 165.197C298.69 165.197 295.948 164.143 295.22 162.733C294.322 161.035 293.057 159.558 291.517 158.41C291.075 158.19 290.586 158.078 290.092 158.085L289.194 158.193Z" fill="#E0E0E0"/>
<path d="M283.741 136.316C285.495 138.406 286.647 140.934 287.072 143.629C287.581 147.199 288.337 150.73 289.334 154.196C290.124 156.766 291.055 159.29 292.122 161.757C290.659 160.234 289.394 158.531 288.358 156.69C287.303 154.593 286.537 152.362 286.081 150.059C285.834 147.566 284.871 145.199 283.308 143.242C281.325 140.623 283.741 136.316 283.741 136.316Z" fill="#EBEBEB"/>
<path d="M191.583 139.57C191.583 139.57 190.731 139.167 189.616 138.872C188.5 138.578 187.571 138.501 187.586 138.454C188.288 138.385 188.996 138.47 189.662 138.702C190.354 138.861 191.007 139.156 191.583 139.57Z" fill="#E0E0E0"/>
<path d="M269.332 162.295L269.318 162.268H269.411L269.332 162.295L262.316 164.623L258.691 165.832C258.376 165.911 258.055 165.968 257.731 166.002H256.755H254.803C252.171 165.792 249.557 165.399 246.98 164.825C246.329 164.685 245.679 164.53 245.028 164.329C244.386 164.124 243.755 163.886 243.138 163.616L239.442 162.108L239.343 162.067H239.451C239.448 162.08 239.445 162.094 239.442 162.108L243.138 163.616C243.755 163.886 244.386 164.124 245.028 164.329C245.679 164.53 246.329 164.685 246.98 164.825C249.557 165.399 252.171 165.792 254.803 166.002H256.755H257.731C258.055 165.968 258.376 165.911 258.691 165.832L262.316 164.623L269.332 162.295Z" fill="#E0E0E0"/>
<path d="M225.184 185.974V185.556C225.184 185.246 225.184 184.797 225.184 184.239C225.184 183.077 225.184 181.403 225.044 179.358C224.951 175.221 224.827 169.535 224.673 163.245C224.673 160.146 224.549 157.047 224.487 154.289C222.581 150.71 220.97 147.658 219.839 145.488L218.522 142.963C218.383 142.684 218.259 142.467 218.182 142.297V142.126L218.29 142.297C218.368 142.467 218.491 142.684 218.646 142.963L220.01 145.457L224.657 154.227C224.657 156.969 224.781 160.006 224.858 163.183C224.982 169.473 225.091 175.159 225.168 179.296C225.168 181.341 225.168 183.015 225.168 184.177C225.168 184.735 225.168 185.184 225.168 185.494V185.85C225.168 185.85 225.199 185.974 225.184 185.974Z" fill="#E0E0E0"/>
<path d="M242.441 153.53C242.48 153.662 242.511 153.796 242.533 153.933C242.61 154.305 242.652 154.684 242.657 155.064C242.68 156.322 242.409 157.569 241.867 158.705C241.558 159.319 241.211 159.914 240.829 160.487C240.489 161.013 240.179 161.494 239.946 161.897C239.701 162.345 239.479 162.805 239.28 163.275C239.291 163.137 239.322 163.001 239.373 162.873C239.504 162.516 239.659 162.169 239.838 161.835C240.055 161.416 240.349 160.92 240.69 160.394C241.058 159.824 241.394 159.234 241.697 158.627C242.229 157.514 242.515 156.298 242.533 155.064C242.533 154.119 242.394 153.545 242.441 153.53Z" fill="#E0E0E0"/>
<path d="M265.833 136.672V136.905C265.833 137.122 265.833 137.431 265.74 137.803C265.647 138.578 265.507 139.709 265.368 141.088C265.229 142.467 265.058 144.187 264.95 145.984C264.95 146.914 264.857 147.874 264.841 148.882C264.841 149.377 264.841 149.894 264.841 150.431C264.863 150.954 264.941 151.474 265.074 151.98C266.948 155.776 268.575 159.309 269.721 161.85L271.084 164.949C271.239 165.305 271.363 165.569 271.441 165.77L271.534 165.987C271.528 166.012 271.528 166.039 271.534 166.064L271.425 165.847L271.038 165.042L269.628 162.051C268.435 159.51 266.793 156.024 264.903 152.166C264.768 151.66 264.69 151.14 264.671 150.617C264.671 150.106 264.671 149.594 264.671 149.067C264.671 148.06 264.671 147.084 264.779 146.17C264.903 144.311 265.074 142.653 265.244 141.258C265.414 139.864 265.554 138.748 265.662 137.974C265.724 137.602 265.771 137.308 265.802 137.091V136.858C265.79 136.827 265.787 136.794 265.792 136.761C265.797 136.728 265.811 136.698 265.833 136.672Z" fill="#E0E0E0"/>
<path d="M283.075 136.998C283.133 137.088 283.175 137.188 283.199 137.292C283.261 137.499 283.338 137.778 283.431 138.129C283.646 139.058 283.807 140 283.911 140.949C284.019 141.9 284.065 142.858 284.051 143.815C284.071 144.104 284.071 144.394 284.051 144.683C284.051 144.884 284.051 144.993 284.051 144.993C284.023 144.601 284.023 144.207 284.051 143.815C284.051 143.087 284.051 142.08 283.865 140.98C283.679 139.88 283.571 138.872 283.431 138.16C283.292 137.447 283.059 137.013 283.075 136.998Z" fill="#E0E0E0"/>
<path d="M219.854 123.115C219.794 123.324 219.673 123.51 219.507 123.65C219.342 123.791 219.138 123.879 218.922 123.903C218.706 123.928 218.488 123.888 218.295 123.789C218.101 123.69 217.942 123.536 217.836 123.346C217.731 123.156 217.683 122.939 217.701 122.722C217.718 122.506 217.799 122.299 217.934 122.129C218.069 121.958 218.251 121.831 218.457 121.764C218.664 121.697 218.886 121.693 219.095 121.752C219.235 121.791 219.365 121.857 219.479 121.947C219.593 122.037 219.688 122.149 219.758 122.275C219.829 122.402 219.873 122.542 219.89 122.686C219.906 122.83 219.894 122.976 219.854 123.115Z" fill="#E0E0E0"/>
<path d="M220.722 120.853C220.722 120.93 220.102 120.404 219.266 120.264C218.748 120.241 218.229 120.272 217.717 120.357C217.717 120.357 217.825 120.187 218.12 120.063C218.502 119.905 218.92 119.857 219.328 119.923C219.739 119.989 220.125 120.165 220.443 120.435C220.66 120.652 220.753 120.822 220.722 120.853Z" fill="#E0E0E0"/>
<path d="M198.337 131.668C198.098 131.447 197.87 131.214 197.655 130.97C197.102 130.423 196.489 129.94 195.827 129.53C195.17 129.107 194.462 128.768 193.721 128.522C193.147 128.321 192.791 128.244 192.791 128.213H193.054C193.29 128.247 193.523 128.299 193.752 128.367C195.285 128.822 196.666 129.684 197.748 130.862C197.912 131.036 198.062 131.223 198.198 131.42C198.306 131.59 198.352 131.668 198.337 131.668Z" fill="#E0E0E0"/>
<path d="M240.582 75.1456C240.582 76.4909 240.183 77.806 239.436 78.9245C238.689 80.0431 237.626 80.9149 236.384 81.4297C235.141 81.9445 233.774 82.0792 232.454 81.8168C231.135 81.5543 229.923 80.9065 228.972 79.9552C228.021 79.004 227.374 77.792 227.111 76.4726C226.849 75.1532 226.983 73.7855 227.498 72.5427C228.013 71.2998 228.885 70.2375 230.003 69.4901C231.121 68.7427 232.436 68.3438 233.781 68.3438C235.584 68.3478 237.311 69.0658 238.586 70.3405C239.86 71.6152 240.578 73.3429 240.582 75.1456Z" fill="#E0E0E0"/>
<path d="M44.3203 271.764V280.658L150.235 284.144L154.511 167.614L148.16 277.745L44.3203 271.764Z" fill="#F5F5F5"/>
<path d="M42.5779 159.23L36.1172 271.298L148.167 277.76L154.627 165.692L42.5779 159.23Z" fill="white"/>
<path d="M148.16 277.745C148.16 277.745 148.16 277.559 148.16 277.218C148.16 276.877 148.16 276.335 148.16 275.669C148.16 274.29 148.33 272.276 148.47 269.642C148.764 264.374 149.182 256.658 149.725 246.85C150.825 227.235 152.405 199.237 154.372 165.661L154.573 165.894L42.5393 159.479L42.8181 159.231C40.4324 200.275 38.1707 238.731 36.3272 271.299L36.1103 271.067L117.27 275.855L140.058 277.234L146.069 277.605L147.618 277.698H148.144H147.649L146.1 277.621L140.12 277.311L117.378 276.056L36.0638 271.408H35.8779V271.191C37.7369 238.654 39.9367 200.151 42.2914 159.108V158.86H42.5702L154.635 165.414H154.852V165.646C152.854 199.268 151.212 227.312 150.05 246.958C149.461 256.735 148.997 264.436 148.687 269.688C148.516 272.307 148.392 274.336 148.315 275.669C148.315 276.335 148.315 276.846 148.206 277.218C148.203 277.395 148.188 277.571 148.16 277.745Z" fill="#E0E0E0"/>
<path d="M93.7288 194.975C90.9556 190.972 86.7427 188.196 81.9707 187.228C81.5416 187.064 81.0676 187.064 80.6385 187.228C80.0963 187.537 80.0188 188.281 80.0498 188.901C80.266 193.438 81.9392 197.785 84.8212 201.296C87.8053 204.879 91.8178 207.459 96.3158 208.687V208.191C96.7913 205.927 96.8074 203.591 96.3629 201.32C95.9185 199.05 95.0228 196.892 93.7288 194.975Z" fill="#EBEBEB"/>
<path d="M108.895 190.357C108.895 190.45 107.547 191.256 105.549 192.914C104.388 193.868 103.295 194.904 102.28 196.013C101.032 197.433 99.9078 198.957 98.9186 200.568C97.934 202.143 97.0792 203.796 96.3625 205.51C95.7781 206.909 95.2966 208.349 94.9218 209.818C94.2866 212.343 94.1472 213.955 94.0543 213.939C94.0066 213.564 94.0066 213.184 94.0543 212.808C94.0543 212.436 94.0543 211.987 94.2092 211.476C94.3641 210.964 94.3796 210.376 94.5345 209.74C94.8743 208.237 95.3248 206.761 95.8823 205.324C96.5944 203.579 97.4493 201.894 98.4384 200.289C99.4572 198.703 100.613 197.21 101.893 195.827C102.939 194.699 104.079 193.663 105.301 192.728C105.797 192.31 106.308 191.984 106.726 191.69C107.084 191.423 107.462 191.185 107.857 190.977C108.175 190.727 108.524 190.519 108.895 190.357Z" fill="#E0E0E0"/>
<path d="M64.3874 243.502C69.2208 254.58 76.6567 262.296 86.3698 263.21C88.3062 263.38 89.8554 262.249 91.7144 262.249C92.8005 262.543 93.8426 262.981 94.8126 263.551C95.2989 263.79 95.8232 263.942 96.3618 264C106.447 264 115.401 257.803 121.83 246.802C130.768 231.432 129.266 214.264 118.484 208.454C117.061 207.675 115.573 207.022 114.038 206.502C112.265 205.925 110.417 205.606 108.554 205.557C104.221 205.579 99.9174 206.258 95.7886 207.571L95.2464 207.726C86.4473 203.388 79.2592 202.954 72.0092 205.789C60.7005 210.313 57.2459 227.186 64.3874 243.502Z" fill="#F5F5F5"/>
<path d="M65.5036 227.465C65.0277 226.451 64.7742 225.347 64.76 224.227C64.587 221.523 65.0873 218.819 66.2162 216.356C67.3527 213.861 69.0745 211.676 71.2354 209.988C72.1013 209.24 73.107 208.671 74.1943 208.315C74.1943 208.439 73.1254 209.059 71.5762 210.391C69.6237 212.121 68.0426 214.229 66.9288 216.589C65.8794 218.97 65.3512 221.548 65.3797 224.15C65.3332 226.21 65.643 227.434 65.5036 227.465Z" fill="#FAFAFA"/>
<path d="M67.0996 235.104C66.8982 235.104 66.5884 234.376 66.4025 233.4C66.2166 232.423 66.2476 231.587 66.4025 231.556C66.5574 231.525 66.9292 232.284 67.0996 233.276C67.27 234.267 67.3939 235.073 67.0996 235.104Z" fill="#FAFAFA"/>
<path d="M87.0215 193.89C88.675 196.014 90.1861 198.244 91.545 200.568C93.0449 202.801 94.4055 205.124 95.6192 207.525C93.9658 205.401 92.4546 203.17 91.0957 200.847C89.5959 198.614 88.2352 196.29 87.0215 193.89Z" fill="#E0E0E0"/>
<g opacity="0.3">
<path opacity="0.3" d="M123.471 218.851C122.232 214.358 117.275 208.377 113.278 208.563C112.503 208.499 111.727 208.678 111.058 209.075C110.389 209.472 109.86 210.067 109.544 210.778C108.998 212.37 109.104 214.114 109.839 215.628C110.564 217.115 111.392 218.549 112.317 219.92C114.134 222.972 115.29 226.371 115.71 229.898C115.758 230.884 115.94 231.859 116.252 232.795C116.416 233.262 116.697 233.678 117.069 234.004C117.441 234.33 117.89 234.554 118.374 234.655C119.784 234.825 120.931 233.555 121.643 232.331C122.823 230.316 123.592 228.087 123.905 225.774C124.219 223.46 124.072 221.107 123.471 218.851Z" fill="white"/>
</g>
<path d="M105.264 164.639C105.264 165.984 104.865 167.299 104.117 168.418C103.37 169.536 102.308 170.408 101.065 170.923C99.8227 171.438 98.4553 171.573 97.1361 171.31C95.8169 171.048 94.6051 170.4 93.654 169.449C92.7029 168.497 92.0552 167.285 91.7928 165.966C91.5304 164.646 91.6651 163.279 92.1798 162.036C92.6945 160.793 93.5662 159.731 94.6846 158.983C95.8029 158.236 97.1178 157.837 98.4629 157.837C100.267 157.837 101.996 158.554 103.272 159.829C104.547 161.105 105.264 162.835 105.264 164.639Z" fill="#E0E0E0"/>
<path d="M538.576 236.19L536.701 245.92L644.831 267.643L662.337 160.285L640.664 258.687L538.576 236.19Z" fill="#F5F5F5"/>
<path d="M558.219 129.668L534.942 235.376L640.633 258.656L663.909 152.948L558.219 129.668Z" fill="white"/>
<path d="M640.664 258.687L640.757 258.176C640.834 257.835 640.927 257.355 641.067 256.627C641.345 255.341 641.764 253.435 642.29 250.956C643.375 245.967 644.97 238.7 646.938 229.435C650.981 210.935 656.759 184.502 663.684 152.848L663.855 153.111L558.172 129.87L558.466 129.685C549.93 168.419 541.921 204.66 535.152 235.384L534.981 235.121L611.524 252.164L632.996 256.952L638.665 258.223L640.137 258.563L640.633 258.687L640.153 258.594L638.712 258.285L633.057 257.061L611.602 252.412L534.919 235.601H534.718V235.4C541.472 204.66 549.45 168.389 557.955 129.685V129.437H558.203L663.87 152.771H664.071V152.972C657.038 184.688 651.183 211.121 647.031 229.652C644.97 238.871 643.359 246.122 642.244 251.095C641.702 253.543 641.268 255.434 640.989 256.72C640.834 257.355 640.726 257.82 640.648 258.161C640.571 258.501 640.664 258.687 640.664 258.687Z" fill="#E0E0E0"/>
<path d="M600.326 153.313C599.023 153.471 597.702 153.371 596.438 153.018C600.14 161.494 600.155 171.704 599.009 180.908L600.775 180.722C602.125 171.622 601.974 162.363 600.326 153.313Z" fill="#E0E0E0"/>
<path d="M625.499 188.469C635.847 202.196 631.231 223.16 617.49 233.51C614.225 235.972 610.507 237.766 606.548 238.791C602.59 239.816 598.468 240.051 594.418 239.483C590.369 238.914 586.471 237.554 582.947 235.479C579.424 233.404 576.343 230.655 573.882 227.39C571.42 224.124 569.626 220.405 568.601 216.446C567.576 212.487 567.341 208.364 567.91 204.314C568.478 200.264 569.838 196.366 571.913 192.841C573.987 189.317 576.736 186.236 580.001 183.774C593.726 173.424 615.213 174.725 625.499 188.469Z" fill="#F5F5F5"/>
<g opacity="0.3">
<path opacity="0.3" d="M570.458 195.611C576.627 195.448 582.573 193.272 587.39 189.414C595.012 183.061 597.429 177.236 597.429 177.236C592.38 176.898 587.38 178.395 583.347 181.45C578.938 185.237 574.892 189.428 571.264 193.969C570.904 194.467 570.631 195.022 570.458 195.611Z" fill="#E0E0E0"/>
</g>
<path d="M597.692 165.599C593.809 165.647 589.939 166.062 586.135 166.839C582.306 167.633 578.788 169.516 576.004 172.262C573.343 175.377 571.496 179.104 570.628 183.108C569.766 187.121 568.633 191.07 567.235 194.93C573.989 194.008 580.454 191.6 586.166 187.88C588.659 186.247 590.876 184.228 592.734 181.899C594.561 179.695 595.911 177.136 596.7 174.385C597.424 171.488 597.757 168.507 597.692 165.522" fill="#EBEBEB"/>
<path d="M599.83 164.05C599.565 164.367 599.275 164.663 598.962 164.933L596.515 167.242C594.454 169.179 591.604 171.89 588.506 174.896C585.407 177.902 582.665 180.722 580.76 182.751L578.405 185.153C578.136 185.468 577.829 185.749 577.491 185.99C577.719 185.641 577.978 185.315 578.266 185.014C578.777 184.409 579.536 183.557 580.497 182.503C582.417 180.412 585.144 177.576 588.242 174.54C591.341 171.503 594.222 168.853 596.36 166.979C597.429 166.033 598.296 165.29 598.916 164.794C599.19 164.51 599.497 164.26 599.83 164.05Z" fill="#E0E0E0"/>
<g opacity="0.3">
<path opacity="0.3" d="M578.033 212.081C578.175 212.059 578.304 211.986 578.397 211.877C578.49 211.767 578.541 211.628 578.541 211.485C578.541 211.341 578.49 211.203 578.397 211.093C578.304 210.984 578.175 210.911 578.033 210.888C577.891 210.911 577.763 210.984 577.67 211.093C577.577 211.203 577.525 211.341 577.525 211.485C577.525 211.628 577.577 211.767 577.67 211.877C577.763 211.986 577.891 212.059 578.033 212.081Z" fill="#EBEBEB"/>
</g>
<g opacity="0.3">
<path opacity="0.3" d="M576.484 206.906C576.626 206.884 576.755 206.811 576.848 206.702C576.941 206.592 576.992 206.453 576.992 206.31C576.992 206.166 576.941 206.028 576.848 205.918C576.755 205.809 576.626 205.736 576.484 205.713C576.343 205.736 576.214 205.809 576.121 205.918C576.028 206.028 575.977 206.166 575.977 206.31C575.977 206.453 576.028 206.592 576.121 206.702C576.214 206.811 576.343 206.884 576.484 206.906Z" fill="#EBEBEB"/>
</g>
<g opacity="0.3">
<path opacity="0.3" d="M573.386 212.112C573.527 212.09 573.656 212.017 573.749 211.908C573.842 211.798 573.893 211.66 573.893 211.516C573.893 211.372 573.842 211.234 573.749 211.124C573.656 211.015 573.527 210.942 573.386 210.919C573.244 210.942 573.115 211.015 573.022 211.124C572.929 211.234 572.878 211.372 572.878 211.516C572.878 211.66 572.929 211.798 573.022 211.908C573.115 212.017 573.244 212.09 573.386 212.112Z" fill="#EBEBEB"/>
</g>
<g opacity="0.3">
<path opacity="0.3" d="M572.564 204.551C572.706 204.529 572.835 204.456 572.928 204.347C573.021 204.237 573.072 204.098 573.072 203.955C573.072 203.811 573.021 203.673 572.928 203.563C572.835 203.454 572.706 203.381 572.564 203.358C572.423 203.381 572.294 203.454 572.201 203.563C572.108 203.673 572.057 203.811 572.057 203.955C572.057 204.098 572.108 204.237 572.201 204.347C572.294 204.456 572.423 204.529 572.564 204.551Z" fill="#EBEBEB"/>
</g>
<g opacity="0.3">
<path opacity="0.3" d="M577.879 199.454C578.021 199.431 578.149 199.358 578.242 199.249C578.335 199.14 578.387 199.001 578.387 198.857C578.387 198.714 578.335 198.575 578.242 198.466C578.149 198.356 578.021 198.284 577.879 198.261C577.737 198.284 577.608 198.356 577.515 198.466C577.422 198.575 577.371 198.714 577.371 198.857C577.371 199.001 577.422 199.14 577.515 199.249C577.608 199.358 577.737 199.431 577.879 199.454Z" fill="#EBEBEB"/>
</g>
<g opacity="0.3">
<path opacity="0.3" d="M581.286 203.544C581.428 203.521 581.557 203.449 581.65 203.339C581.743 203.23 581.794 203.091 581.794 202.948C581.794 202.804 581.743 202.665 581.65 202.556C581.557 202.447 581.428 202.374 581.286 202.351C581.144 202.374 581.015 202.447 580.922 202.556C580.829 202.665 580.778 202.804 580.778 202.948C580.778 203.091 580.829 203.23 580.922 203.339C581.015 203.449 581.144 203.521 581.286 203.544Z" fill="#EBEBEB"/>
</g>
<g opacity="0.3">
<path opacity="0.3" d="M574.578 219.488C574.72 219.465 574.849 219.392 574.942 219.283C575.035 219.173 575.086 219.035 575.086 218.891C575.086 218.748 575.035 218.609 574.942 218.499C574.849 218.39 574.72 218.317 574.578 218.295C574.436 218.317 574.307 218.39 574.214 218.499C574.121 218.609 574.07 218.748 574.07 218.891C574.07 219.035 574.121 219.173 574.214 219.283C574.307 219.392 574.436 219.465 574.578 219.488Z" fill="#EBEBEB"/>
</g>
<g opacity="0.3">
<path opacity="0.3" d="M573.897 198.214C574.039 198.191 574.168 198.119 574.261 198.009C574.354 197.9 574.405 197.761 574.405 197.618C574.405 197.474 574.354 197.335 574.261 197.226C574.168 197.117 574.039 197.044 573.897 197.021C573.756 197.044 573.627 197.117 573.534 197.226C573.441 197.335 573.39 197.474 573.39 197.618C573.39 197.761 573.441 197.9 573.534 198.009C573.627 198.119 573.756 198.191 573.897 198.214Z" fill="#EBEBEB"/>
</g>
<g opacity="0.3">
<path opacity="0.3" d="M627.173 203.544C627.04 201.985 626.828 200.434 626.538 198.896C625.75 195.235 624.089 191.818 621.697 188.937C619.304 186.055 616.251 183.795 612.797 182.348C610.148 181.233 608.366 180.954 608.382 180.799C608.806 180.805 609.227 180.862 609.637 180.97C610.763 181.206 611.867 181.538 612.936 181.961C616.494 183.352 619.64 185.624 622.079 188.565C624.518 191.506 626.169 195.018 626.879 198.772C627.098 199.896 627.217 201.036 627.235 202.181C627.279 202.636 627.258 203.095 627.173 203.544Z" fill="white"/>
</g>
<g opacity="0.3">
<path opacity="0.3" d="M626.319 212.345C626.195 212.252 626.722 211.4 627.001 210.238C627.28 209.076 627.233 208.068 627.373 208.037C627.71 208.762 627.755 209.589 627.497 210.346C627.187 211.632 626.412 212.438 626.319 212.345Z" fill="white"/>
</g>
<path d="M617.567 139.942C617.567 141.238 617.182 142.505 616.462 143.583C615.742 144.66 614.719 145.501 613.522 145.997C612.324 146.493 611.007 146.622 609.735 146.37C608.464 146.117 607.297 145.492 606.38 144.576C605.464 143.659 604.84 142.491 604.587 141.22C604.334 139.949 604.464 138.631 604.96 137.433C605.456 136.236 606.296 135.212 607.373 134.492C608.451 133.772 609.718 133.388 611.014 133.388C612.752 133.388 614.419 134.078 615.647 135.307C616.876 136.536 617.567 138.203 617.567 139.942Z" fill="#E0E0E0"/>
<path d="M101.019 420.026H28.4883V492.058H101.019V420.026Z" fill="#EBEBEB"/>
<path d="M132.699 420.026H60.168V492.058H132.699V420.026Z" fill="white"/>
<path d="M59.8431 468.522C59.9516 468.677 53.0269 474.054 44.3517 480.546C35.6765 487.038 28.5814 492.197 28.4729 492.058C28.3645 491.918 35.3047 486.542 43.9644 480.034C52.6241 473.527 59.7347 468.383 59.8431 468.522Z" fill="#E0E0E0"/>
<path d="M59.8431 447.791C59.9516 447.931 53.0269 453.307 44.3517 459.815C35.6765 466.322 28.5814 471.466 28.4729 471.327C28.3645 471.187 35.3047 465.795 43.9644 459.303C52.6241 452.811 59.7347 447.652 59.8431 447.791Z" fill="#E0E0E0"/>
<path d="M59.8431 427.045C59.9516 427.184 53.0269 432.576 44.3517 439.068C35.6765 445.56 28.5814 450.72 28.4729 450.58C28.3645 450.441 35.3047 445.064 43.9644 438.557C52.6241 432.049 59.7347 426.905 59.8431 427.045Z" fill="#E0E0E0"/>
<path d="M41.5786 420.026C39.5967 421.906 37.4733 423.631 35.2271 425.186C33.1042 426.907 30.8512 428.461 28.4883 429.834C30.4667 427.945 32.5904 426.215 34.8398 424.659C36.9604 422.939 39.2137 421.39 41.5786 420.026Z" fill="#E0E0E0"/>
<path d="M142.893 347.266H69.6338V420.011H142.893V347.266Z" fill="#EBEBEB"/>
<path d="M174.883 347.266H101.624V420.011H174.883V347.266Z" fill="white"/>
<path d="M101.299 396.274C101.407 396.413 94.4049 401.852 85.6522 408.406C76.8995 414.96 69.7425 420.181 69.6341 420.042C69.5256 419.902 76.5277 414.464 85.2804 407.894C94.0331 401.325 101.19 396.119 101.299 396.274Z" fill="#E0E0E0"/>
<path d="M101.299 375.31C101.407 375.45 94.4049 380.888 85.6522 387.442C76.8995 393.996 69.7425 399.218 69.6341 399.078C69.5256 398.939 76.5277 393.5 85.2804 386.931C94.0331 380.362 101.19 375.171 101.299 375.31Z" fill="#E0E0E0"/>
<path d="M101.299 354.44C101.407 354.58 94.4049 360.018 85.6522 366.587C76.8995 373.157 69.7425 378.347 69.6341 378.208C69.5256 378.068 76.5277 372.63 85.2804 366.076C94.0331 359.522 101.19 354.223 101.299 354.44Z" fill="#E0E0E0"/>
<path d="M82.848 347.266C80.8458 349.167 78.7017 350.913 76.4345 352.488C74.2963 354.218 72.022 355.772 69.6338 357.136C71.6388 355.243 73.7826 353.503 76.0472 351.93C78.1925 350.205 80.466 348.646 82.848 347.266Z" fill="#E0E0E0"/>
<path d="M111.957 492.058H39.4258V564.089H111.957V492.058Z" fill="#EBEBEB"/>
<path d="M143.621 492.058H71.0898V564.089H143.621V492.058Z" fill="white"/>
<path d="M70.7798 540.569C70.8727 540.709 63.9481 546.101 55.2883 552.593C46.6286 559.085 39.5335 564.244 39.4251 564.105C39.3166 563.965 46.2413 558.573 54.9165 552.081C63.5918 545.589 70.6713 540.368 70.7798 540.569Z" fill="#E0E0E0"/>
<path d="M70.7798 519.838C70.8727 519.978 63.9481 525.354 55.2883 531.846C46.6286 538.338 39.5335 543.467 39.4251 543.358C39.3166 543.25 46.2413 537.842 54.9165 531.335C63.5918 524.827 70.6713 519.683 70.7798 519.838Z" fill="#E0E0E0"/>
<path d="M70.7798 499.092C70.8727 499.231 63.9481 504.623 55.2883 511.115C46.6286 517.607 39.5335 522.767 39.4251 522.627C39.3166 522.488 46.2413 517.096 54.9165 510.604C63.5918 504.112 70.6713 498.952 70.7798 499.092Z" fill="#E0E0E0"/>
<path d="M52.5006 492.058C50.5338 493.953 48.4147 495.684 46.1646 497.233C44.0415 498.953 41.7885 500.507 39.4258 501.881C41.4036 499.996 43.5274 498.271 45.7773 496.721C47.899 495.001 50.1464 493.442 52.5006 492.058Z" fill="#E0E0E0"/>
<path d="M681.732 563.144C681.732 563.376 529.08 563.547 340.92 563.547C152.761 563.547 0 563.376 0 563.144C0 562.912 152.606 562.741 340.92 562.741C529.234 562.741 681.732 562.927 681.732 563.144Z" fill="#263238"/>
<path d="M570.411 579.676L591.805 567.513L604.059 594.922L576.406 606.248L564.199 588.694L570.411 579.676Z" fill="#455A64"/>
<path d="M580.434 606.713L578.265 607.364C578.265 607.364 577.677 640.149 569.946 642.845L547.979 586.679L570.039 579.211C568.784 589.329 572.115 598.718 580.434 606.713Z" fill="#9ECB45"/>
<path d="M547.979 586.679L553.278 584.882L572.797 640.041C572.797 640.041 571.526 642.396 569.946 642.845L547.979 586.679Z" fill="#E0E0E0"/>
<path d="M570.179 609.595C570.179 609.595 570.582 609.223 571.372 608.96C572.421 608.625 573.532 608.525 574.625 608.665C575.662 608.776 576.656 609.137 577.522 609.719C578.157 610.168 578.405 610.556 578.343 610.618C577.107 610.021 575.8 609.584 574.454 609.316C573.023 609.251 571.589 609.344 570.179 609.595Z" fill="white"/>
<path d="M569.761 606.341C571.128 605.617 572.703 605.382 574.222 605.675C574.948 605.688 575.663 605.847 576.326 606.143C576.988 606.438 577.585 606.864 578.08 607.395C576.758 606.964 575.413 606.607 574.052 606.326C572.622 606.253 571.19 606.258 569.761 606.341Z" fill="white"/>
<path d="M570.334 614.569C571.258 613.638 572.495 613.086 573.804 613.019C574.415 612.861 575.051 612.829 575.674 612.925C576.297 613.021 576.894 613.243 577.429 613.577C577.429 613.763 575.88 613.391 573.851 613.685C571.821 613.98 570.458 614.739 570.334 614.569Z" fill="white"/>
<path d="M577.77 610.958C577.77 610.958 578.234 610.091 579.598 609.208C580.394 608.71 581.234 608.285 582.107 607.937C582.603 607.736 583.114 607.55 583.656 607.364C583.947 607.244 584.247 607.15 584.555 607.085C584.747 607.041 584.947 607.04 585.14 607.083C585.333 607.126 585.514 607.211 585.67 607.333C585.821 607.474 585.914 607.667 585.931 607.873C585.948 608.079 585.888 608.284 585.763 608.448C585.574 608.721 585.332 608.953 585.051 609.13C584.563 609.454 584.044 609.729 583.501 609.951C582.626 610.342 581.696 610.598 580.744 610.711C579.898 610.896 579.017 610.837 578.203 610.54C578.203 610.432 579.179 610.54 580.697 610.261C581.568 610.079 582.415 609.798 583.223 609.425C583.693 609.199 584.144 608.935 584.57 608.634C585.004 608.355 585.267 607.937 585.066 607.829C584.865 607.72 584.353 607.751 583.811 607.953L582.262 608.495C581.41 608.8 580.581 609.167 579.783 609.595C578.498 610.323 577.862 611.02 577.77 610.958Z" fill="white"/>
<path d="M578.08 611.268C578.08 611.268 577.94 611.268 577.739 611.067L577.584 610.927H577.832C578.796 610.802 579.773 610.828 580.729 611.005C581.455 611.126 582.166 611.323 582.851 611.594C583.228 611.741 583.595 611.912 583.951 612.105C584.163 612.219 584.357 612.365 584.524 612.539C584.619 612.654 584.683 612.79 584.713 612.936C584.743 613.082 584.736 613.233 584.695 613.376C584.61 613.575 584.467 613.744 584.284 613.86C584.102 613.976 583.888 614.034 583.672 614.026C583.38 614.039 583.088 614.007 582.805 613.933C581.496 613.692 580.258 613.163 579.18 612.384C578.095 611.532 577.723 610.835 577.801 610.742C577.878 610.649 578.421 611.299 579.536 612.012C580.191 612.439 580.899 612.777 581.643 613.019C582.087 613.169 582.543 613.283 583.006 613.36C583.502 613.484 584.013 613.437 583.982 613.36C583.951 613.283 583.114 612.57 582.51 612.291C581.873 612.021 581.215 611.803 580.543 611.64C579.646 611.438 578.734 611.308 577.816 611.253L577.925 611.082C578.08 611.144 578.08 611.253 578.08 611.268Z" fill="white"/>
<path d="M664.568 508.249C665.854 508.249 681.268 520.071 676.558 539.469C674.483 548.053 659.626 561.238 643.686 573.308C623.547 588.554 601.688 601.987 601.688 601.987L578.885 568.257L610.472 543.963L606.212 535.425L664.568 508.249Z" fill="#263238"/>
<path d="M638.063 560.882L657.969 574.377L647.59 599.88L620.619 591.39V588.136L638.063 560.882Z" fill="#455A64"/>
<path d="M655.351 570.984L657.272 572.394C657.272 572.394 685.296 552.252 692.422 557.132L658.836 610.959L638.697 597.014C647.961 591.684 653.832 583.023 655.351 570.984Z" fill="#9ECB45"/>
<path d="M658.836 610.958L653.987 607.612L688.27 556.482C689.686 556.235 691.144 556.459 692.422 557.117L658.836 610.958Z" fill="#E0E0E0"/>
<path d="M664.228 577.817C664.228 577.894 663.67 577.724 662.926 577.213C661.991 576.535 661.214 575.663 660.649 574.656C660.098 573.712 659.779 572.649 659.72 571.557C659.72 570.752 659.859 570.287 659.952 570.318C660.238 571.73 660.69 573.103 661.3 574.408C662.144 575.651 663.126 576.795 664.228 577.817Z" fill="white"/>
<path d="M661.733 580.218C660.257 579.528 659.069 578.344 658.371 576.872C657.48 575.614 657.124 574.054 657.38 572.533C657.857 573.919 658.406 575.279 659.022 576.608C659.86 577.86 660.765 579.065 661.733 580.218Z" fill="white"/>
<path d="M668.317 574.563C666.951 574.361 665.709 573.66 664.831 572.595C663.802 571.742 663.151 570.517 663.019 569.187C663.235 569.187 663.886 570.736 665.358 572.146C666.829 573.556 668.379 574.362 668.317 574.563Z" fill="white"/>
<path d="M660.602 570.566C659.704 570.674 658.795 570.518 657.984 570.116C657.06 569.76 656.172 569.314 655.335 568.784C654.855 568.505 654.375 568.18 653.879 567.854C653.594 567.681 653.325 567.484 653.073 567.265C652.918 567.128 652.795 566.958 652.712 566.768C652.629 566.578 652.588 566.373 652.593 566.165C652.62 565.95 652.724 565.753 652.887 565.61C653.05 565.467 653.26 565.389 653.476 565.391C653.825 565.382 654.172 565.439 654.499 565.561C655.062 565.759 655.607 566.008 656.125 566.305C657.002 566.8 657.8 567.421 658.495 568.149C659.184 568.751 659.688 569.535 659.952 570.411C659.843 570.411 659.332 569.574 658.139 568.489C657.446 567.875 656.675 567.354 655.846 566.94C655.351 566.677 654.832 566.459 654.297 566.289C653.786 566.103 653.259 566.134 653.29 566.382C653.321 566.63 653.678 567.018 654.204 567.358L655.614 568.319C656.405 568.844 657.233 569.31 658.093 569.714C659.611 570.333 660.602 570.442 660.602 570.566Z" fill="white"/>
<path d="M660.665 570.07C660.665 570.07 660.665 570.209 660.665 570.488V570.705L660.463 570.519C659.752 569.791 659.161 568.954 658.713 568.04C658.359 567.348 658.078 566.621 657.876 565.871C657.768 565.468 657.69 565.05 657.613 564.616C657.574 564.37 657.574 564.119 657.613 563.872C657.645 563.718 657.716 563.575 657.819 563.455C657.922 563.336 658.054 563.245 658.201 563.191C658.422 563.137 658.654 563.151 658.867 563.231C659.08 563.311 659.264 563.454 659.394 563.64C659.593 563.884 659.754 564.155 659.874 564.446C660.101 564.946 660.288 565.464 660.432 565.995C660.683 566.829 660.798 567.697 660.773 568.567C660.843 569.336 660.664 570.108 660.262 570.767C660.138 570.767 660.339 569.884 660.262 568.505C660.203 567.688 660.041 566.881 659.782 566.103C659.633 565.629 659.447 565.168 659.224 564.724C659.007 564.229 658.666 563.826 658.558 563.934C658.139 564.027 658.434 565.174 658.558 565.856C658.731 566.561 658.965 567.25 659.255 567.916C659.638 568.803 660.099 569.653 660.634 570.457H660.417C660.556 570.178 660.618 570.054 660.665 570.07Z" fill="white"/>
<path d="M552.456 352.147C551.474 339.893 545.876 328.468 536.794 320.183L537.832 319.718C533.312 317.423 528.096 316.908 523.214 318.273C518.332 319.639 514.14 322.786 511.466 327.093C509.405 330.719 508.569 334.84 507.206 338.838C505.842 342.835 503.751 346.755 500.111 348.785C498.174 349.87 495.943 350.334 493.914 351.295C492.873 351.691 491.958 352.361 491.266 353.234C490.573 354.106 490.129 355.149 489.979 356.253C489.902 359.104 492.752 361.149 495.463 361.986C498.174 362.822 501.21 363.07 503.457 364.806C502.447 365.393 501.562 366.173 500.853 367.102C500.145 368.031 499.626 369.09 499.327 370.22C499.028 371.349 498.954 372.526 499.11 373.684C499.265 374.842 499.648 375.958 500.234 376.968C500.821 377.979 501.601 378.863 502.53 379.572C503.459 380.281 504.518 380.8 505.647 381.099C506.777 381.398 507.954 381.472 509.112 381.316C510.269 381.161 511.385 380.778 512.395 380.191C509.932 384.545 511.729 390.495 515.726 393.501C517.806 394.896 520.194 395.766 522.684 396.035C525.175 396.305 527.693 395.967 530.025 395.05C534.679 393.164 538.74 390.06 541.783 386.063C549.503 376.516 553.317 364.396 552.456 352.147Z" fill="#263238"/>
<path d="M619.488 338.233C619.488 334.794 616.777 331.85 613.616 330.487C610.378 329.316 606.941 328.789 603.5 328.937C605.406 324.785 607.358 320.493 607.482 315.922C607.606 311.351 605.483 306.378 601.285 304.612C597.66 303.062 593.462 304.209 589.914 305.913C586.367 307.617 583.021 309.911 579.179 310.794C569.202 313.118 559.505 305.526 549.249 305.402C538.746 305.278 527.778 315.055 527.081 325.544C542.278 335.321 557.615 345.19 570.271 358.081C577.118 365.038 584.291 373.42 594.035 373.901C597.088 374.056 600.125 373.384 602.827 371.953C605.528 370.523 607.792 368.389 609.38 365.777C610.968 363.165 611.82 360.172 611.845 357.115C611.871 354.058 611.07 351.052 609.527 348.413C614.112 346.43 619.488 343.3 619.488 338.233Z" fill="#263238"/>
<path d="M536.472 334.163L536.435 334.381L521.75 421.581L521.744 421.613L521.735 421.644L521.735 421.644L521.733 421.648L521.729 421.664L521.71 421.728C521.693 421.785 521.669 421.871 521.637 421.984C521.575 422.21 521.486 422.543 521.38 422.969C521.17 423.821 520.897 425.044 520.644 426.521C520.139 429.48 519.721 433.445 520.06 437.497C520.4 441.551 521.493 445.652 523.975 448.924C526.445 452.18 530.327 454.662 536.347 455.43C541.769 456.123 546.009 455.212 549.326 453.481C552.647 451.748 555.072 449.175 556.833 446.498C558.595 443.82 559.683 441.05 560.331 438.945C560.654 437.894 560.867 437.011 560.998 436.394C561.064 436.085 561.11 435.843 561.138 435.678C561.146 435.637 561.152 435.6 561.157 435.569C561.162 435.539 561.166 435.513 561.17 435.493L561.177 435.447L561.178 435.436L561.179 435.434L561.179 435.434L561.179 435.434L561.18 435.427L563.829 418.508L563.906 418.014L536.472 334.163ZM536.472 334.163L536.335 333.989L530.873 327.056L574.615 327.268C581.228 327.894 587.443 332.148 591.797 337.96C596.156 343.778 598.592 351.079 597.722 357.691C595.722 372.736 593.419 388.882 589.507 399.588C585.592 410.241 579.287 414.84 574.002 416.797C571.349 417.78 568.939 418.103 567.194 418.179C566.321 418.218 565.617 418.195 565.133 418.163C564.891 418.147 564.704 418.128 564.58 418.114C564.518 418.107 564.471 418.101 564.441 418.097L564.408 418.092L564.4 418.091L564.4 418.091L564.399 418.091L536.472 334.163Z" fill="white" stroke="#263238"/>
<path d="M588.691 377.464C588.547 378.21 588.12 378.871 587.498 379.308C586.877 379.744 586.11 379.922 585.36 379.804C584.627 379.715 583.959 379.338 583.503 378.757C583.047 378.177 582.84 377.438 582.928 376.705C583.068 375.961 583.492 375.3 584.111 374.863C584.73 374.426 585.495 374.248 586.243 374.366C586.977 374.455 587.646 374.831 588.105 375.411C588.563 375.991 588.774 376.729 588.691 377.464Z" fill="#263238"/>
<path d="M592.022 367.285C591.604 367.579 589.745 365.549 586.678 364.96C583.61 364.372 581.039 365.456 580.775 364.96C580.651 364.759 581.147 364.155 582.325 363.644C583.838 362.977 585.522 362.798 587.142 363.132C588.744 363.443 590.204 364.257 591.31 365.456C592.022 366.417 592.162 367.145 592.022 367.285Z" fill="#263238"/>
<path d="M563.347 373.513C563.211 374.26 562.787 374.923 562.167 375.36C561.547 375.798 560.781 375.975 560.032 375.853C559.668 375.811 559.316 375.697 558.997 375.518C558.677 375.339 558.396 375.099 558.17 374.81C557.944 374.522 557.777 374.192 557.679 373.839C557.581 373.486 557.554 373.118 557.6 372.754C557.736 372.008 558.159 371.344 558.779 370.907C559.399 370.469 560.166 370.293 560.915 370.414C561.648 370.504 562.315 370.88 562.771 371.461C563.227 372.042 563.434 372.78 563.347 373.513Z" fill="#263238"/>
<path d="M563.565 362.187C563.131 362.482 561.287 360.452 558.205 359.863C555.122 359.274 552.581 360.359 552.318 359.863C552.194 359.662 552.674 359.057 553.867 358.546C555.376 357.881 557.054 357.702 558.669 358.035C560.273 358.338 561.735 359.154 562.836 360.359C563.58 361.32 563.766 362.048 563.565 362.187Z" fill="#263238"/>
<path d="M568.413 387.892C570.134 387.761 571.865 387.823 573.572 388.078C574.362 388.078 575.121 388.171 575.369 387.737C575.568 387.051 575.524 386.318 575.245 385.661L573.959 380.16C573.463 378.162 571.294 366.959 571.449 365.952C571.821 365.952 573.541 372.15 575.291 380.021C575.694 381.942 576.097 383.77 576.469 385.521C576.632 385.955 576.705 386.418 576.683 386.882C576.662 387.345 576.547 387.8 576.345 388.217C576.152 388.441 575.915 388.622 575.648 388.747C575.381 388.873 575.091 388.94 574.796 388.945C574.338 388.961 573.881 388.925 573.432 388.837C571.732 388.691 570.05 388.374 568.413 387.892Z" fill="#263238"/>
<path d="M564.323 418.554C553.867 416.712 544.14 411.966 536.253 404.858C536.253 404.858 540.807 421.901 563.518 424.241L564.323 418.554Z" fill="#263238"/>
<path d="M598.776 344.741C596.266 336.328 589.667 329.495 581.859 325.498C573.917 321.718 565.18 319.916 556.391 320.245C547.616 320.573 538.881 321.61 530.272 323.344C528.181 323.716 525.888 324.196 524.602 325.885C523.817 327.107 523.358 328.51 523.27 329.96C521.473 342.014 519.687 354.058 517.91 366.092L519.63 374.056C523.472 374.892 527.375 372.739 530.474 370.322C541.434 361.76 548.697 349.323 550.768 335.569C551.418 337.364 551.773 339.253 551.821 341.162C551.855 342.122 552.117 343.059 552.586 343.897C553.055 344.735 553.717 345.449 554.516 345.981C557.367 347.406 560.605 344.509 561.704 341.503C562.804 338.497 562.975 335.042 565.051 332.609C567.205 337.693 570.49 342.218 574.655 345.841C576.623 347.53 579.303 349.079 581.657 347.917C582.442 347.438 583.077 346.749 583.491 345.927C583.904 345.106 584.079 344.185 583.997 343.269C583.813 341.442 583.287 339.665 582.448 338.032C585.307 342.813 589.501 346.653 594.515 349.079C595.027 349.409 595.607 349.617 596.211 349.687C596.816 349.757 597.428 349.687 598.001 349.482C599.411 348.708 599.287 346.43 598.776 344.741Z" fill="#263238"/>
<path d="M532.411 365.178C532.101 364.961 519.491 358.531 517.353 372.243C515.216 385.955 529.39 385.273 529.483 384.886C529.576 384.499 532.411 365.178 532.411 365.178Z" fill="white"/>
<path d="M526.106 379.029C526.106 379.029 525.843 379.169 525.409 379.293C524.805 379.434 524.17 379.346 523.627 379.045C522.264 378.285 521.397 375.791 521.722 373.312C521.864 372.128 522.278 370.994 522.93 369.996C523.126 369.59 523.417 369.237 523.778 368.967C524.14 368.698 524.561 368.519 525.006 368.447C525.294 368.417 525.584 368.489 525.824 368.65C526.065 368.811 526.241 369.052 526.323 369.33C526.447 369.733 526.323 369.996 526.323 370.027C526.323 370.058 526.648 369.857 526.633 369.268C526.605 368.914 526.458 368.581 526.214 368.323C525.886 367.978 525.435 367.777 524.96 367.765C524.378 367.788 523.812 367.96 523.316 368.264C522.82 368.567 522.41 368.993 522.125 369.5C521.357 370.595 520.868 371.861 520.699 373.188C520.359 375.961 521.366 378.766 523.255 379.649C523.606 379.818 523.99 379.905 524.379 379.905C524.768 379.905 525.151 379.818 525.502 379.649C526.028 379.37 526.152 379.06 526.106 379.029Z" fill="#263238"/>
<path d="M548.181 333.399C548.068 333.664 547.922 333.914 547.747 334.143C547.437 334.623 546.973 335.305 546.306 336.157C544.476 338.562 542.399 340.769 540.11 342.742C538.521 344.11 536.844 345.373 535.091 346.523C534.13 347.127 533.154 347.747 532.07 348.32C530.951 348.978 529.663 349.291 528.367 349.219C527.667 349.13 527.001 348.865 526.431 348.447C525.862 348.03 525.409 347.474 525.114 346.833C524.516 345.541 524.286 344.11 524.448 342.696C524.835 339.798 526.586 337.397 527.407 334.685C527.515 334.339 527.603 333.988 527.67 333.632L528.259 333.988L521.567 338.946L518.391 341.301C517.384 342.156 516.172 342.733 514.874 342.975C514.178 343.048 513.481 342.854 512.922 342.432C512.421 342.033 512.049 341.493 511.853 340.883C511.557 339.745 511.505 338.557 511.699 337.397C511.915 335.36 512.394 333.361 513.124 331.447C514.167 328.679 515.711 326.126 517.678 323.917C518.209 323.323 518.773 322.759 519.367 322.228C519.568 322.033 519.792 321.861 520.033 321.717C520.033 321.717 519.212 322.523 517.895 324.103C516.04 326.34 514.588 328.883 513.604 331.618C512.93 333.504 512.488 335.465 512.287 337.459C512.117 338.533 512.175 339.631 512.458 340.682C512.579 341.201 512.885 341.658 513.318 341.968C513.751 342.279 514.282 342.422 514.812 342.37C515.988 342.126 517.084 341.593 518.004 340.821L521.102 338.466L527.763 333.508L528.538 332.935L528.352 333.864C528.274 334.221 528.181 334.608 528.057 334.995C527.174 337.846 525.455 340.248 525.114 342.866C524.952 344.147 525.156 345.447 525.703 346.616C525.96 347.155 526.355 347.618 526.847 347.958C527.339 348.298 527.911 348.503 528.507 348.552C529.676 348.605 530.836 348.326 531.853 347.747C532.891 347.204 533.882 346.6 534.827 346.011C539.113 343.284 542.941 339.896 546.167 335.971C546.849 335.166 547.36 334.515 547.716 334.066C547.848 333.828 548.003 333.605 548.181 333.399Z" fill="#455A64"/>
<path d="M561.193 397.157C561.193 397.157 560.884 397.405 560.202 397.482C559.228 397.578 558.25 397.355 557.414 396.847C556.779 396.474 556.234 395.967 555.814 395.363C555.394 394.758 555.11 394.07 554.981 393.346C554.835 392.463 554.87 391.559 555.086 390.69C555.302 389.821 555.693 389.006 556.236 388.295C556.773 387.481 557.588 386.891 558.529 386.637C558.984 386.589 559.444 386.635 559.88 386.771C560.317 386.907 560.722 387.13 561.069 387.427C562.309 388.403 563.316 389.348 564.168 390.123C565.163 390.913 566.071 391.807 566.879 392.788C565.771 392.161 564.732 391.418 563.78 390.572C562.866 389.859 561.798 388.93 560.589 388.031C560.318 387.803 560.005 387.631 559.668 387.524C559.33 387.418 558.974 387.38 558.622 387.411C557.877 387.648 557.237 388.136 556.809 388.79C555.854 390.057 555.437 391.649 555.647 393.222C555.833 394.291 556.378 395.266 557.192 395.984C558.006 396.702 559.04 397.122 560.125 397.173C560.48 397.141 560.837 397.136 561.193 397.157Z" fill="#263238"/>
<path d="M582.944 433.46C589.318 439.136 594.35 446.159 597.676 454.02C603.47 467.407 608.83 491.918 608.83 491.918L505.347 559.395L489.035 565.468C489.035 565.468 483.256 561.533 482.838 549.107C482.42 536.68 479.926 495.064 479.926 492.383C479.926 489.703 478.919 456.964 482.838 443.887C486.324 432.251 489.53 427.975 500.049 421.762C506.958 417.702 522.852 412.465 522.852 412.465C522.852 412.465 538.669 423.481 551.852 427.556C562.418 430.826 563.781 422.552 563.781 422.552L582.944 433.46Z" fill="#9ECB45"/>
<path d="M489.034 565.437C489.034 565.437 526.771 523.913 549.451 518.955C572.13 513.997 593.168 534.837 598.884 537.548C606.088 541.019 647.078 564.91 647.078 564.91L628.147 597.448L567.003 578.592C567.003 578.592 552.069 603.506 534.393 603.645C531.791 603.645 535.028 603.645 531.992 603.506C510.893 602.685 495.912 589.484 490.072 569.171L489.034 565.437Z" fill="#263238"/>
<path d="M539.971 494.754L564.199 487.58L567.344 508.249L541.148 519.916L539.971 494.754Z" fill="white"/>
<path d="M522.109 444.305C522.109 444.305 522.109 444.615 522.109 445.188L522.249 447.776C522.326 450.053 522.404 453.4 522.373 457.708C522.373 466.338 521.923 478.81 520.823 494.165L520.529 493.839L539.847 493.654H540.188V493.979C540.559 501.958 540.993 510.712 541.427 519.9V520.071L541.303 520.179C538.199 523.308 534.858 526.194 531.311 528.809C527.638 531.597 523.631 533.913 519.383 535.704C514.901 537.438 510.096 538.178 505.301 537.873C500.314 537.742 495.5 536.022 491.56 532.962C489.493 531.259 487.947 529.01 487.098 526.47C486.696 525.23 486.339 523.991 486.045 522.736C485.751 521.481 485.503 520.226 485.317 518.971C484.449 513.935 484 508.946 483.597 504.05C482.838 494.242 482.544 484.776 482.405 475.743C482.405 471.234 482.327 466.818 482.405 462.542C482.413 458.382 482.807 454.233 483.582 450.146C484.784 442.722 487.608 435.654 491.854 429.447C493.799 426.734 496.49 424.645 499.6 423.435C502.478 422.692 505.522 422.937 508.244 424.132C512.632 425.869 516.327 428.999 518.763 433.041C520.318 435.557 521.37 438.351 521.861 441.268C522.042 442.291 522.13 443.328 522.125 444.367C522.125 444.367 522.125 443.314 521.706 441.346C521.181 438.477 520.131 435.73 518.608 433.243C516.167 429.308 512.514 426.273 508.198 424.597C505.569 423.456 502.632 423.238 499.863 423.977C496.886 425.175 494.324 427.216 492.489 429.849C488.462 435.303 485.906 442.492 484.403 450.317C482.9 458.141 483.303 466.787 483.334 475.789C483.365 484.791 483.799 494.273 484.573 504.05C484.976 508.931 485.441 513.92 486.293 518.893C486.479 520.148 486.773 521.372 487.021 522.612C487.269 523.851 487.656 525.075 488.043 526.268C488.834 528.691 490.295 530.84 492.257 532.466C496.069 535.412 500.718 537.072 505.533 537.207C510.217 537.493 514.907 536.774 519.29 535.1C523.471 533.328 527.415 531.043 531.032 528.298C534.554 525.72 537.873 522.876 540.962 519.792L540.854 520.071C540.436 510.867 540.033 502.129 539.676 494.134L540.017 494.459L520.684 494.568H520.359V494.242C521.505 478.919 522.001 466.446 522.156 457.831C522.233 453.524 522.156 450.177 522.156 447.9C522.156 446.8 522.156 445.932 522.156 445.312C522.118 444.978 522.103 444.642 522.109 444.305Z" fill="#263238"/>
<path d="M583.145 479.012C582.97 477.723 582.939 476.419 583.052 475.123C583.13 472.721 583.3 469.406 583.626 465.749C583.951 462.092 584.369 458.808 584.741 456.453C584.854 455.157 585.114 453.878 585.516 452.641C585.575 453.941 585.502 455.244 585.299 456.53L584.431 465.827C584.137 469.313 583.858 472.473 583.626 475.123C583.597 476.432 583.436 477.735 583.145 479.012Z" fill="#263238"/>
<path d="M510.583 506.08C512.337 500.845 516.067 496.502 520.978 493.979C521.117 494.18 518.081 496.164 515.215 499.541C512.349 502.919 510.815 506.188 510.583 506.08Z" fill="#263238"/>
<path d="M600.155 537.548C600.482 537.658 600.794 537.809 601.084 537.997L603.702 539.392L613.524 544.799L647.791 563.872L648.132 564.043L647.93 564.384L630.301 594.597L628.52 597.696L628.349 597.974L628.055 597.882L567.235 579.289C562.266 576.944 557.855 573.563 554.3 569.373C553.007 567.896 551.875 566.286 550.923 564.569L551.155 564.879L551.806 565.794C552.395 566.584 553.262 567.777 554.517 569.187C558.12 573.261 562.53 576.543 567.468 578.824L628.427 597.06L627.962 597.246L629.743 594.147C635.94 583.441 641.982 573.246 647.404 563.981L647.543 564.492L613.462 545.171L603.749 539.593L601.177 538.044C600.827 537.899 600.485 537.733 600.155 537.548Z" fill="#455A64"/>
<path d="M678.588 510.232L679.812 498.875L687.279 492.43L707.541 479.972L722.94 473.666L723.699 474.704L679.812 511.72L678.588 510.232Z" fill="#E0E0E0"/>
<path d="M647.683 489.486C647.683 489.486 666.086 476.331 680.803 475.185C695.52 474.038 707.588 477.912 708.518 480.499C709.447 483.087 706.101 484.094 703.018 484.233C699.636 484.054 696.276 483.572 692.98 482.792L685.048 493.003L668.952 500.192L650.177 498.178L647.683 489.486Z" fill="white"/>
<path d="M610.89 479.616C610.89 479.616 620.48 483.025 625.313 484.001C630.146 484.977 650.982 485.55 662.493 490.958C668.689 493.84 675.846 505.537 675.846 505.537L678.154 508.125L672.159 512.68L632.64 508.745L598.869 492.987L610.89 479.616Z" fill="#F5F5F5"/>
<path d="M722.94 472.783L721.189 471.234L661.594 498.007L674.777 512.169L680.323 510.155C679.96 507.819 679.96 505.441 680.323 503.105C680.912 498.983 691.167 491.422 693.971 490.012C698.324 487.812 721.313 476.347 722.94 472.783Z" fill="#F5F5F5"/>
<path d="M723.126 472.071L680.989 507.831L679.44 508.884C678.731 509.365 677.895 509.624 677.039 509.628C676.702 509.628 676.379 509.494 676.14 509.256C675.902 509.018 675.768 508.694 675.768 508.357V506.591C675.773 506.329 675.694 506.073 675.544 505.859C675.394 505.644 675.179 505.483 674.932 505.398L608.102 481.661C607.803 481.545 607.471 481.545 607.172 481.661L512.674 522.565C512.443 522.668 512.247 522.837 512.112 523.052C511.978 523.266 511.91 523.516 511.919 523.769C511.927 524.022 512.011 524.267 512.159 524.472C512.308 524.677 512.514 524.833 512.752 524.92L579.474 548.812C580.371 549.241 581.353 549.464 582.347 549.464C583.342 549.464 584.324 549.241 585.221 548.812L679.084 512.479C679.218 512.419 679.343 512.341 679.455 512.246L724.752 473.961C724.884 473.851 724.992 473.715 725.07 473.562C725.147 473.409 725.193 473.241 725.203 473.07C725.213 472.899 725.188 472.727 725.129 472.566C725.07 472.405 724.979 472.257 724.861 472.132C724.637 471.897 724.33 471.758 724.006 471.747C723.682 471.735 723.365 471.852 723.126 472.071Z" fill="#455A64"/>
<path d="M681.547 478.144C682.4 479.447 683.342 480.689 684.366 481.863C684.366 481.863 693.661 480.716 695.427 483.149C695.953 483.809 696.239 484.629 696.239 485.473C696.239 486.317 695.953 487.136 695.427 487.797C692.361 490.121 688.599 491.338 684.754 491.252C678.557 490.958 673.631 496.845 668.534 492.538C665.505 489.993 663.425 486.499 662.632 482.622" fill="white"/>
<path d="M662.632 482.575C662.632 482.575 662.849 483.412 663.422 484.838C664.208 486.86 665.346 488.728 666.784 490.353C667.727 491.478 668.866 492.423 670.145 493.142C670.861 493.492 671.642 493.687 672.438 493.716C673.298 493.71 674.153 493.585 674.979 493.344C676.698 492.879 678.449 492.058 680.401 491.453C681.408 491.137 682.447 490.929 683.499 490.834C684.599 490.834 685.606 490.834 686.597 490.834C689.715 490.558 692.693 489.415 695.195 487.533C695.661 486.929 695.916 486.189 695.923 485.426C695.894 484.694 695.646 483.986 695.21 483.397C694.733 482.89 694.111 482.544 693.429 482.405C692.753 482.229 692.064 482.104 691.369 482.033C689.065 481.834 686.748 481.834 684.444 482.033H684.32V481.956C683.228 480.826 682.333 479.522 681.671 478.098C681.671 478.098 682.662 479.446 684.645 481.677H684.459C686.789 481.352 689.145 481.264 691.492 481.413C692.229 481.461 692.96 481.575 693.677 481.754C694.511 481.923 695.27 482.351 695.846 482.978C696.387 483.683 696.696 484.538 696.729 485.426C696.725 486.367 696.415 487.281 695.846 488.029C693.232 490.039 690.098 491.259 686.814 491.546C685.73 491.655 684.645 491.546 683.716 491.546C682.733 491.648 681.763 491.846 680.819 492.135C678.944 492.708 677.194 493.514 675.366 493.994C674.473 494.243 673.55 494.363 672.624 494.351C671.729 494.304 670.853 494.072 670.052 493.669C668.705 492.86 667.518 491.809 666.551 490.57C665.11 488.873 664.015 486.91 663.329 484.791C662.969 484.099 662.733 483.349 662.632 482.575Z" fill="#263238"/>
<path d="M608.83 481.925C608.83 481.925 608.969 481.677 609.295 481.274L610.844 479.508V479.43H610.937C613.834 480.267 618.683 481.785 624.879 483.381C627.977 484.187 631.448 484.698 635.166 485.333L646.955 487.208L654.933 488.448C657.435 488.839 659.891 489.488 662.26 490.384C666.35 491.837 669.897 494.508 672.422 498.038C674.025 500.458 675.335 503.058 676.326 505.785C676.683 506.653 676.961 507.335 677.194 507.939C677.319 508.183 677.408 508.444 677.457 508.714C677.301 508.495 677.166 508.261 677.054 508.017C676.807 507.536 676.466 506.824 676.047 505.909C674.938 503.289 673.568 500.787 671.958 498.441C669.443 495.066 665.973 492.524 661.997 491.144C657.597 489.377 652.299 488.99 646.831 488.045L635.026 486.139C631.324 485.473 627.807 484.931 624.693 484.078C618.497 482.374 613.694 480.747 610.844 479.771H611.014L609.465 481.429C609.272 481.617 609.059 481.783 608.83 481.925Z" fill="#263238"/>
<g opacity="0.3">
<path opacity="0.3" d="M606.785 528.856L653.987 512.2L604.059 493.979L560.775 512.68L606.785 528.856Z" fill="white"/>
</g>
<path d="M581.503 480.127C581.503 480.127 587.126 475.014 589.341 475.557C591.557 476.099 596.746 480.747 597.505 483.583C598.264 486.418 596.281 488.572 594.252 488.231C592.223 487.89 587.978 483.83 587.978 483.83L583.331 486.573C583.331 486.573 590.658 495.141 590.658 498.426C590.658 501.71 588.954 504.081 585.716 503.167C585.805 504.022 585.623 504.883 585.195 505.629C584.766 506.374 584.114 506.966 583.331 507.319C578.064 510.201 573.292 506.095 573.292 506.095C573.292 506.095 572.27 508.977 568.18 508.171C565.438 507.469 562.954 505.996 561.023 503.926C560.2 503.301 559.528 502.499 559.056 501.579C558.584 500.659 558.325 499.645 558.296 498.612C558.126 494.955 558.296 490.4 558.296 490.4L572.611 483.644C573.711 482.399 575.09 481.432 576.635 480.82C578.181 480.209 579.848 479.972 581.503 480.127Z" fill="white"/>
<path d="M564.385 499.185C567.875 500.638 570.883 503.05 573.06 506.142C570.145 503.852 567.253 501.533 564.385 499.185Z" fill="#263238"/>
<path d="M577.801 491.02C579.861 492.384 581.587 494.195 582.851 496.319C584.34 498.293 585.372 500.574 585.872 502.997C585.639 503.074 584.416 500.053 582.185 496.799C579.954 493.545 577.63 491.19 577.801 491.02Z" fill="#263238"/>
<path d="M583.378 507.257C580.649 505.488 578.196 503.327 576.097 500.843C573.808 498.559 571.871 495.948 570.35 493.096C570.551 492.972 573.107 496.458 576.701 500.362C580.295 504.267 583.533 507.071 583.378 507.257Z" fill="#263238"/>
<path d="M461.459 443.221H283.06V486.573H461.459V443.221Z" fill="#455A64"/>
<path d="M456.347 486.573H277.947V529.011H456.347V486.573Z" fill="#455A64"/>
<path d="M448.88 529.011H240.783V563.144H448.88V529.011Z" fill="#455A64"/>
<path d="M461.459 450.627H426.092V477.307H461.459V450.627Z" fill="white"/>
<g opacity="0.3">
<path opacity="0.3" d="M461.428 443.221H418.811V486.573H461.428V443.221Z" fill="black"/>
</g>
<path d="M461.443 456.824C461.443 457.057 453.511 457.227 443.752 457.227C433.992 457.227 426.061 457.057 426.061 456.824C426.061 456.592 433.977 456.422 443.752 456.422C453.527 456.422 461.443 456.608 461.443 456.824Z" fill="#263238"/>
<path d="M461.443 463.952C461.443 464.184 453.511 464.354 443.752 464.354C433.992 464.354 426.061 464.184 426.061 463.952C426.061 463.719 433.977 463.549 443.752 463.549C453.527 463.549 461.443 463.735 461.443 463.952Z" fill="#263238"/>
<path d="M461.443 471.094C461.443 471.311 453.511 471.497 443.752 471.497C433.992 471.497 426.061 471.311 426.061 471.094C426.061 470.877 434.008 470.645 443.752 470.645C453.496 470.645 461.443 470.862 461.443 471.094Z" fill="#263238"/>
<path d="M448.88 534.837H413.513V555.846H448.88V534.837Z" fill="white"/>
<g opacity="0.3">
<path opacity="0.3" d="M448.864 529.011H406.247V563.144H448.864V529.011Z" fill="black"/>
</g>
<path d="M448.864 539.733C448.864 539.95 440.948 540.136 431.173 540.136C421.398 540.136 413.497 539.95 413.497 539.733C413.497 539.516 421.413 539.33 431.173 539.33C440.932 539.33 448.864 539.5 448.864 539.733Z" fill="#263238"/>
<path d="M448.864 545.342C448.864 545.558 440.948 545.744 431.173 545.744C421.398 545.744 413.497 545.558 413.497 545.342C413.497 545.125 421.413 544.939 431.173 544.939C440.932 544.939 448.864 545.125 448.864 545.342Z" fill="#263238"/>
<path d="M448.864 550.95C448.864 551.183 440.948 551.353 431.173 551.353C421.398 551.353 413.497 551.183 413.497 550.95C413.497 550.718 421.413 550.547 431.173 550.547C440.932 550.547 448.864 550.733 448.864 550.95Z" fill="#263238"/>
<path d="M462.141 486.371C462.141 486.588 422.002 486.774 372.492 486.774C322.981 486.774 282.812 486.588 282.812 486.371C282.812 486.155 322.95 485.969 372.492 485.969C422.033 485.969 462.141 486.139 462.141 486.371Z" fill="#263238"/>
<path d="M456.347 529.011C456.347 529.243 416.178 529.414 366.667 529.414C317.157 529.414 276.972 529.243 276.972 529.011C276.972 528.778 317.126 528.608 366.667 528.608C416.209 528.608 456.347 528.794 456.347 529.011Z" fill="#263238"/>
<path d="M448.864 494.754H277.947V519.048H448.864V494.754Z" fill="#FAFAFA"/>
<g opacity="0.3">
<path opacity="0.3" d="M456.347 486.588H408.246V529.026H456.347V486.588Z" fill="black"/>
</g>
<path d="M447.95 506.901C447.95 507.118 409.825 507.304 362.747 507.304C315.668 507.304 277.544 507.118 277.544 506.901C277.544 506.684 315.668 506.498 362.747 506.498C409.825 506.498 447.95 506.669 447.95 506.901Z" fill="#263238"/>
<path d="M385.938 500.068V511.41L390.261 508.388L394.583 511.41V500.068H385.938Z" fill="#9ECB45"/>
<path d="M447.95 500.084C447.95 500.301 409.825 500.487 362.747 500.487C315.668 500.487 277.544 500.301 277.544 500.084C277.544 499.867 315.668 499.681 362.747 499.681C409.825 499.681 447.95 499.836 447.95 500.084Z" fill="#263238"/>
<path d="M447.95 513.718C447.95 513.951 409.825 514.121 362.747 514.121C315.668 514.121 277.544 513.951 277.544 513.718C277.544 513.486 315.668 513.315 362.747 513.315C409.825 513.315 447.95 513.501 447.95 513.718Z" fill="#263238"/>
<path d="M385.164 552.841C385.164 552.841 385.164 552.531 385.164 551.957C385.164 551.384 385.164 550.517 385.164 549.432C385.164 547.201 385.164 543.963 385.055 539.764L385.225 539.919C363.104 540.058 313.608 540.167 256.151 540.167L256.553 539.764V552.825L256.151 552.422L347.736 552.593L375.141 552.763H382.592H384.528H385.21C385.004 552.778 384.797 552.778 384.59 552.763H382.7H375.342L348.015 552.887L256.135 553.058H255.732V539.593L256.135 539.19C313.593 539.19 363.026 539.283 385.21 539.423H385.38V539.593C385.38 543.823 385.303 547.108 385.287 549.37C385.287 550.439 385.287 551.26 385.287 551.849C385.267 552.182 385.226 552.513 385.164 552.841Z" fill="#263238"/>
<path d="M301.278 506.978L300.643 498.813L332.478 497.574L330.634 507.629L319.775 513.037L309.023 513.579L301.278 506.978Z" fill="#455A64"/>
<path d="M270.202 506.978L269.566 498.813L301.401 497.574L299.558 507.629L288.714 513.037L277.947 513.579L270.202 506.978Z" fill="#455A64"/>
<path d="M269.799 503.616V505.801C269.799 505.801 237.577 518.971 237.902 527.57H301.417L300.27 503.089C290.759 508.156 280.813 508.698 269.799 503.616Z" fill="#9ECB45"/>
<path d="M301.354 527.601L301.076 521.713L239.574 523.712C238.616 524.784 238.029 526.137 237.901 527.57L301.354 527.601Z" fill="#E0E0E0"/>
<path d="M270.387 514.601C270.465 514.601 270.604 514.09 270.558 513.192C270.474 512.043 270.152 510.924 269.613 509.907C269.097 508.933 268.359 508.094 267.459 507.459C266.778 507.025 266.298 506.916 266.267 507.009C267.324 507.986 268.251 509.095 269.024 510.31C269.642 511.683 270.099 513.123 270.387 514.601Z" fill="white"/>
<path d="M273.749 513.78C273.926 512.155 273.549 510.517 272.68 509.132C271.41 506.777 269.582 505.816 269.582 506.033C270.508 507.169 271.371 508.353 272.169 509.581C273.284 511.704 273.532 513.811 273.749 513.78Z" fill="white"/>
<path d="M265.462 516.352C266.019 515.095 266.085 513.674 265.647 512.37C265.121 510.124 263.819 508.853 263.711 509.024C263.603 509.194 264.517 510.573 264.981 512.572C265.446 514.57 265.26 516.306 265.462 516.352Z" fill="white"/>
<path d="M266.143 507.691C266.723 506.997 267.079 506.144 267.166 505.243C267.349 504.267 267.442 503.277 267.444 502.284C267.444 501.726 267.444 501.153 267.444 500.548C267.44 500.216 267.409 499.884 267.351 499.557C267.327 499.348 267.256 499.148 267.143 498.971C267.03 498.794 266.879 498.645 266.701 498.534C266.502 498.448 266.28 498.435 266.073 498.498C265.866 498.56 265.688 498.694 265.57 498.875C265.375 499.165 265.244 499.492 265.183 499.836C265.046 500.421 264.969 501.017 264.95 501.618C264.906 502.624 265.011 503.632 265.26 504.608C265.413 505.504 265.809 506.34 266.406 507.025C266.499 507.025 266.035 506.064 265.725 504.468C265.558 503.544 265.506 502.602 265.57 501.664C265.618 501.142 265.706 500.624 265.833 500.115C265.942 499.588 266.252 499.17 266.422 499.325C266.592 499.479 266.778 499.991 266.778 500.595V502.315C266.805 503.267 266.764 504.22 266.654 505.166C266.484 506.731 266.05 507.629 266.143 507.691Z" fill="white"/>
<path d="M265.709 507.474C265.709 507.474 265.802 507.598 266.05 507.738L266.236 507.846V507.583C265.995 506.591 265.597 505.645 265.059 504.778C264.661 504.111 264.194 503.488 263.665 502.919C263.386 502.619 263.076 502.325 262.735 502.036C262.535 501.86 262.304 501.723 262.053 501.633C261.906 501.58 261.748 501.565 261.594 501.59C261.44 501.614 261.294 501.677 261.17 501.772C261.008 501.933 260.897 502.137 260.85 502.36C260.803 502.584 260.823 502.816 260.907 503.027C261.019 503.317 261.165 503.593 261.341 503.849C261.624 504.299 261.946 504.724 262.301 505.119C262.877 505.772 263.551 506.332 264.3 506.777C265.554 507.505 266.437 507.598 266.453 507.505C266.468 507.412 265.663 507.102 264.532 506.297C263.87 505.811 263.271 505.243 262.751 504.608C262.433 504.232 262.143 503.833 261.883 503.415C261.573 502.966 261.418 502.454 261.573 502.423C261.868 502.129 262.673 502.981 263.122 503.461C263.628 503.979 264.089 504.539 264.501 505.135C265.042 505.938 265.519 506.782 265.926 507.66L266.066 507.49C265.849 507.443 265.709 507.443 265.709 507.474Z" fill="white"/>
<path d="M303.059 503.756L303.245 506.126C303.245 506.126 271.348 519.265 271.673 527.818H335.188L334.042 503.337C324.53 508.45 314.073 508.853 303.059 503.756Z" fill="#9ECB45"/>
<path d="M335.126 527.973L334.847 522.085L273.33 524.084C272.379 525.159 271.798 526.512 271.673 527.942L335.126 527.973Z" fill="#E0E0E0"/>
<path d="M304.159 514.911C304.159 514.911 304.376 514.385 304.329 513.486C304.247 512.335 303.919 511.215 303.369 510.201C302.853 509.227 302.115 508.389 301.215 507.753C300.549 507.319 300.069 507.211 300.038 507.304C301.098 508.284 302.025 509.399 302.796 510.62C303.416 511.992 303.873 513.433 304.159 514.911Z" fill="white"/>
<path d="M307.505 514.028C307.702 512.404 307.329 510.761 306.452 509.38C305.182 507.04 303.354 506.064 303.354 506.281C304.279 507.416 305.143 508.601 305.941 509.829C306.532 511.202 307.055 512.603 307.505 514.028Z" fill="white"/>
<path d="M299.233 516.647C299.781 515.386 299.842 513.967 299.403 512.665C298.876 510.418 297.575 509.148 297.467 509.318C297.358 509.488 298.288 510.867 298.753 512.866C299.217 514.865 299.031 516.6 299.233 516.647Z" fill="white"/>
<path d="M299.915 507.986C300.494 507.291 300.85 506.438 300.937 505.538C301.121 504.562 301.214 503.571 301.216 502.578C301.216 502.036 301.216 501.447 301.216 500.843C301.251 500.513 301.251 500.181 301.216 499.851C301.182 499.648 301.105 499.454 300.99 499.283C300.875 499.112 300.725 498.968 300.55 498.86C300.351 498.773 300.129 498.76 299.922 498.823C299.715 498.885 299.537 499.019 299.419 499.2C299.223 499.497 299.087 499.828 299.016 500.177C298.894 500.759 298.816 501.349 298.784 501.943C298.743 502.95 298.853 503.958 299.109 504.933C299.262 505.826 299.652 506.661 300.24 507.35C300.348 507.35 299.868 506.39 299.574 504.809C299.407 503.884 299.355 502.943 299.419 502.005C299.465 501.458 299.547 500.914 299.667 500.378C299.775 499.851 300.085 499.433 300.271 499.588C300.457 499.743 300.627 500.254 300.627 500.874V502.578C300.654 503.53 300.613 504.483 300.503 505.429C300.255 507.025 299.822 507.924 299.915 507.986Z" fill="white"/>
<path d="M299.48 507.831C299.48 507.831 299.573 507.97 299.821 508.094L300.007 508.202V507.939C299.756 506.951 299.359 506.006 298.83 505.135C298.425 504.477 297.958 503.859 297.435 503.291C297.141 502.976 296.831 502.676 296.506 502.392C296.319 502.226 296.104 502.095 295.871 502.005C295.723 501.951 295.564 501.937 295.409 501.964C295.254 501.992 295.109 502.059 294.988 502.16C294.825 502.317 294.713 502.518 294.666 502.739C294.619 502.96 294.64 503.19 294.724 503.399C294.837 503.689 294.982 503.965 295.158 504.221C295.437 504.674 295.758 505.099 296.119 505.491C296.695 506.144 297.369 506.704 298.117 507.149C299.372 507.877 300.255 507.97 300.255 507.877C300.255 507.784 299.48 507.474 298.349 506.669C297.684 506.187 297.085 505.619 296.568 504.98C296.246 504.607 295.955 504.208 295.7 503.787C295.391 503.337 295.236 502.826 295.391 502.795C295.685 502.501 296.491 503.353 296.94 503.833C297.446 504.351 297.907 504.911 298.319 505.507C298.86 506.309 299.336 507.154 299.744 508.032L299.883 507.862C299.62 507.738 299.48 507.738 299.48 507.831Z" fill="white"/>
<path d="M301.184 505.832C300.785 506.161 300.342 506.432 299.867 506.638C298.984 507.087 297.698 507.738 296.103 508.512C292.912 510.062 288.45 512.107 283.71 514.71C278.969 517.313 274.818 519.947 272.556 522.627C271.348 524.078 270.395 525.723 269.736 527.493C269.733 526.96 269.838 526.433 270.046 525.943C270.511 524.59 271.214 523.33 272.122 522.225C274.368 519.343 278.567 516.569 283.322 513.966C288.078 511.363 292.617 509.411 295.84 507.986L299.712 506.343C300.18 506.113 300.674 505.941 301.184 505.832Z" fill="#263238"/>
<path d="M437.431 259.276C435.201 250.61 432.96 241.949 430.708 233.293C427.3 220.169 422.869 202.305 415.294 191.335C404.109 175.128 378.115 171.193 360.036 177.05C343.584 182.442 335.498 188.934 331.16 206.597C326.822 224.26 331.315 252.335 335.312 270.122C335.885 272.648 336.582 275.344 338.41 277.048C340.238 278.752 343.166 279.124 345.753 279.325L383.428 282.207L404.218 274.197C413.912 275.397 423.749 273.896 432.645 269.859C433.743 269.494 434.758 268.915 435.631 268.154C436.503 267.393 437.215 266.466 437.726 265.427C438.249 263.394 438.146 261.25 437.431 259.276Z" fill="#263238"/>
<path d="M403.451 226.246L403.437 226.311L403.44 226.378L406.771 290.461L406.789 290.81L407.123 290.913L408.951 291.475C408.931 291.681 408.9 291.963 408.855 292.311C408.753 293.101 408.582 294.232 408.301 295.587C407.739 298.302 406.744 301.908 405.01 305.492C401.545 312.652 395.173 319.67 383.424 319.42C378.14 319.31 374.445 317.614 371.852 315.166C369.249 312.709 367.719 309.458 366.842 306.181C365.966 302.905 365.75 299.635 365.756 297.176C365.758 295.948 365.816 294.927 365.873 294.214C365.902 293.858 365.93 293.579 365.951 293.39C365.961 293.295 365.97 293.223 365.976 293.176L365.983 293.122L365.985 293.109L365.985 293.107L365.985 293.106L365.985 293.106L365.991 293.062L365.989 293.018L365.339 276.161L365.32 275.684L364.843 275.68H364.843L364.841 275.68L364.831 275.68L364.79 275.679C364.752 275.678 364.695 275.677 364.619 275.673C364.467 275.667 364.242 275.655 363.952 275.631C363.371 275.584 362.533 275.493 361.511 275.313C359.465 274.954 356.69 274.246 353.771 272.849C347.949 270.064 341.535 264.536 339.195 253.503C337.242 244.001 337.347 233.014 337.465 220.538C337.485 218.454 337.505 216.328 337.517 214.161C337.562 207.515 340.879 200.661 345.841 195.567C350.799 190.477 357.329 187.213 363.749 187.619L390.059 191.457C390.06 191.457 390.061 191.458 390.062 191.458C394.67 192.185 398.876 194.511 401.942 198.028C404.996 201.531 406.726 205.993 406.831 210.639L403.451 226.246Z" fill="white" stroke="#263238"/>
<path d="M343.647 235.694C343.671 236.442 343.985 237.152 344.523 237.672C345.061 238.193 345.78 238.484 346.528 238.483C346.891 238.492 347.252 238.427 347.59 238.292C347.927 238.157 348.234 237.956 348.491 237.7C348.749 237.444 348.952 237.138 349.089 236.801C349.225 236.465 349.292 236.104 349.286 235.741C349.262 234.991 348.948 234.28 348.411 233.757C347.873 233.234 347.154 232.94 346.404 232.936C346.041 232.93 345.679 232.997 345.342 233.134C345.004 233.27 344.698 233.473 344.441 233.73C344.183 233.988 343.98 234.294 343.844 234.632C343.708 234.969 343.641 235.33 343.647 235.694Z" fill="#263238"/>
<path d="M341.539 224.957C341.895 225.282 343.646 223.671 346.342 223.408C349.037 223.144 351.159 224.477 351.407 224.12C351.655 223.764 351.159 223.361 350.245 222.757C349.014 222.005 347.579 221.658 346.14 221.765C344.745 221.858 343.419 222.402 342.36 223.315C341.601 224.182 341.384 224.818 341.539 224.957Z" fill="#263238"/>
<path d="M368.634 234.687C368.658 235.435 368.973 236.145 369.51 236.665C370.048 237.186 370.767 237.477 371.516 237.476C371.879 237.485 372.24 237.42 372.577 237.285C372.914 237.15 373.221 236.949 373.479 236.693C373.736 236.437 373.939 236.131 374.076 235.794C374.212 235.458 374.279 235.097 374.273 234.734C374.249 233.984 373.935 233.273 373.398 232.75C372.861 232.227 372.141 231.933 371.392 231.929C371.028 231.923 370.666 231.99 370.329 232.126C369.992 232.263 369.685 232.466 369.428 232.723C369.17 232.981 368.968 233.287 368.831 233.624C368.695 233.962 368.628 234.323 368.634 234.687Z" fill="#263238"/>
<path d="M369.285 222.85C369.626 223.16 371.376 221.548 374.072 221.301C376.767 221.053 378.89 222.385 379.153 222.013C379.416 221.641 378.905 221.254 377.976 220.665C376.755 219.901 375.321 219.553 373.886 219.674C372.487 219.748 371.155 220.294 370.106 221.223C369.331 222.06 369.115 222.741 369.285 222.85Z" fill="#263238"/>
<path d="M361.632 246.199C359.991 245.861 358.32 245.689 356.644 245.688C355.869 245.688 355.095 245.549 354.971 245.146C354.847 244.743 354.971 244.03 355.358 243.302C355.993 241.753 356.644 240.203 357.341 238.545C358.99 234.491 360.428 230.354 361.648 226.15C361.307 226.057 358.813 231.48 356.086 238.235C355.42 239.909 354.8 241.505 354.212 243.023C353.997 243.384 353.864 243.787 353.821 244.204C353.778 244.622 353.827 245.043 353.964 245.44C354.118 245.667 354.317 245.86 354.549 246.006C354.781 246.153 355.041 246.25 355.312 246.292C355.747 246.366 356.188 246.397 356.628 246.385C358.298 246.494 359.975 246.432 361.632 246.199Z" fill="#263238"/>
<path d="M364.746 276.227C375.114 275.882 385.169 272.587 393.731 266.729C393.731 266.729 387.255 283.199 365.118 282.223L364.746 276.227Z" fill="#263238"/>
<path d="M409.547 218.992C409.697 214.679 409.244 210.366 408.199 206.178C406.64 200.557 403.35 195.569 398.796 191.924C395.388 189.259 390.09 185.866 385.907 185.014C379.323 183.681 375.915 182.147 363.677 185.014C358.503 186.269 357.651 185.509 353.003 188.112L349.766 190.204C353.375 199.5 384.869 218.868 395.682 221.951C396.201 225.091 396.915 228.196 397.82 231.248C398.187 232.748 399.043 234.083 400.252 235.044C401.067 235.521 402.002 235.756 402.946 235.721C403.89 235.685 404.805 235.38 405.581 234.842C406.915 233.863 407.846 232.43 408.199 230.814C409.397 226.995 409.855 222.982 409.547 218.992Z" fill="#263238"/>
<path d="M404.466 227.514C404.466 227.514 417.293 221.688 417.54 235.509C417.788 249.329 404.218 246.587 404.187 246.199C404.156 245.812 404.466 227.514 404.466 227.514Z" fill="white"/>
<path d="M408.215 240.931C408.215 240.931 408.447 241.086 408.85 241.272C409.411 241.504 410.04 241.504 410.601 241.272C412.01 240.714 413.172 238.39 413.188 235.896C413.203 234.711 412.959 233.537 412.475 232.456C412.344 232.03 412.112 231.641 411.799 231.323C411.486 231.005 411.102 230.767 410.678 230.628C410.407 230.559 410.12 230.589 409.868 230.71C409.616 230.832 409.415 231.039 409.299 231.294C409.129 231.681 409.222 231.96 409.145 231.991C409.067 232.022 408.866 231.759 408.959 231.186C409.028 230.848 409.208 230.542 409.47 230.318C409.648 230.173 409.854 230.066 410.075 230.002C410.296 229.938 410.527 229.919 410.756 229.946C411.313 230.058 411.834 230.308 412.27 230.673C412.706 231.039 413.043 231.508 413.25 232.038C413.847 233.23 414.149 234.547 414.133 235.88C414.133 238.669 412.754 241.288 410.818 241.876C410.457 241.989 410.075 242.016 409.701 241.957C409.328 241.898 408.973 241.754 408.664 241.536C408.246 241.334 408.169 240.947 408.215 240.931Z" fill="#263238"/>
<path d="M363.677 252.769C363.677 252.877 364.312 253.156 365.443 253.11C366.93 253.019 368.344 252.429 369.455 251.436C370.558 250.433 371.285 249.083 371.515 247.609C371.686 246.494 371.515 245.812 371.361 245.812C371.206 245.812 371.144 246.478 370.834 247.439C370.444 248.682 369.74 249.803 368.789 250.693C367.808 251.55 366.624 252.143 365.35 252.412C364.296 252.629 363.708 252.614 363.677 252.769Z" fill="#263238"/>
<path d="M389.393 216.064C398.2 234.813 400.384 255.997 395.589 276.149C397.829 275.431 400.15 274.999 402.498 274.863C403.673 274.787 404.818 274.462 405.857 273.909C406.896 273.356 407.805 272.588 408.524 271.656C409.419 269.793 409.706 267.695 409.346 265.66C408.074 249.319 405.521 233.104 401.708 217.164" fill="#263238"/>
<path d="M402.498 274.863C402.461 274.477 402.461 274.088 402.498 273.701C402.576 272.864 402.653 271.78 402.762 270.401C403.041 267.457 403.412 263.351 403.877 258.3C404.025 252.31 403.662 246.318 402.793 240.389C401.956 233.665 400.81 226.29 399.447 218.589L398.997 216.141L399.292 216.451C392.407 214.63 385.807 211.867 379.679 208.239C374.716 205.312 369.977 202.018 365.505 198.385C361.694 195.286 358.735 192.699 356.721 190.855C355.699 189.941 354.94 189.213 354.428 188.717C353.917 188.221 353.638 187.958 353.669 187.927C353.972 188.13 354.257 188.358 354.521 188.608L356.923 190.638C358.998 192.389 362.004 194.945 365.861 197.951C370.356 201.501 375.098 204.727 380.051 207.604C386.137 211.159 392.677 213.869 399.493 215.661H399.741V215.909L400.19 218.372C401.569 226.119 402.684 233.479 403.49 240.219C404.32 246.197 404.626 252.237 404.404 258.269C403.831 263.32 403.366 267.426 403.025 270.37C402.855 271.733 402.715 272.818 402.622 273.655C402.621 274.061 402.579 274.465 402.498 274.863Z" fill="#455A64"/>
<path d="M406.124 214.716C405.898 214.396 405.602 214.133 405.258 213.948C404.914 213.762 404.531 213.659 404.141 213.646C403.361 213.621 402.581 213.72 401.833 213.941C398.255 214.588 394.804 215.801 391.608 217.535C391.316 217.659 391.056 217.849 390.849 218.09C390.643 218.332 390.496 218.618 390.419 218.926C390.342 219.234 390.338 219.556 390.408 219.866C390.477 220.176 390.617 220.466 390.818 220.712C391.002 220.95 391.236 221.146 391.504 221.285C391.771 221.425 392.066 221.504 392.367 221.517C392.992 221.518 393.614 221.424 394.211 221.239L402.158 219.193C403.281 218.98 404.34 218.514 405.256 217.83C405.737 217.49 406.087 216.995 406.245 216.427C406.403 215.86 406.36 215.255 406.124 214.716Z" fill="#9ECB45"/>
<g opacity="0.3">
<path opacity="0.3" d="M379.958 239.583C379.207 238.927 378.259 238.54 377.263 238.483C376.501 238.513 375.747 238.637 375.016 238.855C374.276 239.068 373.638 239.541 373.219 240.188C373.018 240.514 372.917 240.893 372.931 241.276C372.945 241.66 373.072 242.03 373.297 242.341C373.713 242.77 374.256 243.052 374.846 243.147C375.835 243.351 376.853 243.377 377.851 243.225C378.312 243.198 378.762 243.069 379.166 242.846C379.571 242.624 379.921 242.314 380.191 241.939C380.426 241.578 380.531 241.148 380.488 240.72C380.446 240.292 380.259 239.891 379.958 239.583Z" fill="#263238"/>
</g>
<path d="M435.17 387.164C435.17 388.713 395.729 393.64 375.373 386.249C355.606 379.06 340.44 373.947 340.44 373.947L322.919 390.2L346.156 390.82L353.422 393.919C339.185 393.082 323.911 392.261 318.101 392.246C298.21 392.246 288.854 408.452 288.854 421.684C288.854 434.916 295.05 502.826 295.05 502.826H332.539C335.081 492.313 336.581 481.576 337.016 470.769C337.636 452.935 337.435 446.087 337.435 446.087L381.307 446.908H388.185C395.93 446.567 408.525 445.932 412.971 445.204C424.373 443.36 432.413 433.971 436.487 422.195C440.561 410.42 435.17 387.164 435.17 387.164Z" fill="#263238"/>
<path d="M269.799 502.904C269.799 502.904 264.129 434.25 264.129 420.971C264.129 407.693 273.424 391.44 293.377 391.533C305.414 391.533 358.007 395.034 358.007 395.034L363.476 446.614L307.288 445.684C307.288 445.684 307.908 453.431 307.288 471.296C306.668 488.665 307.288 502.95 307.288 502.95L269.799 502.904Z" fill="#263238"/>
<path d="M299.697 398.428C298.441 399.079 297.261 399.869 296.18 400.783C293.35 403.412 291.37 406.827 290.495 410.59C289.225 415.316 289.38 421.204 289.659 427.634C289.937 434.064 290.278 441.238 290.789 448.721C291.843 463.673 293.16 477.184 293.888 486.991C294.29 491.887 294.585 495.854 294.755 498.596C294.827 499.898 294.889 500.931 294.941 501.695C294.982 502.061 294.982 502.43 294.941 502.795C294.862 502.437 294.805 502.075 294.771 501.711C294.771 500.905 294.585 499.867 294.445 498.612C294.167 495.776 293.795 491.841 293.314 487.022C292.385 477.246 290.975 463.781 289.922 448.752C289.411 441.269 289.054 434.141 288.853 427.634C288.652 421.126 288.512 415.239 289.875 410.389C290.821 406.545 292.931 403.087 295.917 400.488C296.738 399.805 297.638 399.222 298.597 398.753C298.946 398.593 299.317 398.483 299.697 398.428Z" fill="#455A64"/>
<path d="M331.842 433.862C333.678 435.725 335.094 437.96 335.993 440.416C337.151 442.762 337.785 445.331 337.852 447.946C337.62 447.946 336.923 444.615 335.25 440.726C333.577 436.837 331.656 434.002 331.842 433.862Z" fill="#455A64"/>
<path d="M345.908 289.737C345.908 289.737 338.348 291.085 335.405 302.706C333.964 308.408 328.635 346.445 328.635 346.445L275.995 357.214L284.701 373.823C284.701 373.823 341.632 365.735 356.69 360.886C371.748 356.036 345.908 289.737 345.908 289.737Z" fill="#9ECB45"/>
<path d="M435.248 296.136C430.244 289.675 407.363 280.89 407.363 280.89C383.181 292.418 372.182 290.946 364.715 283.695C364.715 283.695 349.379 286.577 343.027 291.442L346.792 370.213C346.528 370.399 330.03 379.959 330.03 379.959L318.768 389.534L437.788 406.051C441.599 403.432 441.15 398.8 438.083 393.965C438.083 393.965 433.962 369.593 433.838 356.609C433.73 336.808 443.303 306.409 435.248 296.136Z" fill="#9ECB45"/>
<g opacity="0.3">
<path opacity="0.3" d="M372.042 390.355C390.089 394.303 408.908 392.682 426.014 385.707C429.825 384.158 433.125 382.732 435.975 379.742L434.798 369.779C434.798 369.779 376.69 373.033 376.845 373.87C376.999 374.706 367.131 378.797 367.131 378.797L362.205 386.032L372.042 390.355Z" fill="black"/>
</g>
<path d="M240.411 308.733L233.703 312.452L250.806 338.079L249.365 343.223L256.538 349.25L261.2 342.618L370.679 395.499L372.476 389.844L306.312 320.292L257.808 334.143L240.411 308.733Z" fill="white"/>
<path d="M240.365 308.718C240.475 308.846 240.578 308.981 240.674 309.12L241.558 310.375L244.981 315.271L257.947 334.004L257.7 333.926L306.172 319.982H306.358L306.498 320.137L372.724 389.643L372.879 389.813L372.801 390.045C372.259 391.781 371.655 393.671 371.066 395.561V395.701L370.927 396.15L370.508 395.949L261.077 342.959L261.449 342.866L256.801 349.498L256.615 349.746L256.383 349.544L249.241 343.501L249.102 343.393V343.238C249.644 341.332 250.093 339.69 250.543 338.094V338.296L233.502 312.591V312.498H233.595L238.816 309.508L240.055 308.857L240.442 308.656L240.039 308.919L238.816 309.616L233.75 312.606V312.452L250.961 338.001V338.094V338.203C250.512 339.752 250.062 341.456 249.551 343.362L249.458 343.083L256.646 349.095H256.228L260.875 342.448L261.015 342.231L261.247 342.339L370.756 395.143L370.199 395.375V395.251L371.949 389.72L372.042 390.123L305.924 320.524L306.265 320.617L257.87 334.298H257.715L257.622 334.174L244.919 315.395L241.573 310.391L240.705 309.089L240.365 308.718Z" fill="#263238"/>
<path d="M303.88 327.915L257.111 340.186C257.111 340.186 255.206 344.555 253.192 344.416C252.918 344.502 252.629 344.529 252.344 344.496C252.059 344.463 251.784 344.371 251.537 344.225C251.291 344.079 251.077 343.882 250.911 343.648C250.745 343.414 250.63 343.148 250.574 342.866C250.504 342.121 250.585 341.37 250.811 340.657C251.038 339.943 251.405 339.283 251.891 338.714L232.511 309.353L230.698 310.375L249.66 339.148C249.025 340.242 248.758 341.511 248.897 342.769C249.037 344.027 249.575 345.207 250.434 346.135C253.44 349.792 300.782 396.15 300.782 396.15C304.19 397.514 307.319 397.699 310.076 396.15L373.731 395.763L303.88 327.915Z" fill="#455A64"/>
<path d="M410.771 322.197L406.945 354.316L357.496 364.558L371.531 385.599C387.859 385.599 412.863 384.251 425.829 380.455C436.1 377.449 437.943 368.4 439.57 357.818C442.11 341.224 442.389 326.66 442.668 324.661C443.551 316.79 440.716 303.589 438.238 300.025C432.568 291.86 429.81 290.899 422.188 287.196" fill="#9ECB45"/>
<path d="M422.064 287.196C422.064 287.196 422.297 287.274 422.715 287.46L424.574 288.312C426.991 289.371 429.291 290.679 431.437 292.216C432.945 293.392 434.312 294.739 435.511 296.229C436.193 297.035 436.859 297.903 437.525 298.817C438.258 299.769 438.867 300.81 439.337 301.916C441.282 307.105 442.467 312.548 442.854 318.076C442.981 319.653 443.023 321.236 442.978 322.817C442.869 324.444 442.73 326.04 442.668 327.713C442.513 331.06 442.306 334.53 442.048 338.125C441.506 345.314 440.701 352.984 439.353 360.979C438.828 365.139 437.624 369.185 435.79 372.956C434.75 374.895 433.327 376.603 431.607 377.976C429.824 379.327 427.8 380.326 425.643 380.919C416.784 383.089 407.746 384.448 398.641 384.979C389.346 385.692 380.237 386.017 371.454 386.032H371.237L371.128 385.862L357.109 364.806L356.799 364.341L357.341 364.232L406.821 354.084L406.619 354.316C407.859 344.245 408.85 336.219 409.547 330.688C409.888 327.961 410.167 325.854 410.353 324.397C410.461 323.7 410.539 323.173 410.585 322.771C410.603 322.587 410.639 322.405 410.694 322.228C410.71 322.414 410.71 322.601 410.694 322.786C410.694 323.173 410.601 323.716 410.539 324.335C410.368 325.885 410.151 327.915 409.857 330.642C409.222 336.188 408.308 344.214 407.162 354.301V354.487H406.976L357.542 364.852L357.775 364.279L371.779 385.428L371.454 385.258C380.206 385.258 389.3 384.901 398.579 384.189C407.63 383.657 416.615 382.314 425.426 380.176C427.488 379.613 429.423 378.661 431.127 377.371C432.769 376.073 434.125 374.448 435.108 372.599C436.901 368.903 438.088 364.943 438.625 360.87C439.972 352.906 440.809 345.252 441.382 338.094C441.661 334.5 441.878 331.044 442.048 327.698C442.048 326.04 442.281 324.366 442.374 322.802C442.451 321.253 442.451 319.702 442.374 318.153C442.015 312.675 440.877 307.275 438.996 302.117C438.545 301.052 437.962 300.047 437.261 299.127C436.595 298.213 435.945 297.345 435.294 296.539C434.124 295.06 432.794 293.714 431.328 292.526C429.218 290.969 426.955 289.629 424.574 288.529L422.746 287.599L422.064 287.196Z" fill="#263238"/>
<path d="M334.693 377.96C334.211 377.964 333.739 377.831 333.33 377.577C332.921 377.323 332.593 376.958 332.384 376.525C332.174 376.091 332.092 375.607 332.147 375.129C332.202 374.651 332.392 374.198 332.694 373.823C333.627 372.695 334.665 371.657 335.793 370.724C340.332 366.773 357.481 364.775 357.481 364.775L368.588 382.329C368.588 382.329 367.287 386.621 358.952 390.727C355.188 392.571 345.475 397.901 344.793 397.715C344.062 397.31 343.402 396.786 342.841 396.166C342.362 396.555 341.771 396.78 341.155 396.807C340.539 396.835 339.93 396.665 339.418 396.321C337.775 395.035 336.83 393.485 338.194 392.571C339.557 391.657 353.437 377.712 353.158 377.728C352.88 377.743 335.917 392.122 335.111 391.672C334.305 391.223 329.224 390.34 332.013 386.575C334.801 382.81 347.256 371.948 347.256 371.948C347.256 371.948 336.753 377.805 334.863 377.945L334.693 377.96Z" fill="white"/>
<path d="M345.382 308.671C345.599 308.671 345.893 321.066 346.048 336.297C346.203 351.527 346.126 363.938 345.909 363.954C345.692 363.969 345.382 351.558 345.242 336.312C345.103 321.066 345.15 308.671 345.382 308.671Z" fill="#263238"/>
<path d="M429.934 294.711C429.934 294.85 428.478 295.052 426.247 295.873C423.363 296.969 420.729 298.634 418.501 300.769C416.278 302.921 414.518 305.505 413.327 308.361C412.413 310.561 412.165 312.033 412.01 312.002C411.946 311.654 411.946 311.297 412.01 310.949C412.156 309.998 412.395 309.064 412.723 308.16C413.81 305.145 415.575 302.42 417.883 300.195C420.19 297.971 422.978 296.306 426.03 295.331C426.946 295.029 427.891 294.826 428.85 294.726C429.562 294.664 429.934 294.649 429.934 294.711Z" fill="#263238"/>
<path d="M342.608 356.547C341.988 356.392 341.167 356.315 340.858 356.873C340.548 357.431 340.966 358.05 341.369 358.515L349.579 368.199L357.449 364.744C353.36 360.685 348.221 357.846 342.608 356.547Z" fill="white"/>
<path d="M418.145 362.094C416.533 360.168 414.698 358.441 412.676 356.95C410.519 355.661 408.221 354.622 405.829 353.851C408.433 353.962 410.957 354.782 413.128 356.224C415.298 357.666 417.034 359.675 418.145 362.032V362.094Z" fill="#263238"/>
<path d="M306.622 320.354C306.491 321.797 306.097 323.204 305.46 324.506C305.066 325.905 304.414 327.219 303.539 328.379C303.671 326.931 304.065 325.519 304.701 324.212C305.093 322.816 305.744 321.507 306.622 320.354Z" fill="#263238"/>
<path d="M310.077 395.809C309.854 395.666 309.651 395.494 309.473 395.298L307.924 393.748L302.161 387.876C297.312 382.887 290.666 375.977 283.354 368.292C276.042 360.607 269.412 353.619 264.764 348.537L259.172 342.494L257.623 340.821C257.442 340.632 257.281 340.424 257.143 340.201C257.143 340.201 257.375 340.356 257.747 340.713L259.296 342.262L265.059 348.134C269.908 353.108 276.553 360.034 283.881 367.719C291.208 375.404 297.823 382.391 302.471 387.473L308.047 393.516L309.597 395.189C309.784 395.373 309.945 395.582 310.077 395.809Z" fill="#263238"/>
</g>
<defs>
<clipPath id="clip0_818_89">
<rect width="725" height="643" fill="white"/>
</clipPath>
</defs>
</svg>
