<svg width="625" height="556" viewBox="0 0 625 556" fill="none" xmlns="http://www.w3.org/2000/svg">
<g clip-path="url(#clip0_927_443)">
<path d="M352.389 551.834C328.011 540.296 318.297 512.864 314.861 487.312C314.281 483.07 313.065 478.658 314.451 474.586C315.837 470.514 320.107 467.191 324.208 468.336C327.616 469.284 329.609 472.705 331.886 475.406C334.914 479.05 338.916 481.757 343.424 483.212C346.366 484.159 349.858 484.456 352.276 482.533C355.585 479.889 355.104 474.77 354.426 470.556C353.04 462.741 351.682 454.926 350.353 447.112C349.395 442.942 349.113 438.645 349.519 434.385C350.141 430.143 352.418 425.901 356.235 424.148C360.053 422.394 365.412 423.823 366.954 427.81C367.408 429.525 367.749 431.268 367.972 433.028C368.382 434.767 369.527 436.563 371.267 436.775C373.006 436.987 374.519 435.502 375.579 434.046C379.199 429.054 381.235 423.073 383.074 417.148C384.912 411.224 386.637 405.186 389.804 399.869C392.972 394.552 397.808 389.971 403.789 388.557C409.771 387.143 416.841 389.829 419.344 395.5C421.846 401.17 419.428 407.802 416.515 413.26C412.092 421.342 406.524 428.743 399.985 435.234C398.681 436.273 397.741 437.699 397.299 439.306C396.86 442.276 400 444.623 402.955 445.075C406.264 445.584 409.629 444.679 412.98 444.51C416.332 444.34 420.135 445.188 421.917 448.087C424.363 452.103 421.521 457.236 418.481 460.813C412.375 467.941 405.09 473.967 396.945 478.63C394.032 480.285 390.936 481.84 388.801 484.442C386.665 487.044 385.803 491.088 387.811 493.803C389.819 496.518 393.877 496.815 397.016 495.655C400.155 494.496 402.771 492.247 405.67 490.565C411.1 487.397 418.651 486.52 423.218 490.904C424.642 492.437 425.692 494.279 426.283 496.286C426.874 498.293 426.992 500.41 426.626 502.471C425.874 506.575 424.301 510.485 422.002 513.967C414.679 526.555 404.15 536.977 391.487 544.17C378.832 551.099 366.586 554.479 352.403 551.849" fill="#F5F5F5"/>
<path d="M356.25 534.781C358.125 520.229 360.835 505.796 364.367 491.554L367.081 480.341C367.972 476.651 368.863 473.002 369.909 469.496C372.024 462.765 374.507 456.157 377.347 449.699C380.02 443.506 382.777 437.708 385.393 432.321C388.009 426.933 390.568 421.956 393.085 417.53C397.014 410.51 401.497 403.815 406.49 397.507C408.258 395.273 409.686 393.591 410.662 392.459C411.128 391.922 411.51 391.498 411.779 391.173C412.047 390.847 412.175 390.748 412.189 390.763C412.087 390.926 411.973 391.082 411.85 391.229L410.775 392.558C409.842 393.718 408.456 395.386 406.731 397.691C401.846 404.06 397.446 410.786 393.566 417.813C391.092 422.253 388.575 427.23 385.973 432.618C383.371 438.005 380.656 443.803 378.012 449.996C375.196 456.454 372.741 463.063 370.659 469.793C369.57 473.285 368.693 476.863 367.831 480.596L365.116 491.823C361.593 506.035 358.869 520.434 356.957 534.951" fill="#E0E0E0"/>
<path d="M370.15 469.439C369.843 468.889 369.601 468.305 369.429 467.7C369.004 466.583 368.453 464.872 367.802 462.878C366.502 458.777 364.89 453.05 363.136 446.744C361.383 440.437 359.7 434.739 358.328 430.681C357.65 428.644 357.084 426.99 356.688 425.873C356.451 425.292 356.266 424.691 356.137 424.077C356.478 424.604 356.758 425.169 356.971 425.76C357.466 426.849 358.102 428.475 358.852 430.483C360.365 434.527 362.132 440.197 363.9 446.532C365.667 452.867 367.152 458.41 368.34 462.708C368.891 464.66 369.344 466.3 369.754 467.615C369.939 468.21 370.071 468.821 370.15 469.439Z" fill="#E0E0E0"/>
<path d="M422.68 450.123C421.997 450.408 421.287 450.622 420.559 450.76C419.145 451.113 417.208 451.622 414.776 452.329C409.898 453.743 403.238 455.836 395.984 458.523C388.73 461.209 382.268 463.938 377.601 466.031C375.282 467.063 373.43 467.954 372.143 468.562C371.497 468.914 370.82 469.208 370.121 469.439C370.706 468.988 371.336 468.6 372.002 468.28C373.246 467.587 375.07 466.625 377.361 465.451C381.928 463.217 388.376 460.403 395.644 457.703C401.848 455.382 408.167 453.385 414.578 451.721C417.039 451.071 419.046 450.647 420.446 450.378C421.181 450.224 421.929 450.139 422.68 450.123Z" fill="#E0E0E0"/>
<path d="M356.744 533.692C356.563 533.507 356.402 533.303 356.264 533.084L355.005 531.289C353.916 529.705 352.403 527.4 350.579 524.515C346.903 518.746 342.095 510.616 336.906 501.566C331.716 492.516 327.007 484.357 323.43 478.531L319.188 471.617L318.057 469.736C317.907 469.528 317.788 469.299 317.703 469.057C317.703 469.057 317.887 469.241 318.184 469.651C318.481 470.061 318.947 470.726 319.442 471.461C320.531 473.031 322.044 475.336 323.882 478.234C327.545 484.004 332.367 492.12 337.556 501.17C342.746 510.22 347.454 518.379 351.018 524.218L355.26 531.119C355.712 531.868 356.094 532.533 356.391 533C356.543 533.212 356.662 533.445 356.744 533.692Z" fill="#E0E0E0"/>
<path d="M424.872 498.271C424.673 498.445 424.449 498.588 424.207 498.695L422.242 499.742L414.945 503.545C408.78 506.769 400.324 511.308 390.992 516.272C381.659 521.235 373.161 525.774 366.953 528.856C363.842 530.398 361.297 531.684 359.544 532.434L357.423 533.367C357.19 533.491 356.943 533.586 356.688 533.65C356.89 533.48 357.113 533.338 357.352 533.226L359.332 532.179L366.628 528.361C372.779 525.152 381.235 520.613 390.568 515.635C399.9 510.658 408.413 506.147 414.606 503.065C417.717 501.523 420.262 500.237 422.016 499.487L424.052 498.554C424.309 498.418 424.586 498.323 424.872 498.271Z" fill="#E0E0E0"/>
<path d="M175.579 248.314C175.579 248.314 158.78 250.647 168.211 287.44C177.643 324.233 185.646 343.209 185.646 343.209C185.646 343.209 186.905 351.538 180.188 351.283C173.472 351.028 159.77 345.627 155.118 352.824C150.31 360.347 154.524 369.397 165.016 378.885C175.508 388.373 197.878 409.993 199.886 411.959C201.894 413.924 203.364 417.968 198.754 418.52C194.145 419.071 161.452 415.239 160.576 430.864C159.699 446.489 193.395 468.096 197.029 470.528C200.663 472.96 201.271 474.855 200.423 476.976C199.575 479.097 188.743 476.764 179.396 476.043C170.05 475.321 159.077 476.156 159.317 485.205C159.558 494.255 177.261 517.162 228.873 534.187L253.322 540.508L271.379 522.72C307.719 482.293 311.693 453.63 307.408 445.655C303.124 437.68 293.268 442.417 285.434 447.677C277.601 452.937 269.399 460.403 267.646 458.989C265.892 457.575 265.44 455.624 267.391 451.707C269.343 447.79 287.852 412.298 279.312 399.176C270.771 386.054 244.3 405.596 240.058 407.392C235.816 409.187 235.052 404.917 235.816 402.259C236.58 399.6 245.205 369.736 249.645 356.232C254.085 342.728 253.237 332.802 245.318 328.673C237.683 324.699 228.506 336.238 222.793 339.801C217.08 343.364 214.054 335.559 214.054 335.559C214.054 335.559 211.566 315.126 201.469 278.503C191.373 241.88 175.267 248.441 175.267 248.441" fill="#EBEBEB"/>
<path d="M253.307 546.588C245.997 519.722 233.794 471.645 223.118 430.369C212.442 389.094 202.742 351.877 195.558 324.925C191.967 311.464 189.054 300.576 187.074 293.011C186.084 289.264 185.307 286.337 184.769 284.329L184.176 282.066C184.048 281.557 184.006 281.289 184.006 281.289C184.006 281.289 184.105 281.529 184.26 282.038C184.416 282.547 184.628 283.325 184.911 284.286C185.491 286.294 186.325 289.193 187.371 292.926C189.492 300.434 192.49 311.308 196.138 324.77C203.449 351.636 213.248 388.981 223.924 430.171C234.6 471.362 246.704 519.481 253.887 546.433" fill="#E0E0E0"/>
<path d="M173.98 361.224C174.545 361.457 175.085 361.745 175.592 362.086C176.596 362.68 178.039 363.585 179.835 364.716C183.355 366.993 188.149 370.259 193.367 373.95L206.687 383.452L210.745 386.28C211.257 386.598 211.731 386.973 212.159 387.397C211.589 387.167 211.044 386.878 210.533 386.535C209.529 385.941 208.087 385.036 206.291 383.89C202.798 381.586 198.047 378.234 192.829 374.558L179.439 365.155L175.366 362.327C174.866 362.009 174.402 361.64 173.98 361.224Z" fill="#E0E0E0"/>
<path d="M214.211 386.224C214.027 386.11 220.32 375.944 228.252 363.514C236.185 351.085 242.788 341.102 242.972 341.215C243.156 341.328 236.864 351.509 228.917 363.938C220.97 376.368 214.395 386.308 214.211 386.224Z" fill="#E0E0E0"/>
<path d="M227.756 450.251C228.147 449.762 228.599 449.325 229.099 448.95L232.903 445.613C236.113 442.785 240.539 438.882 245.261 434.385C249.984 429.889 254.142 425.689 257.111 422.621C258.525 421.207 259.685 419.948 260.632 418.987C261.06 418.512 261.534 418.081 262.046 417.7C261.733 418.24 261.353 418.739 260.915 419.185C260.151 420.104 259.006 421.405 257.564 422.988C254.735 426.17 250.607 430.454 245.855 434.951C241.104 439.448 236.636 443.322 233.327 446.037C231.659 447.451 230.301 448.469 229.34 449.19C228.852 449.601 228.321 449.957 227.756 450.251Z" fill="#E0E0E0"/>
<path d="M186.396 435.644C186.967 435.712 187.528 435.85 188.065 436.054L192.547 437.468C196.309 438.67 201.498 440.381 207.211 442.304C212.924 444.227 218.085 446.037 221.804 447.38L226.201 448.992C226.749 449.163 227.275 449.396 227.771 449.685C227.2 449.627 226.639 449.494 226.102 449.289L221.62 447.875C217.859 446.673 212.669 444.962 206.956 443.025C201.244 441.088 196.083 439.292 192.364 437.963L187.966 436.337C187.414 436.177 186.886 435.944 186.396 435.644Z" fill="#E0E0E0"/>
<path d="M191.176 493.69C191.903 493.798 192.619 493.978 193.311 494.227L199.052 495.98C203.888 497.493 210.548 499.629 217.901 502.047C225.254 504.465 231.886 506.67 236.679 508.325L242.335 510.305C243.039 510.53 243.725 510.809 244.386 511.139C243.653 511.031 242.933 510.851 242.236 510.601L236.495 508.848C231.659 507.335 224.999 505.2 217.646 502.782C210.293 500.364 203.662 498.144 198.882 496.504L193.226 494.51C192.519 494.299 191.833 494.024 191.176 493.69Z" fill="#E0E0E0"/>
<path d="M243.227 510.361C243.724 509.75 244.278 509.186 244.881 508.678L249.561 504.281C253.507 500.562 258.936 495.401 264.776 489.532C270.616 483.664 275.777 478.22 279.482 474.261L283.866 469.566C284.382 468.967 284.944 468.409 285.548 467.898C285.136 468.563 284.663 469.188 284.134 469.764C283.173 470.938 281.731 472.592 279.892 474.629C276.287 478.701 271.196 484.216 265.328 490.084C259.46 495.952 254.016 501.071 249.943 504.691C247.907 506.487 246.253 507.943 245.079 508.933C244.502 509.46 243.883 509.937 243.227 510.361Z" fill="#E0E0E0"/>
<path d="M102.616 28.8989L88.8148 24.6568C88.8148 24.6568 85.1949 36.2518 73.0909 32.7026C70.7475 32.0573 68.6627 30.6996 67.125 28.8173C65.5873 26.9351 64.6726 24.6214 64.5077 22.1964C64.3265 20.1515 64.6362 18.0928 65.4109 16.1917C66.1856 14.2906 67.403 12.6018 68.9619 11.266C72.5111 8.12683 78.7328 6.21791 87.5139 10.7569L97.2283 -20.3517L83.5829 -24.5938L77.9268 -6.36694C77.9268 -6.36694 57.2255 -7.39918 50.6503 13.684C44.3578 33.8621 60.9868 44.1987 68.7357 46.6167C74.618 48.4549 95.277 53.3191 102.616 28.8989Z" fill="#F5F5F5"/>
<path d="M597.156 136.888L602.53 138.825C602.755 138.217 603.1 137.66 603.544 137.187C603.988 136.714 604.522 136.334 605.115 136.071C605.708 135.807 606.348 135.665 606.997 135.652C607.645 135.64 608.29 135.757 608.893 135.997C609.798 136.289 610.591 136.852 611.163 137.612C611.735 138.371 612.058 139.289 612.088 140.239C612.122 141.05 611.962 141.858 611.623 142.595C611.284 143.333 610.775 143.979 610.137 144.481C608.723 145.655 606.192 146.291 602.798 144.34L598.401 156.458L603.717 158.381L606.291 151.311C608.704 151.461 611.1 150.814 613.11 149.47C615.121 148.127 616.634 146.161 617.419 143.873C620.247 136.011 613.87 131.642 610.858 130.553C608.553 129.648 600.493 127.372 597.156 136.888Z" fill="#EBEBEB"/>
<path d="M602.923 160.838L597.525 158.883L595.7 163.922L601.098 165.877L602.923 160.838Z" fill="#EBEBEB"/>
<path d="M26.9083 198.427L38.2205 194.043C38.2205 194.043 34.544 184.498 44.3998 180.497C46.2861 179.699 48.3735 179.505 50.3742 179.943C52.375 180.382 54.1905 181.43 55.5706 182.943C56.7448 184.201 57.6052 185.719 58.0819 187.373C58.5586 189.026 58.6381 190.769 58.3138 192.459C57.6068 196.39 54.496 200.944 46.3087 202.513L56.2069 228.149L67.5192 223.823L61.7216 208.806C61.7216 208.806 75.8619 198.653 69.2301 181.26C62.7963 164.631 46.337 166.526 40.0163 168.972C35.1379 170.853 18.9615 178.446 26.9083 198.427Z" fill="#F5F5F5"/>
<path d="M69.6616 229.041L58.248 233.438L62.3555 244.099L73.7691 239.702L69.6616 229.041Z" fill="#F5F5F5"/>
<path d="M601.584 241.569L593.524 244.665C593.524 244.665 596.126 251.439 589.14 254.267C587.803 254.826 586.326 254.96 584.909 254.651C583.493 254.343 582.206 253.606 581.222 252.541C580.39 251.65 579.781 250.574 579.444 249.401C579.108 248.229 579.053 246.994 579.285 245.797C579.794 242.969 582 239.801 587.769 238.726L580.84 220.5L572.865 223.568L576.966 234.216C574.063 236.436 571.971 239.548 571.01 243.074C570.05 246.6 570.274 250.344 571.649 253.729C576.188 265.508 587.811 264.179 592.336 262.44C595.758 261.096 607.212 255.723 601.584 241.569Z" fill="#F5F5F5"/>
<path d="M571.287 219.874L579.375 216.758L576.467 209.211L568.379 212.327L571.287 219.874Z" fill="#F5F5F5"/>
<path d="M624.349 554.252C624.349 554.464 484.573 554.62 312.189 554.62C139.805 554.62 0 554.464 0 554.252C0 554.04 139.748 553.885 312.189 553.885C484.629 553.885 624.349 554.054 624.349 554.252Z" fill="#263238"/>
<path d="M89.6645 517.53C91.0786 512.326 87.5859 507.109 83.768 503.39C79.9502 499.671 75.3829 496.249 73.3891 491.257C70.1651 483.169 74.492 472.705 69.0056 465.96C65.7675 462.001 59.97 460.672 57.0995 456.43C55.7723 454.092 54.8946 451.526 54.5118 448.865C51.4607 435.431 44.8526 423.065 35.38 413.062C34.7415 425.028 37.335 436.945 42.8885 447.564C45.1085 451.806 47.8518 455.935 48.5446 460.672C49.7466 468.35 45.4479 476.226 47.3427 483.806C49.5062 492.431 59.1923 498.214 59.6447 507.095C60.0407 514.603 53.4937 521.235 53.9886 528.701C54.3852 531.898 55.5442 534.953 57.3682 537.609C63.1657 547.267 71.7064 553.913 84.6306 553.701L100.468 554.252L89.6645 517.53Z" fill="#FFBD27"/>
<g opacity="0.3">
<path opacity="0.3" d="M89.6645 517.53C91.0786 512.326 87.5859 507.109 83.768 503.39C79.9502 499.671 75.3829 496.249 73.3891 491.257C70.1651 483.169 74.492 472.705 69.0056 465.96C65.7675 462.001 59.97 460.672 57.0995 456.43C55.7723 454.092 54.8946 451.526 54.5118 448.865C51.4607 435.431 44.8526 423.065 35.38 413.062C34.7415 425.028 37.335 436.945 42.8885 447.564C45.1085 451.806 47.8518 455.935 48.5446 460.672C49.7466 468.35 45.4479 476.226 47.3427 483.806C49.5062 492.431 59.1923 498.214 59.6447 507.095C60.0407 514.603 53.4937 521.235 53.9886 528.701C54.3852 531.898 55.5442 534.953 57.3682 537.609C63.1657 547.267 71.7064 553.913 84.6306 553.701L100.468 554.252L89.6645 517.53Z" fill="black"/>
</g>
<path d="M103.662 554.578C105.113 554.801 106.591 554.773 108.032 554.493C109.781 554.227 111.5 553.791 113.165 553.192C115.464 552.392 117.614 551.217 119.528 549.713C120.679 548.787 121.579 547.586 122.144 546.221C122.617 544.69 122.864 543.099 122.879 541.498C122.911 539.786 123.038 538.077 123.261 536.379C123.559 534.572 124.212 532.841 125.184 531.289C127.05 528.008 130.161 524.897 131.151 520.443C132.141 515.989 131.462 511.322 130.727 506.571C129.992 501.82 129.313 496.673 131.095 491.696C132.876 486.718 136.27 482.264 138.009 476.693C139.748 471.122 138.928 464.985 139.296 459.003C139.404 455.965 140.106 452.977 141.36 450.208C142.633 447.38 144.415 444.764 145.8 441.823C148.629 435.856 149.109 429.097 149.873 422.465C150.255 419.128 150.622 415.748 151.004 412.355C151.245 408.924 151.837 405.526 152.772 402.216C153.844 398.879 155.11 395.607 156.561 392.417C157.309 390.767 157.923 389.06 158.399 387.312C158.666 385.503 158.836 383.681 158.908 381.854C159.077 378.196 158.935 374.53 158.484 370.895C158.06 367.247 157.395 363.627 157 359.965C157 359.739 157 359.527 157 359.329L156.915 358.608L156.278 358.919C152.935 360.634 150.032 363.097 147.794 366.116C145.6 369.072 143.833 372.324 142.548 375.774C139.904 382.575 138.957 389.702 137.627 396.503C136.298 403.305 134.601 409.993 131.123 415.649C129.384 418.477 127.277 421.051 125.467 423.794C123.501 426.471 122.158 429.553 121.536 432.816C120.588 439.518 124.279 445.401 123.515 451.339C123.171 454.249 122.207 457.05 120.687 459.555C119.273 462.086 117.562 464.433 115.95 466.781C114.317 469.083 112.897 471.53 111.708 474.091C110.59 476.598 109.929 479.284 109.757 482.024C109.375 487.369 110.125 492.431 109.757 497.21C109.315 501.766 107.985 506.19 105.84 510.234C103.931 514.122 101.796 517.643 100.014 521.065C99.1234 522.762 98.2892 524.43 97.6104 526.113C96.9681 527.729 96.4943 529.406 96.1964 531.119C95.7231 534.11 95.685 537.153 96.0833 540.154C96.4987 544.34 98.0649 548.329 100.608 551.679C100.997 552.185 101.427 552.658 101.895 553.093C102.207 553.421 102.553 553.714 102.927 553.97C103.521 554.408 103.832 554.606 103.832 554.606C102.702 553.712 101.673 552.698 100.764 551.58C98.336 548.218 96.8695 544.258 96.5216 540.126C96.1615 537.163 96.2282 534.163 96.7196 531.218C97.0173 529.546 97.4913 527.911 98.1336 526.339C98.8501 524.638 99.6572 522.977 100.552 521.362C102.347 517.968 104.497 514.462 106.448 510.545C108.657 506.438 110.031 501.935 110.492 497.295C110.916 492.417 110.181 487.326 110.577 482.123C110.759 479.471 111.405 476.873 112.486 474.445C113.682 471.937 115.101 469.542 116.728 467.29C118.34 464.942 120.051 462.595 121.522 460.007C123.136 457.407 124.168 454.489 124.548 451.453C125.311 445.132 121.649 439.221 122.596 432.985C123.216 429.866 124.515 426.921 126.4 424.36C128.196 421.659 130.317 419.085 132.056 416.187C135.662 410.375 137.401 403.559 138.716 396.73C140.031 389.9 141.007 382.83 143.609 376.156C144.86 372.801 146.579 369.64 148.713 366.766C150.866 363.869 153.658 361.508 156.872 359.866L156.151 359.456C156.151 359.668 156.151 359.88 156.222 360.106C156.618 363.811 157.282 367.431 157.636 371.051C158.082 374.629 158.22 378.239 158.046 381.84C157.974 383.61 157.814 385.375 157.565 387.128C157.108 388.82 156.512 390.47 155.783 392.063C154.324 395.288 153.05 398.593 151.966 401.962C151.023 405.323 150.426 408.773 150.184 412.256C149.816 415.664 149.435 419.043 149.067 422.38C148.303 429.04 147.808 435.686 145.108 441.441C143.694 444.269 141.997 446.97 140.682 449.855C139.387 452.728 138.667 455.826 138.561 458.975C138.207 465.084 138.999 471.065 137.345 476.467C135.69 481.868 132.254 486.365 130.515 491.47C128.776 496.574 129.412 501.976 130.175 506.713C130.939 511.45 131.703 516.116 130.685 520.316C129.666 524.515 126.754 527.654 124.859 531.02C123.86 532.64 123.192 534.442 122.893 536.322C122.68 538.04 122.566 539.768 122.554 541.498C122.556 543.059 122.327 544.613 121.875 546.108C121.351 547.403 120.51 548.546 119.429 549.43C117.566 550.932 115.469 552.117 113.221 552.937C111.578 553.571 109.879 554.044 108.145 554.351C107.085 554.544 106.012 554.648 104.935 554.662C104.044 554.578 103.662 554.578 103.662 554.578Z" fill="#263238"/>
<path d="M153.692 368.067C153.616 368.219 153.564 368.381 153.536 368.548L153.197 369.962C152.886 371.221 152.504 373.101 151.91 375.449C151.316 377.796 149.86 380.454 148.63 383.721C147.189 387.398 145.934 391.145 144.868 394.948C143.652 399.19 142.592 403.856 141.461 408.89C140.499 414.252 138.796 419.454 136.398 424.346C135.098 426.919 133.57 429.521 132.482 432.377C131.34 435.294 130.575 438.345 130.205 441.455C129.401 447.898 128.258 454.293 126.783 460.615C123.616 473.582 120.59 485.941 117.832 497.196C115.075 508.452 112.473 518.52 110.324 527.032C108.174 535.545 106.548 542.332 105.361 547.182C104.809 549.501 104.371 551.325 104.06 552.669C103.932 553.248 103.819 553.715 103.734 554.083C103.719 554.247 103.719 554.413 103.734 554.578C103.817 554.431 103.878 554.274 103.918 554.111C104.017 553.729 104.159 553.277 104.328 552.697C104.682 551.382 105.177 549.558 105.813 547.253C107.086 542.445 108.881 535.615 111.101 527.202C113.321 518.789 115.909 508.608 118.808 497.423C121.707 486.238 124.648 473.794 127.844 460.813C129.31 454.474 130.424 448.059 131.181 441.597C131.542 438.561 132.283 435.582 133.387 432.731C134.504 429.903 135.932 427.372 137.233 424.77C140.061 419.609 141.178 414.066 142.295 409.074C143.412 404.083 144.402 399.36 145.561 395.146C146.721 390.932 147.937 387.171 149.153 383.919C150.369 380.666 151.712 377.98 152.292 375.548C152.872 373.115 153.141 371.305 153.395 370.005C153.489 369.42 153.574 368.949 153.65 368.591C153.692 368.237 153.72 368.067 153.692 368.067Z" fill="#263238"/>
<path d="M106.464 554.648C116.8 548.497 119.77 529.832 115.457 518.605C111.144 507.377 103.593 497.111 102.434 485.135C101.529 475.929 104.555 466.484 102.434 457.49C99.5352 445.344 87.6857 435.941 87.8271 423.455C87.8978 416.455 91.8853 409.866 91.5601 402.867C91.1783 394.298 84.589 387.482 80.5166 379.931C74.2666 368.35 73.8565 354.677 71.7213 341.752C69.5861 328.828 64.6512 314.886 53.141 308.509C51.4442 319.524 48.5454 327.075 49.4504 341.993C49.7898 347.352 56.0115 357.547 56.8599 369.354C57.3689 376.424 57.7083 383.41 58.1467 390.423C58.585 397.437 59.0092 404.224 61.4555 410.615C63.3361 415.522 66.348 419.976 67.7479 425.039C70.3639 434.555 66.9136 444.835 69.0347 454.507C70.8305 462.68 76.4866 469.708 77.6461 477.994C79.2581 489.631 71.7355 501.735 75.5816 512.835C77.5047 518.35 82.0296 522.734 83.3163 528.46C84.3203 532.872 83.2315 537.553 84.1365 541.979C85.5505 549.134 99.21 554.705 106.492 554.238" fill="#FFBD27"/>
<path d="M55.9676 319.382C55.9483 319.589 55.9483 319.798 55.9676 320.005C55.9676 320.471 56.109 321.065 56.1938 321.815C56.4342 323.412 56.7029 325.746 57.2402 328.772C57.7776 331.798 59.3895 335.22 60.6339 339.349C61.8782 343.477 63.264 348.2 64.4235 353.489C65.583 358.777 66.6011 364.674 67.6333 370.994C68.6656 377.315 69.7968 384.201 72.9359 390.791C74.3499 394.085 76.0185 397.394 77.178 400.929C78.3661 404.548 79.0976 408.3 79.3556 412.1C79.9337 420.162 80.9486 428.187 82.3958 436.139C85.5632 452.456 88.5751 467.997 91.3183 482.151C94.0615 496.305 96.8188 508.933 99.0247 519.623C101.231 530.313 103.041 538.854 104.299 544.877L105.713 551.735C105.883 552.471 106.01 553.05 106.123 553.503C106.161 553.71 106.218 553.914 106.293 554.111C106.318 553.904 106.318 553.695 106.293 553.489C106.208 553.022 106.109 552.442 105.982 551.693C105.671 550.053 105.232 547.734 104.681 544.792C103.493 538.755 101.853 530.129 99.7176 519.481C97.5824 508.834 95.0513 496.065 92.2374 481.967C89.4235 467.869 86.5813 452.273 83.3997 435.969C81.9516 428.017 80.9321 419.992 80.3454 411.93C80.0763 408.052 79.321 404.223 78.0971 400.533C76.8386 396.942 75.1842 393.619 73.7278 390.338C70.6169 383.848 69.4857 377.075 68.411 370.782C67.3364 364.49 66.3041 358.579 65.0739 353.263C63.8437 347.946 62.5004 343.195 61.1147 339.122C59.7289 335.05 58.1876 331.6 57.5655 328.644C56.9433 325.689 56.6463 323.313 56.3494 321.744C56.208 321.009 56.0949 320.415 56.01 319.948C56.0071 319.759 55.9929 319.57 55.9676 319.382Z" fill="#263238"/>
<path d="M163.799 183.226H245.459C245.459 183.226 245.459 114.66 316.712 113.444C353.717 112.793 372.906 137.044 380.711 155.61C389.761 177.174 387.018 201.75 374.885 221.758C361.042 244.595 331.206 267.544 276.172 257.844L275.649 439.787H356.404V331.925C356.404 331.925 469.653 302.655 469.653 177.796C469.653 58.3813 373.089 32.5895 321.18 30.9209C292.306 30.0018 281.842 28.7575 246.124 33.8338C200.606 40.3384 162.838 93.1947 163.799 183.226Z" fill="#FFBD27"/>
<path d="M357.381 477.711H275.424V554.252H357.381V477.711Z" fill="#FFBD27"/>
<path opacity="0.1" d="M357.381 477.711H275.424V554.252H357.381V477.711Z" fill="black"/>
<path opacity="0.1" d="M163.799 183.226H245.459C245.459 183.226 245.459 114.66 316.712 113.444C353.717 112.793 372.906 137.044 380.711 155.61C389.761 177.174 387.018 201.75 374.885 221.758C361.042 244.595 331.206 267.544 276.172 257.844L275.649 439.787H356.404V331.925C356.404 331.925 469.653 302.655 469.653 177.796C469.653 58.3813 373.089 32.5895 321.18 30.9209C292.306 30.0018 281.842 28.7575 246.124 33.8338C200.606 40.3384 162.838 93.1947 163.799 183.226Z" fill="black"/>
<path d="M129.962 183.226H211.636C211.636 183.226 211.636 114.66 282.889 113.444C319.894 112.793 339.083 137.044 346.874 155.61C355.938 177.174 353.194 201.749 341.062 221.758C327.219 244.595 296.86 265.352 241.826 255.695V439.787H322.581V331.925C322.581 331.925 435.83 302.654 435.83 177.796C435.83 58.3813 328.732 30.6522 282.903 30.6522C247.849 30.6946 128.421 39.1647 129.962 183.226Z" fill="#FFBD27"/>
<path d="M323.557 477.711H241.6V554.252H323.557V477.711Z" fill="#FFBD27"/>
<path d="M292.108 113.811C291.704 113.846 291.297 113.846 290.892 113.811C290.086 113.811 288.927 113.543 287.414 113.528C283.136 113.318 278.848 113.498 274.603 114.066C268.307 114.863 262.113 116.318 256.121 118.407C252.589 119.641 249.149 121.125 245.827 122.847C242.236 124.641 238.855 126.827 235.745 129.366C232.657 131.927 229.889 134.851 227.502 138.076C225.239 141.057 223.175 144.184 221.322 147.437C218.23 152.976 215.777 158.849 214.012 164.942C212.815 169.055 211.991 173.267 211.551 177.527C211.382 179.026 211.339 180.214 211.297 181.006C211.298 181.414 211.26 181.821 211.184 182.222C211.147 181.817 211.147 181.41 211.184 181.006C211.184 180.2 211.184 179.012 211.311 177.499C211.636 173.193 212.389 168.93 213.559 164.773C215.26 158.609 217.68 152.667 220.771 147.069C222.627 143.781 224.701 140.621 226.978 137.609C229.386 134.332 232.188 131.364 235.321 128.772C238.469 126.199 241.893 123.984 245.53 122.168C248.873 120.415 252.337 118.903 255.895 117.643C261.941 115.562 268.195 114.14 274.546 113.401C278.82 112.876 283.135 112.777 287.428 113.104C288.595 113.179 289.756 113.32 290.907 113.528C291.313 113.594 291.715 113.689 292.108 113.811Z" fill="#263238"/>
<path d="M415.157 99.2608C415.157 99.2608 415.058 99.1619 414.888 98.9498C414.719 98.7376 414.464 98.37 414.181 97.9599L411.481 94.1421C410.901 93.3219 410.279 92.3745 409.543 91.3989L406.998 88.3021L404.085 84.7246C403.025 83.4803 401.78 82.2784 400.536 80.9633C399.292 79.6483 398.019 78.2484 396.577 76.9051C395.134 75.5617 393.593 74.1901 392.009 72.7761C391.218 72.0691 390.44 71.3621 389.591 70.6127L386.961 68.534C385.166 67.12 383.384 65.706 381.447 64.292C373.003 58.2507 364.046 52.9609 354.679 48.4831L347.227 45.1177L339.832 42.2897C337.414 41.2857 334.953 40.5787 332.578 39.7869C330.202 38.995 327.883 38.189 325.508 37.6375L318.749 35.87C316.557 35.2903 314.379 34.9367 312.301 34.456C310.222 33.9752 308.214 33.551 306.249 33.3106L300.593 32.4905C297.015 31.8824 293.735 31.7552 290.878 31.4724C289.464 31.3593 288.05 31.2037 286.877 31.1472L283.511 31.0623L278.845 30.9068H277.629H277.219C277.355 30.8856 277.493 30.8856 277.629 30.9068H278.845H283.511H286.891C288.121 30.9068 289.464 31.0765 290.907 31.1754C293.735 31.4158 297.072 31.5148 300.649 32.0946L306.305 32.8581C308.271 33.0844 310.279 33.5934 312.371 33.9752C314.464 34.357 316.614 34.7529 318.862 35.3892L325.649 37.1426C327.996 37.68 330.315 38.5567 332.719 39.2778C335.123 39.999 337.569 40.6918 339.987 41.7665L347.425 44.5945L354.92 47.9741C364.336 52.462 373.328 57.791 381.786 63.896C383.737 65.3101 385.519 66.8231 387.315 68.223L389.945 70.1319C390.793 70.8389 391.571 71.5459 392.363 72.3095L396.916 76.5516C398.33 77.9656 399.603 79.3796 400.861 80.6664C402.12 81.9532 403.322 83.2116 404.382 84.4701L407.21 88.0759L409.727 91.215C410.448 92.2048 411.056 93.1664 411.622 94.0431C412.725 95.6975 413.588 96.9984 414.196 97.9316L414.86 98.9639C414.972 99.0496 415.071 99.1494 415.157 99.2608Z" fill="#263238"/>
<path d="M406.644 274.6C406.476 274.906 406.272 275.191 406.036 275.449L404.085 277.754C403.279 278.786 402.26 280.016 401.002 281.388C399.743 282.759 398.4 284.371 396.76 286.04C395.12 287.708 393.366 289.575 391.372 291.455C389.379 293.336 387.215 295.316 384.91 297.38C374.801 306.204 363.719 313.847 351.879 320.16C349.135 321.574 346.548 322.988 344.045 324.077C341.542 325.166 339.209 326.283 337.06 327.188C334.91 328.093 332.931 328.842 331.206 329.507C329.48 330.171 327.967 330.709 326.723 331.105L323.895 332.024C323.567 332.154 323.225 332.249 322.877 332.307C323.182 332.132 323.504 331.99 323.838 331.882L326.667 330.836C327.897 330.398 329.381 329.832 331.092 329.125C332.803 328.418 334.783 327.711 336.904 326.707C339.025 325.703 341.372 324.756 343.819 323.526C346.265 322.295 348.881 320.994 351.61 319.566C356.997 316.597 362.809 313.118 368.677 309.102C374.545 305.087 379.82 300.859 384.514 296.871C386.819 294.835 389.025 292.926 390.991 291.003C392.956 289.08 394.794 287.341 396.42 285.672C398.047 284.003 399.475 282.462 400.747 281.105C402.02 279.747 403.066 278.56 403.915 277.57L405.894 275.321C406.124 275.061 406.375 274.82 406.644 274.6Z" fill="#263238"/>
<path d="M321.153 433.367C320.941 433.367 320.771 410.658 320.771 382.646C320.771 354.634 320.941 331.911 321.153 331.911C321.365 331.911 321.521 354.62 321.521 382.646C321.521 410.672 321.351 433.367 321.153 433.367Z" fill="#263238"/>
<path d="M324.264 549.063C324.052 549.063 323.896 533.127 323.896 513.472C323.896 493.817 324.052 477.867 324.264 477.867C324.476 477.867 324.632 493.803 324.632 513.472C324.632 533.141 324.462 549.063 324.264 549.063Z" fill="#263238"/>
<path d="M546.425 172.38C547.836 175.208 542.573 177.527 539.539 178.446C536.444 179.208 533.241 179.428 530.071 179.097C525.838 178.871 521.507 178.475 517.852 176.382C514.652 174.395 512.094 171.522 510.487 168.11C508.903 164.709 507.65 161.162 506.748 157.519C506.748 157.519 540.089 159.696 546.425 172.38Z" fill="#3B5769"/>
<g opacity="0.4">
<path opacity="0.4" d="M546.425 172.38C547.836 175.208 542.573 177.527 539.539 178.446C536.444 179.208 533.241 179.428 530.071 179.097C525.838 178.871 521.507 178.475 517.852 176.382C514.652 174.395 512.094 171.522 510.487 168.11C508.903 164.709 507.65 161.162 506.748 157.519C506.748 157.519 540.089 159.696 546.425 172.38Z" fill="black"/>
</g>
<path d="M452.257 163.33C446.76 167.238 440.173 169.306 433.434 169.241C430.204 169.421 427.019 168.416 424.475 166.413C423.388 165.409 422.57 164.136 421.455 163.175C420.693 162.524 419.804 162.029 419.085 161.337C418.705 161.009 418.412 160.592 418.232 160.123C418.053 159.654 417.992 159.148 418.055 158.65C418.333 157.422 419.02 156.325 420.002 155.539C423.826 153.362 428.397 153.446 432.799 153.545C437.205 153.736 441.557 154.59 445.71 156.076C449.124 157.236 452.694 158.905 454.43 162.015" fill="#3B5769"/>
<g opacity="0.4">
<path opacity="0.4" d="M418.055 158.65C418.553 157.457 419.431 156.463 420.552 155.822C424.376 153.644 428.397 153.446 432.799 153.545C437.205 153.736 441.557 154.59 445.71 156.076C449.124 157.236 452.694 158.904 454.43 162.015L452.257 163.33C446.76 167.238 440.173 169.306 433.434 169.241C430.204 169.421 427.019 168.416 424.475 166.413C423.388 165.409 422.57 164.136 421.455 163.175C420.693 162.524 419.804 162.029 419.085 161.337C418.705 161.009 418.412 160.592 418.232 160.123C418.053 159.654 417.992 159.148 418.055 158.65Z" fill="black"/>
</g>
<path d="M517.359 214.08L447.022 215.013C446.878 215.013 446.737 214.979 446.609 214.914C446.482 214.849 446.371 214.755 446.286 214.64C446.201 214.525 446.144 214.391 446.12 214.249C446.096 214.108 446.105 213.963 446.147 213.826L454.401 188.034C454.401 188.034 453.187 175.138 451.508 159.64C448.955 136.096 445.554 106.501 445.512 106.586C450.323 93.0676 478.712 90.7769 478.712 90.7769L511.066 92.6999L512.195 90.791L521.507 95.1321C523.538 96.079 525.491 97.1854 527.349 98.4409C533.5 102.556 548.316 112.016 551.025 122.55C557.275 146.942 546.693 174.162 546.693 174.162L539.892 168.831C538.179 167.508 536.378 166.304 534.502 165.225L520.872 201.835C521.683 202.347 522.37 203.034 522.883 203.846C523.395 204.659 523.721 205.575 523.835 206.529C523.948 209.499 522.424 213.062 517.359 214.08Z" fill="#3B5769"/>
<g opacity="0.3">
<path opacity="0.3" d="M487.176 170.924C484.947 158.904 486.118 146.546 487.317 134.385C491.211 144.283 491.07 155.596 495.204 165.409C495.711 166.445 496.081 167.543 496.305 168.675C496.413 169.244 496.384 169.83 496.223 170.385C496.061 170.941 495.77 171.45 495.374 171.871C494.245 172.903 492.552 172.338 491.056 172.168C489.717 171.912 488.414 171.494 487.176 170.924Z" fill="black"/>
</g>
<g opacity="0.4">
<path opacity="0.4" d="M513.125 198.752C507.481 200.717 501.47 197.055 495.502 196.405C491.551 195.981 487.6 196.885 483.678 197.522C475.746 198.808 467.676 199.007 459.691 198.116C458.466 198.048 457.266 197.736 456.164 197.197C455.594 196.807 455.127 196.284 454.805 195.673C454.483 195.062 454.315 194.381 454.315 193.69C467.607 192.276 480.884 191.512 494.175 190.141C497.484 189.575 500.872 189.685 504.137 190.466C508.144 191.71 511.192 194.863 514.014 197.988" fill="black"/>
</g>
<path d="M420.086 154.012C425.828 141.046 446.076 105.186 446.076 105.186L461.752 124.883L458.098 163.557C458.098 163.557 449.815 154.295 426.661 154.111C424.978 154.179 423.332 154.622 421.843 155.41C420.353 156.198 419.059 157.31 418.054 158.664L420.086 154.012Z" fill="#3B5769"/>
<path d="M514.214 147.154C515.332 144.405 516.219 141.567 516.866 138.67C517.743 135.848 518.384 132.958 518.785 130.03C517.683 132.784 516.801 135.621 516.147 138.514C515.27 141.337 514.624 144.227 514.214 147.154Z" fill="#263238"/>
<path d="M462.937 122.267C462.427 122.629 461.954 123.041 461.526 123.497C460.279 124.704 459.111 125.988 458.027 127.343C454.378 131.813 451.814 137.069 450.534 142.7C449.87 145.812 449.723 149.013 450.097 152.174C450.45 155.073 451 157.618 451.367 159.767C451.734 161.916 451.96 163.67 452.072 164.886C452.076 165.518 452.142 166.148 452.27 166.767C452.37 166.135 452.398 165.495 452.355 164.858C452.292 163.125 452.132 161.397 451.875 159.682C451.579 157.519 451.085 154.945 450.76 152.103C450.434 149.014 450.601 145.892 451.254 142.855C452.518 137.33 454.969 132.147 458.436 127.669C461.018 124.19 463.05 122.38 462.937 122.267Z" fill="#263238"/>
<path d="M477.301 210.969C477.792 211.188 478.309 211.34 478.839 211.421C479.442 211.581 480.055 211.699 480.674 211.775C481.393 211.874 482.212 212.03 483.129 212.072C485.278 212.27 487.442 212.27 489.591 212.072C492.221 211.801 494.82 211.28 497.351 210.516C499.87 209.705 502.308 208.659 504.632 207.391C506.516 206.338 508.306 205.122 509.98 203.757C510.713 203.192 511.306 202.598 511.842 202.103C512.305 201.686 512.743 201.242 513.154 200.774C513.547 200.41 513.884 199.991 514.156 199.53C514.057 199.431 512.548 201.127 509.655 203.347C507.965 204.636 506.177 205.789 504.308 206.798C502.01 208.008 499.612 209.015 497.14 209.809C494.651 210.561 492.102 211.091 489.521 211.393C487.412 211.621 485.29 211.687 483.171 211.591C479.545 211.393 477.33 210.856 477.301 210.969Z" fill="#263238"/>
<path d="M455.586 202.938C455.254 203.577 455.066 204.282 455.036 205.002C454.811 206.726 454.941 208.477 455.417 210.149C455.902 211.859 456.884 213.385 458.239 214.533C459.269 215.395 460.059 215.664 460.102 215.593C460.144 215.522 459.481 215.056 458.592 214.179C457.451 212.986 456.622 211.529 456.179 209.937C455.05 206.204 455.855 202.952 455.586 202.938Z" fill="#263238"/>
<path d="M459.409 207.915C459.103 209.369 459.226 210.881 459.762 212.267C460.298 213.653 461.224 214.853 462.429 215.72C462.584 215.565 461.272 214.165 460.453 212.001C459.635 209.838 459.621 207.929 459.409 207.915Z" fill="#263238"/>
<path d="M471.996 161.393C472.743 162.66 473.583 163.87 474.507 165.013C475.237 166.29 476.062 167.51 476.977 168.661C476.706 167.169 476.065 165.769 475.114 164.589C474.362 163.276 473.289 162.176 471.996 161.393Z" fill="#263238"/>
<path d="M520.279 127.146C521.354 126.513 522.395 125.824 523.397 125.081C528.415 121.777 534.11 119.646 540.061 118.845C541.306 118.754 542.545 118.589 543.771 118.35C542.522 118.177 541.254 118.177 540.004 118.35C533.891 118.873 528.037 121.059 523.072 124.671C522.031 125.362 521.091 126.195 520.279 127.146Z" fill="#263238"/>
<path d="M446.078 104.719C448.603 106.757 450.962 108.994 453.133 111.407C455.131 113.983 456.92 116.717 458.48 119.58C458.313 118.617 457.984 117.69 457.507 116.837C456.485 114.717 455.206 112.732 453.697 110.927C452.184 109.125 450.449 107.524 448.533 106.161C447.804 105.542 446.973 105.054 446.078 104.719Z" fill="#263238"/>
<path d="M475.113 93.0674C474.985 93.2713 474.881 93.4897 474.803 93.7178C474.528 94.3582 474.306 95.0204 474.14 95.6975C473.545 98.2174 473.545 100.842 474.14 103.361C475.018 107.123 477.028 110.524 479.897 113.104C483.518 116.179 488.132 117.827 492.878 117.742C497.627 117.759 502.255 116.236 506.07 113.401C509.11 111.075 511.577 108.08 513.28 104.648C514.428 102.35 515.236 99.8971 515.679 97.366C515.809 96.6842 515.893 95.9945 515.933 95.3015C515.973 95.0581 515.973 94.8097 515.933 94.5662C515.933 94.5662 515.778 95.5561 515.383 97.3095C514.834 99.7691 513.966 102.146 512.801 104.38C511.08 107.708 508.635 110.608 505.647 112.864C501.97 115.592 497.523 117.078 492.948 117.106C488.374 117.19 483.923 115.624 480.405 112.694C477.633 110.209 475.667 106.948 474.761 103.333C474.133 100.893 474.046 98.3446 474.507 95.8672C474.775 94.0007 475.198 93.0957 475.113 93.0674Z" fill="#263238"/>
<g opacity="0.3">
<path opacity="0.3" d="M470.176 163.896C470.176 163.189 470.288 162.355 470.909 162.001C471.106 161.902 471.324 161.85 471.544 161.85C471.765 161.85 471.982 161.902 472.179 162.001C472.574 162.215 472.924 162.503 473.209 162.85C474.868 164.58 476.151 166.636 476.977 168.888L470.063 168.28C470.105 166.851 470.133 165.353 470.176 163.896Z" fill="black"/>
</g>
<g opacity="0.3">
<path opacity="0.3" d="M447.221 149.317C447.916 145.353 449.649 141.644 452.244 138.571C449.253 148.356 450.255 153.885 451.934 160.587L451.567 159.654C449.634 155.737 446.699 153.277 447.221 149.317Z" fill="black"/>
</g>
<path d="M496.829 475.452L461.299 478.252L465.486 541.189L492.532 540.869L496.829 475.452Z" fill="white" stroke="#263238" stroke-width="0.5"/>
<path d="M464.477 533.099V534.937C464.477 534.937 433.436 547.437 433.139 553.319L494.785 552.98L493.826 532.434C484.64 536.747 475.031 537.284 464.477 533.099Z" fill="#FFBD27"/>
<path d="M487.575 539.023C488.16 539.201 488.66 539.586 488.982 540.106C489.304 540.627 489.426 541.247 489.324 541.851C489.173 542.455 488.795 542.976 488.269 543.305C487.743 543.635 487.11 543.747 486.502 543.619C485.875 543.431 485.339 543.016 485 542.454C484.661 541.892 484.543 541.223 484.668 540.579C484.892 539.968 485.344 539.469 485.928 539.186C486.513 538.904 487.185 538.861 487.8 539.066" fill="white"/>
<path d="M494.785 552.98L494.559 548.045L435.524 550.194C435.524 550.194 432.787 551.41 433.111 553.333L494.785 552.98Z" fill="#263238"/>
<path d="M464.248 535.107C464.248 535.403 465.772 535.531 467.254 536.521C468.735 537.51 469.54 538.741 469.808 538.627C470.076 538.514 469.624 536.761 467.804 535.63C465.984 534.498 464.178 534.781 464.248 535.107Z" fill="#263238"/>
<path d="M457.802 537.821C457.731 538.118 459.044 538.613 460.074 539.886C461.104 541.158 461.4 542.502 461.71 542.488C462.021 542.474 462.19 540.763 460.878 539.221C459.566 537.68 457.816 537.609 457.802 537.821Z" fill="#263238"/>
<path d="M454.174 545.599C454.457 545.599 454.866 544.185 454.076 542.502C453.286 540.819 451.889 540.211 451.762 540.452C451.635 540.692 452.509 541.583 453.173 542.954C453.836 544.326 453.864 545.57 454.174 545.599Z" fill="#263238"/>
<path d="M466.054 14.2072C464.46 10.2479 466.393 5.45438 469.821 2.89499C473.435 0.511122 477.841 -0.347618 482.083 0.505289C486.267 1.38458 490.318 2.8108 494.132 4.74737C495.906 2.95489 498.142 1.6917 500.59 1.09885C503.038 0.506013 505.603 0.606855 507.997 1.39011C510.392 2.17337 512.522 3.60821 514.15 5.53443C515.778 7.46065 516.839 9.80243 517.216 12.2983C518.742 11.9134 520.343 11.9522 521.848 12.4103C523.353 12.8684 524.706 13.7287 525.76 14.8987C526.815 16.0687 527.531 17.5044 527.833 19.0516C528.135 20.5989 528.011 22.1993 527.474 23.6812L508.397 30.3978L487.571 67.1625C484.493 69.7941 480.565 71.2136 476.52 71.1561C472.474 71.0987 468.588 69.5682 465.586 66.8503C462.584 64.1324 460.671 60.4127 460.204 56.3852C459.737 52.3577 460.748 48.2976 463.049 44.9623C461.882 43.9224 460.891 42.6999 460.114 41.3424C458.449 40.3561 456.997 39.0482 455.842 37.4946C454.687 35.941 453.851 34.1727 453.383 32.2926C451.535 24.1054 457.856 15.1687 466.054 14.2072Z" fill="#263238"/>
<path d="M478.93 90.8254L478.93 90.826C478.497 92.9801 478.509 95.2 478.964 97.3495C479.418 99.4989 480.307 101.533 481.574 103.325C482.841 105.118 484.461 106.633 486.333 107.776C488.206 108.919 490.291 109.666 492.462 109.972L492.463 109.972C496.438 110.551 500.485 109.617 503.808 107.354C507.13 105.091 509.487 101.665 510.414 97.7478C510.414 97.7475 510.414 97.7472 510.414 97.7469L514.83 78.3767L514.831 78.3737L525.279 35.0485V33.6642V33.6358L525.285 33.6081C525.597 32.2536 525.631 30.9799 525.278 29.9504C524.93 28.9347 524.199 28.1369 522.926 27.7227L522.909 27.7172L522.893 27.7095L496.002 14.5669C491.689 13.1797 487.469 14.8888 483.992 18.1043C480.511 21.3239 477.814 26.0224 476.583 30.4924L476.583 30.4927C473.817 40.5067 470.848 52.8259 470.454 60.6282L470.454 60.6286C470.048 68.4294 472.638 73.4068 475.314 76.4283C476.655 77.9416 478.02 78.9678 479.05 79.6123C479.564 79.9346 479.994 80.161 480.295 80.3048C480.445 80.3768 480.561 80.4278 480.639 80.4596C480.679 80.4757 480.707 80.4862 480.723 80.4919C480.73 80.4942 480.732 80.4951 480.732 80.4951L480.731 80.4948L480.725 80.4932C480.722 80.4926 480.716 80.4912 480.708 80.49C480.706 80.4897 480.699 80.4887 480.689 80.488C480.68 80.4874 480.668 80.4872 480.655 80.4881C480.639 80.4898 480.599 80.4988 480.575 80.5077C480.557 80.5174 480.53 80.5396 480.505 80.5663C480.586 80.5268 480.768 80.5113 480.877 80.5906C480.904 80.6376 480.922 80.7066 480.924 80.7242C480.924 80.7327 480.924 80.7459 480.924 80.7509L480.923 80.7618L480.922 80.772C480.921 80.7785 480.92 80.7851 480.919 80.7883L480.913 80.8236C480.909 80.8439 480.903 80.8713 480.897 80.9056C480.894 80.9218 480.89 80.9396 480.886 80.9589C480.863 81.079 480.828 81.2593 480.781 81.4953C480.688 81.9674 480.55 82.663 480.374 83.5468L480.169 84.5801C479.839 86.2432 479.415 88.3767 478.93 90.8254ZM480.911 80.8161C480.897 80.8449 480.871 80.8785 480.844 80.9071C480.856 80.901 480.866 80.8944 480.874 80.8874C480.886 80.8693 480.901 80.8414 480.905 80.8325C480.907 80.8275 480.91 80.8193 480.911 80.8161Z" fill="white" stroke="#263238" stroke-width="0.5"/>
<path d="M476.439 40.8899C476.325 41.3917 476.409 41.9178 476.671 42.3598C476.934 42.8018 477.356 43.126 477.85 43.2655C478.099 43.3353 478.36 43.3538 478.616 43.3199C478.873 43.286 479.12 43.2004 479.343 43.0683C479.566 42.9362 479.76 42.7603 479.913 42.5512C480.066 42.3421 480.175 42.1041 480.234 41.8515C480.347 41.3516 480.263 40.8273 480.001 40.3876C479.738 39.9479 479.316 39.6265 478.823 39.4901C478.575 39.418 478.314 39.3974 478.058 39.4295C477.801 39.4615 477.554 39.5456 477.331 39.6766C477.108 39.8076 476.914 39.9827 476.76 40.1913C476.607 40.3999 476.497 40.6376 476.439 40.8899Z" fill="#263238"/>
<path d="M477.668 35.0499C477.866 35.361 479.573 34.5833 481.662 35.0499C483.75 35.5166 485.076 36.874 485.358 36.6619C485.641 36.4498 485.358 36.0539 484.78 35.4317C484.004 34.6097 482.994 34.0469 481.887 33.8197C480.796 33.5839 479.657 33.7079 478.642 34.1732C477.852 34.4985 477.584 34.9227 477.668 35.0499Z" fill="#263238"/>
<path d="M496.929 45.5278C496.816 46.0277 496.899 46.5519 497.162 46.9917C497.425 47.4314 497.847 47.7528 498.34 47.8892C498.583 47.9603 498.838 47.9823 499.091 47.9538C499.343 47.9253 499.587 47.847 499.809 47.7234C500.03 47.5998 500.226 47.4333 500.383 47.2336C500.54 47.0339 500.656 46.805 500.724 46.5601C500.837 46.0583 500.754 45.5322 500.492 45.0902C500.229 44.6481 499.807 44.324 499.313 44.1845C499.069 44.1137 498.812 44.0923 498.559 44.1217C498.307 44.1511 498.062 44.2306 497.84 44.3556C497.618 44.4806 497.423 44.6486 497.267 44.8499C497.11 45.0511 496.995 45.2816 496.929 45.5278Z" fill="#263238"/>
<path d="M497.956 40.0414C498.139 40.3525 499.86 39.5607 501.949 40.0414C504.037 40.5222 505.363 41.8514 505.645 41.6534C505.928 41.4555 505.645 41.0454 505.067 40.4091C504.287 39.5944 503.278 39.037 502.174 38.8112C501.084 38.5789 499.948 38.6977 498.929 39.1506C498.181 39.49 497.857 39.8717 497.956 40.0414Z" fill="#263238"/>
<path d="M487.335 56.1613C486.3 55.5893 485.201 55.1431 484.061 54.8321C483.539 54.6624 483.045 54.4503 483.031 54.0685C483.105 53.5061 483.346 52.9789 483.722 52.5555L486.163 48.7942C489.578 43.435 492.174 38.995 491.963 38.896C491.751 38.797 488.802 42.9967 485.387 48.3558L483.003 52.1454C482.534 52.7254 482.28 53.4497 482.283 54.1958C482.325 54.3992 482.412 54.5908 482.536 54.757C482.66 54.9232 482.82 55.0599 483.003 55.1573C483.279 55.3038 483.573 55.4131 483.878 55.4825C484.994 55.8655 486.157 56.0938 487.335 56.1613Z" fill="#263238"/>
<path d="M480.672 80.7371C487.809 82.3536 495.253 81.9521 502.176 79.5776C502.176 79.5776 494.782 89.2496 479.868 84.6257L480.672 80.7371Z" fill="#263238"/>
<path d="M516.358 17.3605C516.046 18.8923 515.401 20.3364 514.469 21.5902C513.537 22.844 512.341 23.8767 510.966 24.615C509.59 25.3534 508.07 25.7791 506.512 25.8621C504.954 25.9451 503.397 25.6833 501.952 25.0952C499.722 24.1902 497.408 22.4934 495.151 23.3135C492.893 24.1337 491.962 27.3576 489.803 28.5596C486.629 30.3412 482.748 27.2587 479.207 27.5697C476.385 27.8101 474.254 29.9736 472.067 31.8118C469.88 33.6501 466.861 35.0358 464.392 33.7066C464.957 31.3452 465.795 29.0579 466.889 26.891C467.992 24.7095 469.818 22.98 472.053 21.9985C473.295 21.5036 474.635 21.3339 475.82 20.7258C478.374 19.4249 479.517 16.4838 481.366 14.2637C482.58 12.8647 484.109 11.7759 485.826 11.0873C487.544 10.3988 489.401 10.1304 491.242 10.3045C494.29 10.6155 497.183 12.1568 500.259 12.0296C502.53 11.9306 504.703 10.9125 506.975 10.9549C511.391 10.9549 514.707 14.9142 517.162 18.6048" fill="#263238"/>
<path d="M501.486 20.5987C503.518 20.4432 507.667 20.019 509.035 18.5767C510.426 17.0181 512.2 15.853 514.181 15.1978C516.162 14.5427 518.28 14.4205 520.323 14.8436C522.35 15.4493 524.13 16.6912 525.4 18.3866C526.67 20.0819 527.363 22.1411 527.378 24.261C529.847 24.8648 532.107 26.1255 533.92 27.9101C535.733 29.6946 537.031 31.9367 537.678 34.3996C538.335 36.9779 538.357 39.6774 537.742 42.2661C537.128 44.8548 535.895 47.2553 534.151 49.261C533.303 50.3232 532.53 51.443 531.837 52.6123C532.793 53.8017 533.634 55.0802 534.348 56.4302C537.579 63.5851 528.817 66.3283 528.817 66.3283C528.817 71.136 524.373 71.1078 521.536 71.0936C518.7 71.0795 517.134 78.6728 514.919 78.3759L517.162 54.9454C516.834 55.0735 516.485 55.1405 516.132 55.1434C510.785 55.2424 512.182 45.0897 513.903 42.4172C512.31 40.4295 510.964 38.2547 509.896 35.9409C508.927 32.4038 508.859 28.6797 509.698 25.1095C507.906 24.8832 500.612 20.6553 501.486 20.5987Z" fill="#263238"/>
<path d="M516.455 56.1897C516.637 55.4452 517.004 54.7591 517.523 54.1953C518.041 53.6316 518.693 53.2085 519.419 52.9657C520.144 52.7229 520.92 52.6681 521.672 52.8066C522.424 52.9451 523.129 53.2723 523.721 53.7576C525.132 54.9737 525.88 57.0099 525.034 60.4177C522.748 69.524 514.099 65.3526 514.155 65.0981C514.211 64.8436 515.467 59.951 516.455 56.1897Z" fill="white"/>
<path d="M517.795 62.3406C517.795 62.3406 517.922 62.4962 518.162 62.68C518.496 62.9363 518.915 63.0529 519.333 63.0052C520.377 62.8921 521.577 61.5912 522.028 59.9368C522.243 59.1638 522.287 58.3529 522.155 57.5612C522.141 57.2537 522.052 56.9542 521.898 56.6883C521.743 56.4224 521.526 56.1979 521.266 56.0341C521.095 55.9415 520.897 55.9121 520.706 55.9508C520.515 55.9896 520.344 56.0941 520.222 56.2462C520.039 56.4583 520.053 56.6562 519.996 56.6704C519.94 56.6845 519.841 56.4583 519.996 56.1048C520.105 55.8951 520.278 55.7264 520.49 55.624C520.789 55.5029 521.123 55.5029 521.421 55.624C521.776 55.7926 522.082 56.0483 522.311 56.3672C522.541 56.6861 522.686 57.0579 522.734 57.4481C522.917 58.3386 522.883 59.2602 522.635 60.1348C522.477 60.9559 522.081 61.7121 521.496 62.3083C520.912 62.9046 520.164 63.3143 519.347 63.486C519.082 63.4968 518.817 63.4478 518.573 63.3426C518.329 63.2373 518.111 63.0786 517.936 62.878C517.753 62.5669 517.753 62.3548 517.795 62.3406Z" fill="#263238"/>
<path d="M467.734 43.4776C467.734 43.4776 466.902 42.8413 465.745 41.4273C464.148 39.3899 463.169 36.936 462.923 34.3572C462.736 32.5967 462.909 30.8166 463.431 29.1253C464.034 27.1852 465.15 25.4454 466.662 24.0913C468.407 22.5637 470.521 21.5199 472.793 21.0635C475.065 20.6071 477.417 20.754 479.615 21.4895C480.038 21.6309 480.433 21.843 480.828 22.0127C481.223 22.1824 481.576 22.4369 481.943 22.649L482.507 22.9601V22.3379C482.519 21.2425 482.925 20.1883 483.65 19.3685C484.393 18.5728 485.304 17.9543 486.317 17.5585C488.233 16.7582 490.356 16.5995 492.37 17.106C496.264 17.9969 499.566 19.7785 502.684 20.1462C505.13 20.5721 507.645 20.0678 509.739 18.7322C510.292 18.3512 510.77 17.8719 511.15 17.3181C511.376 16.9363 511.489 16.7242 511.461 16.7101C510.949 17.4084 510.324 18.0154 509.612 18.5059C507.552 19.6976 505.132 20.1043 502.797 19.6513C501.172 19.3449 499.584 18.8711 498.056 18.2372C496.263 17.5189 494.425 16.919 492.553 16.4414C491.51 16.1885 490.437 16.0791 489.365 16.1162C488.233 16.1761 487.12 16.4346 486.077 16.8798C484.998 17.3417 484.034 18.0371 483.255 18.916C482.421 19.8732 481.951 21.0953 481.929 22.3662L482.493 22.0551L481.322 21.3764C480.885 21.2067 480.475 20.9805 480.024 20.8249C477.707 20.0298 475.222 19.8635 472.821 20.3429C470.419 20.8222 468.187 21.9301 466.352 23.554C464.765 24.9937 463.603 26.8427 462.993 28.899C462.36 31.0784 462.275 33.381 462.745 35.6015C463.215 37.822 464.227 39.8914 465.688 41.6252C466.153 42.1567 466.679 42.6313 467.255 43.0393C467.396 43.2043 467.557 43.3515 467.734 43.4776Z" fill="#455A64"/>
<path d="M469.569 11.5065C470.495 11.0352 471.483 10.6972 472.503 10.5025C473.67 10.3427 474.858 10.454 475.975 10.8277C477.421 11.2712 478.678 12.1871 479.544 13.4295L479.897 13.9244L480.109 13.3588C480.845 11.6206 482.031 10.1107 483.544 8.98476C485.057 7.85882 486.842 7.15757 488.716 6.95329C491.658 6.84239 494.558 7.68539 496.984 9.35714C499.051 10.7075 501.249 11.8445 503.545 12.7508C505.128 13.3508 506.833 13.5546 508.512 13.3447C508.959 13.2619 509.398 13.1388 509.824 12.9771C510.106 12.8498 510.261 12.7791 510.247 12.7508C510.233 12.7225 509.612 12.9346 508.469 13.0477C506.846 13.1494 505.221 12.8836 503.714 12.27C501.483 11.2951 499.344 10.1214 497.323 8.76325C496.074 7.98619 494.75 7.33717 493.372 6.82603C491.856 6.27226 490.237 6.06453 488.631 6.21799C486.63 6.43697 484.725 7.19564 483.12 8.41325C481.515 9.63086 480.27 11.2618 479.516 13.1326H480.066C479.096 11.8038 477.71 10.8382 476.13 10.3894C474.929 10.0404 473.663 9.97744 472.433 10.2056C471.654 10.3537 470.909 10.6411 470.232 11.054C469.99 11.1724 469.767 11.3248 469.569 11.5065Z" fill="#455A64"/>
<path d="M487.447 64.7445C487.56 64.7445 487.687 64.3203 488.068 63.7405C488.527 62.9633 489.213 62.3459 490.033 61.9716C490.853 61.5974 491.768 61.4844 492.654 61.6478C493.345 61.7468 493.768 61.9447 493.811 61.8457C493.853 61.7468 493.529 61.4074 492.767 61.1387C491.769 60.8171 490.689 60.8776 489.733 61.3084C488.769 61.7386 488.006 62.5231 487.603 63.5002C487.306 64.2355 487.349 64.7304 487.447 64.7445Z" fill="#263238"/>
<path d="M516.245 66.498C516.245 66.498 515.836 67.205 516.372 68.2797C516.675 68.9227 517.209 69.4276 517.868 69.6937C518.278 69.8411 518.718 69.891 519.151 69.8395C519.584 69.7879 520 69.6364 520.365 69.3968C520.736 69.1705 521.05 68.8614 521.283 68.4935C521.515 68.1256 521.66 67.7088 521.705 67.2757C521.748 66.5773 521.543 65.8862 521.127 65.3244C520.393 64.3911 519.575 64.3628 519.575 64.4477C519.575 64.5325 520.196 64.7729 520.69 65.6213C520.975 66.0966 521.095 66.6541 521.028 67.205C520.975 67.5278 520.854 67.8352 520.671 68.1061C520.488 68.3771 520.249 68.6052 519.97 68.7746C519.694 68.9512 519.385 69.0676 519.062 69.1163C518.738 69.165 518.408 69.145 518.093 69.0574C517.572 68.8705 517.123 68.5243 516.809 68.0676C516.259 67.1909 516.358 66.498 516.245 66.498Z" fill="#FFBD27"/>
<path d="M521 65.9464C520.929 65.9464 521 66.4271 521.663 66.7382C521.989 66.8739 522.347 66.9133 522.694 66.8517C523.042 66.7902 523.364 66.6302 523.624 66.3908C523.883 66.1514 524.069 65.8426 524.159 65.5007C524.25 65.1589 524.24 64.7983 524.132 64.4616C523.994 64.0792 523.73 63.7552 523.384 63.5425C522.806 63.189 522.369 63.3304 522.383 63.4152C522.397 63.5001 522.721 63.5991 523.074 63.9526C523.248 64.1699 523.353 64.4337 523.378 64.711C523.403 64.9882 523.345 65.2666 523.212 65.5112C523.08 65.7558 522.878 65.9558 522.633 66.086C522.387 66.2162 522.109 66.271 521.832 66.2433C521.353 66.1443 521.099 65.8898 521 65.9464Z" fill="#FFBD27"/>
<path d="M449.898 193.496H449.898C460.221 193.404 474.116 192.85 485.431 192.318C491.089 192.052 496.101 191.791 499.698 191.598C501.497 191.501 502.942 191.421 503.937 191.364C504.435 191.336 504.82 191.315 505.081 191.3L505.244 191.29L505.341 171.606L449.244 166.761L448.954 166.736L449.023 166.453L450.822 159.073C444.009 155.901 437.431 154.378 426.841 154.361C426.839 154.367 426.837 154.373 426.835 154.379C426.793 154.502 426.733 154.683 426.657 154.918C426.506 155.386 426.292 156.066 426.044 156.908C425.547 158.594 424.913 160.931 424.363 163.536C423.812 166.142 423.347 169.012 423.185 171.766C423.023 174.522 423.167 177.144 423.824 179.263L423.825 179.263C425.405 184.372 427.953 187.953 432.066 190.247C436.191 192.549 441.921 193.574 449.898 193.496Z" fill="white" stroke="#263238" stroke-width="0.5"/>
<path d="M437.524 174.6C439.039 172.626 440.809 170.862 442.787 169.354C444.909 168.053 447.197 167.045 449.588 166.356C448.835 166.248 448.067 166.316 447.344 166.554C445.569 166.975 443.886 167.718 442.378 168.746C440.867 169.778 439.561 171.082 438.526 172.592C437.736 173.752 437.439 174.558 437.524 174.6Z" fill="#263238"/>
<mask id="path-85-inside-1_927_443" fill="white">
<path fill-rule="evenodd" clip-rule="evenodd" d="M502.798 93.7179L503.588 110.403L503.528 110.441L518.205 158.876H518.275C518.275 158.876 529.084 161.478 537.027 166.795L528.561 189.787C525.74 197.338 517.118 201.099 510.219 197.14C499.594 191.046 495.841 173.285 495.841 173.285L484.172 122.55L484.268 122.49C483.944 122.172 479.325 117.615 479.093 116.851C478.853 116.06 477.964 107.406 477.964 107.406C477.964 107.406 475.763 106.19 474.677 105.567C473.694 105.005 474.2 102.661 474.567 100.963C474.606 100.783 474.643 100.611 474.677 100.449C475.03 98.7518 477.273 98.0307 477.273 98.0307C477.291 96.508 477.495 94.9932 477.88 93.5199C478.36 92.7988 483.651 92.6433 483.651 92.6433C483.595 91.6071 483.595 90.5686 483.651 89.5324C483.778 89.1789 485.683 84.555 487.206 84.8095C488.73 85.0641 497.295 90.2111 497.295 90.2111C497.295 90.2111 502.939 75.378 504.11 74.1619C504.468 73.8476 504.924 73.6674 505.4 73.652C505.876 73.6365 506.342 73.7867 506.72 74.0771C507.482 74.6427 507.369 75.8163 507.129 76.7496L502.798 93.7179Z"/>
</mask>
<path fill-rule="evenodd" clip-rule="evenodd" d="M502.798 93.7179L503.588 110.403L503.528 110.441L518.205 158.876H518.275C518.275 158.876 529.084 161.478 537.027 166.795L528.561 189.787C525.74 197.338 517.118 201.099 510.219 197.14C499.594 191.046 495.841 173.285 495.841 173.285L484.172 122.55L484.268 122.49C483.944 122.172 479.325 117.615 479.093 116.851C478.853 116.06 477.964 107.406 477.964 107.406C477.964 107.406 475.763 106.19 474.677 105.567C473.694 105.005 474.2 102.661 474.567 100.963C474.606 100.783 474.643 100.611 474.677 100.449C475.03 98.7518 477.273 98.0307 477.273 98.0307C477.291 96.508 477.495 94.9932 477.88 93.5199C478.36 92.7988 483.651 92.6433 483.651 92.6433C483.595 91.6071 483.595 90.5686 483.651 89.5324C483.778 89.1789 485.683 84.555 487.206 84.8095C488.73 85.0641 497.295 90.2111 497.295 90.2111C497.295 90.2111 502.939 75.378 504.11 74.1619C504.468 73.8476 504.924 73.6674 505.4 73.652C505.876 73.6365 506.342 73.7867 506.72 74.0771C507.482 74.6427 507.369 75.8163 507.129 76.7496L502.798 93.7179Z" fill="white"/>
<path d="M503.588 110.403L504.087 110.38L504.101 110.672L503.853 110.827L503.588 110.403ZM502.798 93.7179L502.298 93.7416L502.295 93.6668L502.313 93.5942L502.798 93.7179ZM503.528 110.441L503.049 110.586L502.939 110.22L503.262 110.017L503.528 110.441ZM518.205 158.876V159.376H517.834L517.726 159.021L518.205 158.876ZM518.275 158.876V158.376H518.335L518.392 158.39L518.275 158.876ZM537.027 166.795L537.305 166.379L537.633 166.598L537.497 166.968L537.027 166.795ZM528.561 189.787L529.031 189.96L529.03 189.962L528.561 189.787ZM510.219 197.14L510.468 196.706L510.468 196.706L510.219 197.14ZM495.841 173.285L496.328 173.173L496.33 173.182L495.841 173.285ZM484.172 122.55L483.685 122.662L483.605 122.316L483.906 122.127L484.172 122.55ZM484.268 122.49L484.619 122.134L485.069 122.577L484.534 122.913L484.268 122.49ZM479.093 116.851L479.572 116.706V116.706L479.093 116.851ZM477.964 107.406L478.206 106.968L478.435 107.094L478.462 107.355L477.964 107.406ZM474.677 105.567L474.925 105.134L474.677 105.567ZM474.567 100.963L474.078 100.858V100.858L474.567 100.963ZM474.677 100.449L474.187 100.347L474.187 100.347L474.677 100.449ZM477.273 98.0307L477.773 98.0367L477.769 98.3966L477.426 98.5067L477.273 98.0307ZM477.88 93.5199L477.396 93.3936L477.417 93.3127L477.463 93.243L477.88 93.5199ZM483.651 92.6433L484.15 92.6162L484.178 93.128L483.665 93.143L483.651 92.6433ZM483.651 89.5324L483.151 89.5054L483.155 89.4323L483.18 89.3633L483.651 89.5324ZM487.206 84.8095L487.124 85.3027L487.206 84.8095ZM497.295 90.2111L497.762 90.3889L497.55 90.9476L497.037 90.6397L497.295 90.2111ZM504.11 74.1619L503.75 73.8151L503.764 73.7999L503.78 73.786L504.11 74.1619ZM505.4 73.652L505.416 74.1517L505.4 73.652ZM506.72 74.0771L506.422 74.4786L506.416 74.4735L506.72 74.0771ZM507.129 76.7496L506.645 76.6259L506.645 76.6251L507.129 76.7496ZM503.088 110.427L502.298 93.7416L503.297 93.6943L504.087 110.38L503.088 110.427ZM503.262 110.017L503.322 109.98L503.853 110.827L503.794 110.865L503.262 110.017ZM504.006 110.296L518.683 158.731L517.726 159.021L503.049 110.586L504.006 110.296ZM518.205 158.376H518.275V159.376H518.205V158.376ZM518.275 158.876C518.392 158.39 518.393 158.39 518.393 158.39C518.393 158.39 518.393 158.39 518.393 158.39C518.394 158.391 518.394 158.391 518.395 158.391C518.396 158.391 518.399 158.392 518.401 158.392C518.407 158.394 518.415 158.396 518.426 158.398C518.447 158.404 518.479 158.412 518.52 158.422C518.603 158.443 518.725 158.474 518.882 158.515C519.197 158.597 519.654 158.721 520.226 158.885C521.372 159.215 522.981 159.709 524.84 160.371C528.553 161.692 533.284 163.688 537.305 166.379L536.749 167.21C532.827 164.585 528.182 162.622 524.505 161.313C522.669 160.66 521.08 160.171 519.95 159.847C519.386 159.684 518.936 159.563 518.629 159.482C518.475 159.442 518.357 159.412 518.277 159.392C518.237 159.382 518.207 159.374 518.187 159.37C518.177 159.367 518.17 159.365 518.165 159.364C518.163 159.364 518.161 159.363 518.16 159.363C518.159 159.363 518.159 159.363 518.159 159.363C518.158 159.363 518.158 159.363 518.158 159.363C518.158 159.363 518.158 159.363 518.275 158.876ZM537.497 166.968L529.031 189.96L528.092 189.614L536.558 166.622L537.497 166.968ZM529.03 189.962C526.116 197.758 517.177 201.709 509.97 197.574L510.468 196.706C517.06 200.489 525.363 196.918 528.093 189.612L529.03 189.962ZM509.97 197.574C504.513 194.444 500.865 188.354 498.587 183.127C497.444 180.502 496.636 178.071 496.114 176.297C495.852 175.409 495.662 174.684 495.538 174.181C495.475 173.929 495.429 173.732 495.398 173.598C495.383 173.531 495.371 173.479 495.364 173.444C495.36 173.426 495.357 173.413 495.355 173.404C495.354 173.399 495.353 173.395 495.353 173.393C495.352 173.392 495.352 173.391 495.352 173.39C495.352 173.39 495.352 173.389 495.352 173.389C495.352 173.389 495.352 173.389 495.841 173.285C496.33 173.182 496.33 173.182 496.33 173.182C496.33 173.182 496.33 173.182 496.33 173.182C496.33 173.183 496.33 173.183 496.331 173.184C496.331 173.186 496.332 173.189 496.332 173.193C496.334 173.201 496.337 173.213 496.34 173.229C496.347 173.262 496.358 173.31 496.373 173.375C496.402 173.504 496.447 173.694 496.508 173.94C496.63 174.431 496.816 175.142 497.073 176.014C497.587 177.76 498.381 180.15 499.504 182.728C501.759 187.904 505.299 193.742 510.468 196.706L509.97 197.574ZM495.354 173.397L483.685 122.662L484.659 122.438L496.328 173.173L495.354 173.397ZM483.906 122.127L484.002 122.067L484.534 122.913L484.438 122.974L483.906 122.127ZM479.572 116.706C479.567 116.691 479.571 116.709 479.611 116.774C479.647 116.832 479.699 116.907 479.768 117C479.907 117.184 480.099 117.415 480.331 117.681C480.794 118.212 481.396 118.856 482.007 119.491C483.226 120.761 484.458 121.975 484.619 122.134L483.917 122.846C483.754 122.686 482.515 121.464 481.285 120.184C480.671 119.545 480.056 118.887 479.577 118.339C479.338 118.065 479.129 117.813 478.969 117.6C478.889 117.494 478.818 117.393 478.761 117.3C478.708 117.214 478.648 117.107 478.615 116.996L479.572 116.706ZM477.964 107.406C478.462 107.355 478.462 107.355 478.462 107.355C478.462 107.355 478.462 107.355 478.462 107.355C478.462 107.355 478.462 107.356 478.462 107.356C478.462 107.357 478.462 107.359 478.462 107.361C478.463 107.365 478.464 107.371 478.464 107.379C478.466 107.396 478.469 107.42 478.472 107.452C478.478 107.515 478.488 107.608 478.5 107.727C478.525 107.965 478.561 108.306 478.604 108.718C478.691 109.541 478.81 110.646 478.936 111.776C479.062 112.907 479.195 114.06 479.312 114.979C479.37 115.438 479.424 115.837 479.47 116.143C479.519 116.466 479.554 116.649 479.572 116.706L478.615 116.996C478.572 116.856 478.527 116.595 478.481 116.293C478.433 115.975 478.378 115.567 478.32 115.104C478.202 114.178 478.068 113.019 477.942 111.887C477.816 110.755 477.697 109.647 477.61 108.823C477.566 108.411 477.531 108.069 477.506 107.831C477.493 107.712 477.484 107.618 477.477 107.554C477.474 107.523 477.471 107.498 477.47 107.482C477.469 107.474 477.468 107.467 477.468 107.463C477.467 107.461 477.467 107.459 477.467 107.458C477.467 107.458 477.467 107.457 477.467 107.457C477.467 107.457 477.467 107.457 477.467 107.457C477.467 107.457 477.467 107.457 477.964 107.406ZM474.925 105.134C475.466 105.443 476.285 105.901 476.971 106.283C477.314 106.474 477.623 106.645 477.846 106.769C477.957 106.83 478.048 106.88 478.11 106.915C478.141 106.932 478.165 106.945 478.181 106.954C478.19 106.959 478.196 106.962 478.2 106.965C478.202 106.966 478.204 106.967 478.205 106.967C478.205 106.967 478.206 106.968 478.206 106.968C478.206 106.968 478.206 106.968 478.206 106.968C478.206 106.968 478.206 106.968 478.206 106.968C478.206 106.968 478.206 106.968 477.964 107.406C477.723 107.843 477.723 107.843 477.723 107.843C477.723 107.843 477.723 107.843 477.723 107.843C477.722 107.843 477.722 107.843 477.722 107.843C477.722 107.843 477.722 107.843 477.721 107.842C477.72 107.842 477.718 107.841 477.716 107.84C477.712 107.837 477.706 107.834 477.698 107.829C477.681 107.82 477.657 107.807 477.626 107.79C477.563 107.755 477.473 107.705 477.361 107.643C477.138 107.519 476.828 107.348 476.485 107.157C475.799 106.775 474.975 106.314 474.428 106.001L474.925 105.134ZM475.056 101.069C474.87 101.927 474.662 102.898 474.615 103.72C474.592 104.131 474.611 104.47 474.677 104.723C474.743 104.974 474.838 105.084 474.925 105.134L474.428 106.001C474.024 105.77 473.814 105.376 473.71 104.976C473.606 104.578 473.591 104.12 473.617 103.663C473.669 102.748 473.897 101.697 474.078 100.858L475.056 101.069ZM475.166 100.55C475.132 100.715 475.095 100.889 475.056 101.069L474.078 100.858C474.117 100.677 474.154 100.507 474.187 100.347L475.166 100.55ZM477.273 98.0307C477.426 98.5067 477.426 98.5067 477.426 98.5066C477.426 98.5066 477.426 98.5066 477.427 98.5065C477.427 98.5065 477.427 98.5065 477.427 98.5065C477.427 98.5064 477.427 98.5064 477.427 98.5065C477.427 98.5065 477.426 98.5068 477.424 98.5072C477.422 98.5081 477.417 98.5096 477.411 98.5119C477.398 98.5164 477.377 98.5236 477.35 98.5337C477.296 98.5539 477.215 98.5853 477.117 98.6282C476.919 98.7145 476.653 98.8453 476.379 99.0229C475.816 99.3883 475.302 99.8968 475.166 100.55L474.187 100.347C474.404 99.3037 475.189 98.6032 475.835 98.1839C476.166 97.9691 476.483 97.8135 476.717 97.7116C476.835 97.6604 476.932 97.6221 477.002 97.5963C477.037 97.5833 477.065 97.5734 477.085 97.5665C477.095 97.5631 477.103 97.5604 477.109 97.5584C477.112 97.5574 477.114 97.5566 477.116 97.556C477.117 97.5557 477.118 97.5554 477.118 97.5552C477.119 97.5551 477.119 97.555 477.119 97.5549C477.119 97.5549 477.12 97.5548 477.12 97.5548C477.12 97.5547 477.12 97.5547 477.273 98.0307ZM478.364 93.6463C477.989 95.0802 477.791 96.5546 477.773 98.0367L476.773 98.0247C476.792 96.4614 477.001 94.9062 477.396 93.3936L478.364 93.6463ZM483.651 92.6433C483.665 93.143 483.665 93.143 483.665 93.143C483.665 93.143 483.665 93.143 483.665 93.143C483.665 93.143 483.665 93.1431 483.665 93.1431C483.664 93.1431 483.663 93.1431 483.662 93.1431C483.66 93.1432 483.656 93.1433 483.651 93.1435C483.642 93.1438 483.627 93.1442 483.608 93.1449C483.57 93.1462 483.514 93.1482 483.442 93.151C483.298 93.1566 483.091 93.1654 482.842 93.1782C482.343 93.2038 481.674 93.2454 480.992 93.309C480.306 93.3729 479.621 93.458 479.085 93.5685C478.815 93.624 478.599 93.6827 478.445 93.7419C478.262 93.8124 478.262 93.8482 478.296 93.7969L477.463 93.243C477.618 93.0114 477.888 92.8846 478.086 92.8085C478.313 92.7212 478.589 92.6495 478.883 92.589C479.473 92.4675 480.201 92.3784 480.899 92.3133C481.599 92.248 482.283 92.2055 482.791 92.1795C483.045 92.1664 483.256 92.1575 483.403 92.1517C483.477 92.1489 483.535 92.1468 483.574 92.1455C483.594 92.1448 483.609 92.1443 483.62 92.144C483.625 92.1438 483.629 92.1437 483.632 92.1436C483.633 92.1436 483.634 92.1435 483.635 92.1435C483.635 92.1435 483.635 92.1435 483.636 92.1435C483.636 92.1435 483.636 92.1435 483.636 92.1435C483.636 92.1435 483.636 92.1435 483.651 92.6433ZM484.15 89.5594C484.095 90.5776 484.095 91.598 484.15 92.6162L483.151 92.6703C483.094 91.6161 483.094 90.5596 483.151 89.5054L484.15 89.5594ZM487.124 85.3027C487.006 85.283 486.762 85.3528 486.383 85.7402C486.031 86.1001 485.67 86.6243 485.336 87.1952C484.671 88.3337 484.176 89.5496 484.121 89.7014L483.18 89.3633C483.253 89.1616 483.773 87.8889 484.473 86.6907C484.822 86.0933 485.231 85.4871 485.669 85.0406C486.079 84.6216 486.645 84.2088 487.289 84.3164L487.124 85.3027ZM497.295 90.2111C497.037 90.6397 497.037 90.6397 497.037 90.6396C497.037 90.6396 497.037 90.6396 497.037 90.6395C497.037 90.6393 497.036 90.6391 497.036 90.6388C497.035 90.6382 497.033 90.6373 497.031 90.6361C497.027 90.6336 497.021 90.63 497.013 90.6252C496.997 90.6155 496.973 90.6011 496.942 90.5823C496.879 90.5447 496.786 90.4895 496.668 90.4191C496.432 90.2782 496.092 90.0766 495.679 89.8338C494.854 89.3482 493.738 88.6984 492.576 88.041C491.412 87.383 490.206 86.7199 489.199 86.2064C488.694 85.9495 488.245 85.7326 487.878 85.5733C487.497 85.4077 487.247 85.3233 487.124 85.3027L487.289 84.3164C487.546 84.3594 487.898 84.4915 488.277 84.6561C488.67 84.827 489.14 85.054 489.653 85.3154C490.679 85.8386 491.9 86.5099 493.068 87.1706C494.237 87.8317 495.358 88.4846 496.186 88.972C496.601 89.2158 496.942 89.4183 497.18 89.5599C497.299 89.6307 497.392 89.6863 497.455 89.7242C497.487 89.7432 497.511 89.7577 497.527 89.7676C497.536 89.7725 497.542 89.7762 497.546 89.7787C497.548 89.78 497.55 89.7809 497.551 89.7816C497.551 89.7819 497.552 89.7821 497.552 89.7823C497.552 89.7824 497.552 89.7824 497.552 89.7825C497.552 89.7825 497.552 89.7826 497.295 90.2111ZM504.47 74.5087C504.438 74.5421 504.371 74.6307 504.269 74.8005C504.171 74.9622 504.057 75.1725 503.926 75.428C503.666 75.9383 503.353 76.6082 503.008 77.3856C502.318 78.9393 501.505 80.9012 500.727 82.8296C499.949 84.7571 499.208 86.647 498.661 88.0554C498.388 88.7596 498.163 89.3431 498.006 89.7506C497.928 89.9543 497.867 90.114 497.826 90.2227C497.805 90.2771 497.789 90.3187 497.778 90.3467C497.773 90.3607 497.769 90.3713 497.766 90.3783C497.765 90.3819 497.764 90.3845 497.763 90.3863C497.763 90.3872 497.763 90.3879 497.762 90.3883C497.762 90.3885 497.762 90.3887 497.762 90.3888C497.762 90.3889 497.762 90.3889 497.295 90.2111C496.828 90.0333 496.828 90.0333 496.828 90.0331C496.828 90.033 496.828 90.0328 496.828 90.0326C496.828 90.0321 496.828 90.0314 496.829 90.0305C496.829 90.0287 496.83 90.026 496.832 90.0224C496.834 90.0152 496.839 90.0045 496.844 89.9904C496.855 89.9622 496.871 89.9204 496.891 89.8658C496.933 89.7566 496.994 89.5964 497.073 89.3922C497.23 88.9837 497.455 88.3989 497.729 87.6934C498.277 86.2826 499.02 84.3883 499.8 82.4555C500.579 80.5236 501.397 78.5491 502.094 76.9796C502.442 76.1954 502.763 75.5069 503.035 74.9734C503.171 74.7068 503.298 74.4738 503.412 74.2846C503.521 74.1036 503.635 73.9337 503.75 73.8151L504.47 74.5087ZM505.416 74.1517C505.056 74.1634 504.711 74.2998 504.44 74.5378L503.78 73.786C504.225 73.3955 504.792 73.1715 505.384 73.1522L505.416 74.1517ZM506.416 74.4735C506.129 74.2536 505.776 74.14 505.416 74.1517L505.384 73.1522C505.975 73.133 506.555 73.3198 507.025 73.6806L506.416 74.4735ZM506.645 76.6251C506.759 76.1811 506.833 75.7155 506.802 75.3139C506.771 74.9158 506.645 74.644 506.422 74.4785L507.018 73.6756C507.557 74.0758 507.756 74.6736 507.799 75.2371C507.842 75.797 507.739 76.3848 507.614 76.874L506.645 76.6251ZM502.313 93.5942L506.645 76.6259L507.614 76.8733L503.282 93.8416L502.313 93.5942Z" fill="#263238" mask="url(#path-85-inside-1_927_443)"/>
<path d="M521.592 197.479C521.592 197.479 521.07 197.79 519.969 198.144C518.36 198.65 516.657 198.785 514.988 198.54C512.307 198.157 509.796 196.997 507.764 195.203C505.079 192.761 502.81 189.895 501.048 186.718C500.01 184.851 499.137 182.897 498.438 180.879C497.704 178.657 497.096 176.396 496.617 174.105C495.517 169.34 494.318 164.207 493.048 158.749C490.508 147.847 487.658 135.658 484.582 122.522V122.423H484.511C483.538 121.461 482.564 120.485 481.591 119.467C481.111 118.958 480.631 118.449 480.18 117.926C479.954 117.657 479.714 117.389 479.531 117.12C479.388 116.854 479.306 116.559 479.291 116.258C478.91 113.429 478.613 110.502 478.303 107.547V107.363L478.134 107.278L475.439 105.765C475.241 105.638 474.931 105.497 474.804 105.384C474.669 105.261 474.579 105.097 474.55 104.917C474.484 104.448 474.484 103.972 474.55 103.503C474.686 102.466 474.899 101.44 475.185 100.435C475.665 99.5549 476.47 98.8997 477.428 98.6104L477.668 98.5256V98.2852C477.668 97.4651 477.753 96.6167 477.851 95.7824C477.89 95.3646 477.951 94.9492 478.035 94.5381C478.068 94.3569 478.125 94.1809 478.204 94.0149C478.204 93.9159 478.204 94.0149 478.289 93.93C478.366 93.8897 478.446 93.8566 478.529 93.831C480.226 93.4605 481.956 93.2662 483.693 93.2513H484.06V92.8837C484.06 92.007 484.06 91.0313 484.06 90.0556C484.118 89.7228 484.233 89.4024 484.398 89.1082C484.54 88.7688 484.709 88.4436 484.878 88.1042C485.208 87.4493 485.596 86.8247 486.035 86.2377C486.235 85.9642 486.478 85.7253 486.755 85.5307C486.857 85.444 486.983 85.3897 487.116 85.3746C487.249 85.3595 487.383 85.3843 487.503 85.4459C488.185 85.7079 488.85 86.015 489.492 86.365C492.116 87.779 494.684 89.193 497.196 90.7202L497.563 90.9464L497.718 90.5505C499.044 87.1993 500.371 83.8904 501.669 80.6523C502.318 79.0262 502.953 77.4001 503.602 75.8022C503.702 75.4442 503.901 75.1218 504.175 74.8717C504.45 74.6216 504.789 74.454 505.154 74.3882C505.491 74.276 505.856 74.2821 506.19 74.4054C506.523 74.5288 506.805 74.762 506.988 75.0669C507.164 75.3703 507.238 75.7221 507.2 76.0709C507.2 76.3819 507.002 76.8627 506.918 77.2445C506.692 78.0646 506.48 78.8706 506.269 79.6766C505.845 81.3028 505.436 82.9006 505.013 84.4843C504.185 87.6706 503.371 90.7814 502.572 93.8169V93.9159C502.854 99.7228 503.122 105.285 503.376 110.601V110.573L516.23 152.485L519.856 164.151C520.28 165.466 520.604 166.498 520.83 167.219C521.056 167.94 521.197 168.251 521.197 168.251C521.197 168.251 521.126 167.884 520.929 167.191L520.04 164.094C519.221 161.365 518.05 157.42 516.569 152.386C513.521 142.261 509.189 127.81 503.955 110.389V110.46C503.71 105.162 503.461 99.6003 503.207 93.7745V93.8735C504.011 90.8333 504.843 87.7225 505.676 84.555L506.946 79.7473C507.157 78.9413 507.369 78.1212 507.595 77.3152C507.716 76.8918 507.815 76.4623 507.891 76.0284C507.943 75.5376 507.84 75.0428 507.595 74.6144C507.334 74.1733 506.931 73.8343 506.452 73.6529C505.978 73.514 505.477 73.4982 504.996 73.6071C504.515 73.7159 504.069 73.9458 503.701 74.2751C503.346 74.608 503.084 75.0268 502.939 75.4911L501.006 80.3412C499.693 83.5935 498.381 86.9023 497.041 90.2394L497.563 90.0556C495.037 88.5567 492.497 87.0579 489.817 85.658C489.139 85.303 488.442 84.9867 487.728 84.7106C487.505 84.6177 487.263 84.5836 487.023 84.6116C486.781 84.6465 486.55 84.7334 486.346 84.8661C486.006 85.1104 485.706 85.4062 485.457 85.7428C484.985 86.3616 484.574 87.0245 484.229 87.7224C484.046 88.0759 483.876 88.4153 483.721 88.7688C483.52 89.1432 483.387 89.55 483.326 89.9707C483.326 90.9747 483.326 91.908 483.326 92.7988L483.679 92.417C481.865 92.4292 480.058 92.6378 478.289 93.0392C478.167 93.0817 478.049 93.1337 477.936 93.1947C477.781 93.2794 477.654 93.407 477.569 93.5624C477.46 93.7919 477.379 94.0341 477.329 94.2835C477.245 94.736 477.188 95.1602 477.132 95.5986C477.047 96.4611 476.991 97.3096 476.948 98.158L477.202 97.8186C476.625 97.9882 476.089 98.2738 475.626 98.6579C475.162 99.042 474.782 99.5166 474.507 100.053C474.198 101.127 473.972 102.224 473.83 103.333C473.732 103.899 473.732 104.478 473.83 105.044C473.892 105.387 474.071 105.698 474.338 105.921C474.57 106.076 474.81 106.218 475.058 106.345L477.739 107.745L477.555 107.476C477.88 110.432 478.176 113.33 478.571 116.201L478.656 116.752C478.688 116.976 478.781 117.186 478.924 117.36C479.132 117.67 479.363 117.963 479.615 118.237C480.095 118.774 480.575 119.298 481.026 119.807C482 120.825 482.973 121.8 483.961 122.762L483.862 122.592C486.966 135.715 489.845 147.903 492.427 158.806C493.711 164.25 494.938 169.383 496.067 174.134C496.55 176.441 497.172 178.717 497.93 180.949C498.656 182.987 499.553 184.96 500.611 186.846C502.413 190.063 504.735 192.958 507.482 195.415C509.575 197.22 512.151 198.371 514.89 198.724C516.595 198.953 518.329 198.779 519.955 198.215C520.369 198.062 520.77 197.878 521.154 197.663L521.592 197.479Z" fill="#263238"/>
<path d="M483.637 92.6857C483.637 92.7846 484.117 92.8412 484.865 92.8695C485.815 92.8876 486.76 93.0013 487.687 93.2088C488.582 93.4292 489.406 93.8717 490.086 94.4956C490.594 94.9764 490.819 95.3864 490.932 95.344C491.045 95.3016 490.932 94.7926 490.467 94.1421C489.809 93.3187 488.895 92.7409 487.87 92.5018C486.883 92.2579 485.857 92.2098 484.851 92.3604C484.089 92.4594 483.637 92.5867 483.637 92.6857Z" fill="#263238"/>
<path d="M487.728 92.8413C487.912 92.7706 487.926 92.3322 487.728 91.8656C487.531 91.399 487.248 91.0737 487.065 91.1444C486.882 91.2151 486.853 91.6535 487.065 92.1201C487.277 92.5867 487.587 92.912 487.728 92.8413Z" fill="#263238"/>
<path d="M477.034 97.9741C478.404 98.3988 479.834 98.5947 481.267 98.5539C481.718 98.5388 482.166 98.6324 482.574 98.8268C482.981 99.0211 483.336 99.3106 483.609 99.671C483.976 100.251 483.849 100.732 483.962 100.76C484.075 100.788 484.413 100.293 484.06 99.4447C483.866 98.9671 483.512 98.5721 483.059 98.3277C482.536 98.0404 481.959 97.867 481.365 97.8186C479.925 97.5975 478.455 97.6503 477.034 97.9741Z" fill="#263238"/>
<path d="M477.966 103.065C477.768 103.065 477.655 104.111 477.712 105.398C477.768 106.684 477.98 107.703 478.177 107.703C478.375 107.703 478.502 106.642 478.446 105.355C478.389 104.069 478.177 103.05 477.966 103.065Z" fill="#263238"/>
<path d="M472.107 141.144L470.852 136.817C470.794 136.619 470.686 136.44 470.538 136.296C470.391 136.153 470.208 136.05 470.009 135.999C469.809 135.947 469.6 135.949 469.402 136.003C469.203 136.057 469.022 136.163 468.876 136.308L467.225 137.991L466.21 133.904C466.15 133.668 466.019 133.456 465.835 133.297C465.651 133.138 465.423 133.04 465.181 133.015C464.939 132.99 464.696 133.041 464.483 133.159C464.271 133.278 464.1 133.459 463.994 133.678L461.694 138.514L472.107 141.144Z" fill="white"/>
<path d="M461.668 140.367C463.246 141.131 464.922 141.674 466.648 141.979C468.318 142.525 470.057 142.83 471.812 142.884C468.564 141.576 465.15 140.729 461.668 140.367Z" fill="white"/>
<path d="M545.579 116.229C545.579 116.229 546.101 116.767 546.835 117.912C547.82 119.543 548.468 121.356 548.74 123.243C549.142 126.052 549.227 128.898 548.994 131.727C548.839 134.937 548.585 138.444 548.189 142.12C547.521 148.399 546.527 154.638 545.212 160.814C544.718 163.189 544.267 165.056 543.957 166.47C543.815 167.064 543.688 167.558 543.59 167.983C543.491 168.407 543.477 168.52 543.477 168.52C543.477 168.52 543.547 168.35 543.646 168.011C543.745 167.672 543.9 167.078 544.055 166.498C544.408 165.183 544.888 163.288 545.466 160.913C546.838 154.739 547.86 148.494 548.528 142.205C548.923 138.528 549.163 135.008 549.304 131.798C549.518 128.967 549.414 126.121 548.994 123.314C548.691 121.402 547.999 119.573 546.962 117.94C546.58 117.31 546.115 116.735 545.579 116.229Z" fill="white"/>
<path d="M515.877 96.9702L516.202 97.1399L517.133 97.5924C517.937 97.9741 519.108 98.5397 520.505 99.3174C524.146 101.353 527.683 103.571 531.101 105.963C535.137 108.791 538.707 111.365 541.317 113.231L544.407 115.423L545.268 116.003C545.364 116.08 545.468 116.146 545.578 116.201C545.498 116.106 545.402 116.025 545.296 115.961L544.478 115.338L541.444 113.062C538.862 111.153 535.306 108.495 531.271 105.723C527.846 103.32 524.284 101.12 520.604 99.1336C519.193 98.3842 518.008 97.8469 517.175 97.4934L516.23 97.0974C515.948 96.9985 515.948 96.956 515.877 96.9702Z" fill="white"/>
<path d="M448.588 106.175C448.677 106.126 448.757 106.064 448.828 105.992L449.463 105.44C450.249 104.775 451.074 104.156 451.932 103.588C454.796 101.758 457.836 100.218 461.005 98.9922C464.164 97.7381 467.391 96.6617 470.67 95.7683C471.94 95.4147 472.956 95.1602 473.675 94.9905L474.48 94.7784C474.578 94.7581 474.672 94.7248 474.762 94.6794H474.465L473.647 94.835C472.927 94.9764 471.897 95.2026 470.628 95.5279C467.317 96.3653 464.065 97.4187 460.892 98.6811C457.704 99.9067 454.662 101.481 451.819 103.376C450.636 104.178 449.552 105.118 448.588 106.175Z" fill="white"/>
<path d="M515.483 214.108C515.674 214.074 515.86 214.012 516.033 213.924C516.523 213.709 516.995 213.453 517.444 213.161C518.204 212.704 518.867 212.102 519.395 211.389C519.923 210.676 520.305 209.865 520.52 209.004C520.907 207.265 520.714 205.446 519.97 203.828C519.755 203.326 519.48 202.851 519.151 202.414C518.926 202.117 518.77 201.976 518.756 201.99C519.141 202.593 519.485 203.221 519.786 203.871C520.442 205.459 520.595 207.212 520.224 208.89C519.819 210.548 518.813 211.995 517.402 212.949C516.231 213.797 515.455 214.052 515.483 214.108Z" fill="white"/>
<path d="M519.969 198.794C519.669 199.355 519.446 199.955 519.306 200.576C519.085 201.171 518.952 201.795 518.911 202.428C519.231 201.88 519.46 201.283 519.588 200.661C519.819 200.065 519.948 199.433 519.969 198.794Z" fill="white"/>
<path d="M500.892 515.833L457.857 515.621L458.634 366.512L459.043 214.829L517.358 214.08L527.842 233.876C532.131 241.835 534.866 250.541 535.899 259.527C536.604 266.399 531.468 288.74 529.69 294.397L513.648 345.386L500.892 515.833Z" fill="#263238"/>
<path d="M446.416 215.013L399.12 344.213C396.317 352.537 395.387 361.38 396.394 370.107C397.402 378.834 400.322 387.23 404.947 394.694L459.862 502.16L490.734 463.444L444.793 367.29L485.288 301.467L478.473 215.211L459.397 214.9L446.416 215.013Z" fill="#263238"/>
<path d="M462.965 258.297C462.965 258.297 462.965 258.523 462.965 258.961C462.965 259.4 462.894 260.078 462.838 260.913C462.739 262.652 462.612 265.155 462.443 268.393C462.118 274.94 461.667 284.343 461.032 295.952C460.397 307.561 459.861 321.405 459.155 336.818C458.817 344.51 458.45 352.584 458.083 360.955C457.815 365.197 457.928 369.439 457.885 373.681C457.843 377.923 457.885 382.392 457.885 386.832C457.885 422.366 457.772 454.535 457.73 477.853C457.73 489.476 457.73 498.893 457.73 505.44C457.73 508.678 457.73 511.195 457.73 512.949C457.73 513.769 457.73 514.363 457.73 514.9C457.73 515.437 457.73 515.565 457.73 515.565C457.73 515.565 457.73 515.338 457.73 514.9V512.949C457.73 511.195 457.73 508.707 457.815 505.44C457.815 498.893 457.928 489.49 458.012 477.867C458.111 454.549 458.238 422.38 458.379 386.846C458.379 382.406 458.379 378.022 458.379 373.695C458.379 369.368 458.294 365.098 458.563 360.969C458.915 352.612 459.268 344.538 459.593 336.846C460.242 321.461 460.834 307.618 461.314 295.966C461.794 284.315 462.146 274.954 462.415 268.407C462.527 265.183 462.612 262.666 462.669 260.913C462.669 260.078 462.669 259.499 462.669 258.961C462.669 258.424 462.965 258.297 462.965 258.297Z" fill="#455A64"/>
<path d="M464.051 217.558C463.886 218.013 463.786 218.489 463.754 218.972C463.599 219.877 463.43 221.192 463.232 222.833C462.865 226.099 462.47 230.638 462.245 235.658C462.019 240.678 462.005 245.231 462.075 248.526C462.075 250.166 462.174 251.509 462.245 252.428C462.23 252.905 462.287 253.382 462.414 253.842C462.592 252.076 462.653 250.3 462.597 248.526C462.597 245.231 462.753 240.706 462.978 235.686C463.204 230.666 463.515 226.156 463.754 222.96C463.955 221.166 464.054 219.363 464.051 217.558Z" fill="#455A64"/>
<path d="M473.534 220.471C473.463 220.57 474.267 220.938 474.493 222.083C474.556 222.394 474.539 222.716 474.443 223.018C474.346 223.32 474.174 223.592 473.943 223.808C473.664 224.069 473.316 224.243 472.94 224.311C472.565 224.378 472.178 224.336 471.826 224.19C471.488 224.016 471.206 223.749 471.011 223.422C470.817 223.094 470.718 222.719 470.726 222.338C470.739 222.021 470.832 221.713 470.998 221.444C471.163 221.174 471.395 220.951 471.671 220.796C472.245 220.518 472.885 220.405 473.519 220.471C473.519 220.471 473.378 220.287 473.012 220.174C472.482 220.045 471.925 220.1 471.431 220.33C471.037 220.494 470.697 220.765 470.447 221.112C470.198 221.459 470.05 221.869 470.02 222.295C469.964 222.822 470.074 223.353 470.335 223.813C470.596 224.273 470.994 224.64 471.474 224.862C471.954 225.084 472.491 225.149 473.01 225.049C473.529 224.949 474.003 224.688 474.366 224.303C474.666 224.004 474.879 223.629 474.981 223.218C475.083 222.806 475.07 222.375 474.945 221.97C474.803 221.441 474.484 220.977 474.041 220.655C473.759 220.457 473.548 220.429 473.534 220.471Z" fill="#455A64"/>
<path d="M496.109 217.912C495.901 218.358 495.773 218.836 495.728 219.326C495.501 220.595 495.458 221.891 495.601 223.172C495.804 225.08 496.354 226.935 497.224 228.644C498.275 230.771 499.83 232.606 501.754 233.989C503.678 235.372 505.911 236.261 508.258 236.577C510.136 236.858 512.05 236.786 513.902 236.365C515.155 236.092 516.362 235.64 517.486 235.022C517.91 234.82 518.301 234.553 518.643 234.23C517.083 234.933 515.457 235.478 513.789 235.856C511.782 236.274 509.71 236.271 507.705 235.846C505.7 235.422 503.804 234.585 502.137 233.389C500.47 232.193 499.069 230.664 498.022 228.898C496.975 227.132 496.304 225.168 496.053 223.13C495.887 221.393 495.906 219.644 496.109 217.912Z" fill="#455A64"/>
<path d="M440.741 230.299C441.662 230.405 442.595 230.294 443.464 229.974C445.596 229.301 447.51 228.071 449.01 226.41C450.523 224.757 451.561 222.725 452.015 220.528C452.237 219.632 452.237 218.695 452.015 217.799C451.888 217.799 451.874 218.831 451.451 220.415C450.879 222.461 449.839 224.346 448.413 225.919C446.988 227.493 445.216 228.711 443.239 229.479C441.771 230.058 440.727 230.157 440.741 230.299Z" fill="#455A64"/>
<path d="M423.938 369.581C424.646 370.389 425.491 371.064 426.436 371.574C427.426 372.204 428.506 372.681 429.639 372.988C431.064 373.367 432.567 373.327 433.97 372.875C436.435 371.944 438.547 370.263 440.009 368.067C440.681 367.243 441.237 366.329 441.66 365.353C440.899 366.081 440.209 366.881 439.6 367.742C438.102 369.733 436.079 371.266 433.759 372.168C432.574 372.485 431.338 372.557 430.125 372.379C428.912 372.202 427.748 371.779 426.704 371.136C425.812 370.565 424.889 370.046 423.938 369.581Z" fill="#455A64"/>
<path d="M434.719 377.824C436.386 376.094 437.875 374.199 439.163 372.168C440.647 370.278 441.942 368.246 443.029 366.102C441.35 367.827 439.856 369.722 438.571 371.758C437.075 373.637 435.784 375.671 434.719 377.824Z" fill="#455A64"/>
<path d="M507.016 263.288C507.213 263.359 507.707 262.553 508.144 261.464C508.582 260.375 508.765 259.456 508.582 259.371C508.398 259.286 507.89 260.107 507.467 261.195C507.044 262.284 506.832 263.288 507.016 263.288Z" fill="#FAFAFA"/>
<path d="M479.7 267.219C479.911 267.219 480.066 266.526 480.066 265.664C480.066 264.801 479.911 264.094 479.7 264.094C479.488 264.094 479.333 264.801 479.333 265.664C479.333 266.526 479.502 267.219 479.7 267.219Z" fill="#FAFAFA"/>
<path d="M490.931 282.095C491.129 282.095 491.354 281.246 491.425 280.157C491.495 279.069 491.425 278.192 491.199 278.178C490.973 278.164 490.762 279.026 490.691 280.115C490.621 281.204 490.734 282.08 490.931 282.095Z" fill="#FAFAFA"/>
<path d="M511.444 292.983C511.614 293.11 512.192 292.587 512.954 292.049C513.716 291.512 514.365 291.102 514.365 290.904C514.365 290.706 513.434 290.819 512.573 291.441C511.713 292.064 511.275 292.983 511.444 292.983Z" fill="#FAFAFA"/>
<path d="M475.284 306.854C475.453 306.741 475.284 306.133 474.804 305.44C474.324 304.747 473.887 304.351 473.718 304.464C473.548 304.578 473.718 305.2 474.197 305.878C474.677 306.557 475.114 306.967 475.284 306.854Z" fill="#FAFAFA"/>
<path d="M497.606 310.771C497.803 310.771 497.973 309.597 497.973 308.169C497.973 306.741 497.803 305.553 497.606 305.553C497.408 305.553 497.239 306.727 497.239 308.169C497.239 309.612 497.451 310.771 497.606 310.771Z" fill="#FAFAFA"/>
<path d="M504.914 326.636C505.027 326.792 505.76 326.467 506.551 325.887C507.341 325.307 507.962 324.713 507.778 324.544C507.595 324.374 506.917 324.713 506.127 325.293C505.337 325.873 504.787 326.467 504.914 326.636Z" fill="#FAFAFA"/>
<path d="M482.312 332.151C482.227 332.335 482.679 332.717 483.328 333.014C483.977 333.311 484.569 333.381 484.654 333.198C484.739 333.014 484.273 332.632 483.624 332.335C482.975 332.038 482.382 331.967 482.312 332.151Z" fill="#FAFAFA"/>
<path d="M497.604 358.028C497.773 358.113 498.507 357.024 499.227 355.582C499.946 354.139 500.384 352.895 500.2 352.754C500.017 352.612 499.283 353.757 498.578 355.2C497.872 356.642 497.477 357.872 497.604 358.028Z" fill="#FAFAFA"/>
<path d="M472.671 355.624C472.855 355.525 472.53 354.578 471.966 353.489C471.401 352.4 470.766 351.608 470.555 351.707C470.343 351.806 470.696 352.754 471.274 353.842C471.853 354.931 472.502 355.723 472.671 355.624Z" fill="#FAFAFA"/>
<path d="M483.608 377.527C483.819 377.527 483.791 376.382 484.017 375.053C484.243 373.724 484.581 372.663 484.384 372.564C484.186 372.465 483.509 373.469 483.283 374.94C483.058 376.41 483.41 377.57 483.608 377.527Z" fill="#FAFAFA"/>
<path d="M495.319 390.042C495.46 390.183 496.166 389.646 496.885 388.854C497.605 388.062 498.071 387.312 497.915 387.171C497.76 387.03 497.069 387.567 496.349 388.359C495.63 389.151 495.164 389.9 495.319 390.042Z" fill="#FAFAFA"/>
<path d="M466.903 394.793C467.044 394.651 466.522 393.888 465.732 393.082C464.942 392.276 464.208 391.752 464.053 391.894C463.897 392.035 464.434 392.813 465.21 393.605C465.986 394.397 466.748 394.934 466.903 394.793Z" fill="#FAFAFA"/>
<path d="M483.241 413.528C483.438 413.528 483.438 412.411 483.241 411.111C483.043 409.81 482.733 408.792 482.521 408.82C482.309 408.848 482.323 409.923 482.521 411.224C482.718 412.525 483.043 413.557 483.241 413.528Z" fill="#FAFAFA"/>
<path d="M494.231 422.621C494.414 422.72 495.035 421.984 495.642 420.98C496.249 419.976 496.559 419.086 496.39 418.987C496.22 418.888 495.6 419.609 494.979 420.613C494.358 421.617 494.062 422.508 494.231 422.621Z" fill="#FAFAFA"/>
<path d="M467.748 434.088C467.621 434.258 468.34 434.979 469.356 435.7C470.372 436.422 471.261 436.874 471.388 436.704C471.515 436.535 470.781 435.814 469.78 435.092C468.778 434.371 467.861 433.933 467.748 434.088Z" fill="#FAFAFA"/>
<path d="M489.814 448.978C490.012 448.908 489.814 447.776 489.631 446.362C489.447 444.948 489.56 443.789 489.349 443.761C489.137 443.732 488.77 444.92 488.911 446.433C489.052 447.946 489.631 449.063 489.814 448.978Z" fill="#FAFAFA"/>
<path d="M480.998 470.358C481.167 470.485 481.76 470.005 482.339 469.284C482.917 468.562 483.242 467.869 483.086 467.742C482.931 467.615 482.339 468.096 481.76 468.817C481.181 469.538 480.843 470.231 480.998 470.358Z" fill="#FAFAFA"/>
<path d="M490.635 484.696C490.804 484.81 491.58 483.975 492.37 482.816C493.16 481.656 493.654 480.638 493.499 480.525C493.344 480.412 492.554 481.246 491.763 482.406C490.973 483.565 490.465 484.583 490.635 484.696Z" fill="#FAFAFA"/>
<path d="M464.094 466.696C464.278 466.625 464.264 466.102 464.094 465.536C463.925 464.971 463.544 464.547 463.346 464.617C463.149 464.688 463.177 465.211 463.346 465.791C463.516 466.371 463.897 466.781 464.094 466.696Z" fill="#FAFAFA"/>
<path d="M475.807 500.845C475.99 500.746 475.637 499.742 475.355 498.483C475.073 497.225 474.974 496.164 474.763 496.15C474.551 496.136 474.339 497.281 474.636 498.639C474.932 499.996 475.637 500.958 475.807 500.845Z" fill="#FAFAFA"/>
<path d="M468.186 282.321C468.369 282.406 468.821 281.84 469.188 281.048C469.554 280.256 469.71 279.549 469.526 279.465C469.343 279.38 468.891 279.945 468.524 280.737C468.158 281.529 467.974 282.236 468.186 282.321Z" fill="#FAFAFA"/>
<path d="M487.728 238.288C487.615 238.458 488.603 239.25 489.661 240.381C490.719 241.512 491.439 242.559 491.622 242.46C491.805 242.361 491.326 241.046 490.211 239.886C489.096 238.727 487.869 238.104 487.728 238.288Z" fill="#FAFAFA"/>
<path d="M470.33 237.836C470.542 237.836 470.867 237.03 471.36 236.068C471.854 235.106 472.306 234.315 472.151 234.173C471.995 234.032 471.233 234.654 470.74 235.729C470.246 236.803 470.147 237.722 470.33 237.836Z" fill="#FAFAFA"/>
<path d="M524.654 252.131C524.837 252.046 524.654 251.113 524.217 250.039C523.779 248.964 523.299 248.13 523.102 248.214C522.904 248.299 523.102 249.218 523.539 250.307C523.977 251.396 524.414 252.202 524.654 252.131Z" fill="#FAFAFA"/>
<path d="M522.89 273.483C523.031 273.639 523.836 273.186 524.696 272.465C525.557 271.744 526.107 271.051 526.023 270.881C525.938 270.712 525.077 271.178 524.217 271.899C523.356 272.621 522.763 273.328 522.89 273.483Z" fill="#FAFAFA"/>
<path d="M487.249 221.334C487.433 221.334 487.828 220.881 488.11 220.16C488.392 219.439 488.477 218.746 488.293 218.746C488.11 218.746 487.715 219.199 487.433 219.92C487.151 220.641 487.066 221.263 487.249 221.334Z" fill="#FAFAFA"/>
<path d="M453.119 231.769C453.316 231.769 453.302 230.879 453.119 229.875C452.935 228.871 452.569 228.079 452.371 228.121C452.173 228.164 452.188 229.026 452.371 230.03C452.554 231.034 452.921 231.812 453.119 231.769Z" fill="#FAFAFA"/>
<path d="M445.103 247.932C445.286 247.847 445.032 246.8 444.524 245.57C444.016 244.34 443.466 243.421 443.282 243.492C443.099 243.562 443.282 244.623 443.847 245.853C444.411 247.083 444.905 248.002 445.103 247.932Z" fill="#FAFAFA"/>
<path d="M450.816 260.969C450.999 261.054 451.676 260.078 452.325 258.791C452.974 257.505 453.341 256.359 453.158 256.274C452.974 256.19 452.311 257.165 451.662 258.452C451.013 259.739 450.632 260.87 450.816 260.969Z" fill="#FAFAFA"/>
<path d="M438.597 274.006C438.78 273.936 438.597 273.116 438.286 272.182C437.976 271.249 437.482 270.542 437.285 270.613C437.087 270.683 437.285 271.504 437.595 272.437C437.905 273.37 438.343 274.077 438.597 274.006Z" fill="#FAFAFA"/>
<path d="M449.52 286.775C449.689 286.888 450.126 286.506 450.479 285.941C450.832 285.375 451.001 284.81 450.818 284.696C450.634 284.583 450.225 284.965 449.858 285.545C449.491 286.125 449.35 286.676 449.52 286.775Z" fill="#FAFAFA"/>
<path d="M447.19 313.132C447.331 313.26 448.22 312.567 449.152 311.549C450.083 310.531 450.718 309.612 450.563 309.47C450.407 309.329 449.533 310.036 448.601 311.054C447.67 312.072 447.035 312.991 447.19 313.132Z" fill="#FAFAFA"/>
<path d="M432.87 297.988C433.025 298.116 433.801 297.409 434.591 296.39C435.381 295.372 435.889 294.467 435.734 294.34C435.579 294.213 434.803 294.934 434.012 295.938C433.222 296.942 432.7 297.875 432.87 297.988Z" fill="#FAFAFA"/>
<path d="M425.011 318.874C425.195 318.789 424.87 317.728 424.292 316.512C423.713 315.296 423.106 314.363 422.881 314.448C422.655 314.532 423.008 315.607 423.586 316.823C424.165 318.039 424.828 318.973 425.011 318.874Z" fill="#FAFAFA"/>
<path d="M441.717 336.068C441.901 336.167 442.55 335.389 443.453 334.555C444.356 333.721 445.188 333.141 445.103 332.929C445.019 332.717 443.946 333.099 442.959 334.018C441.971 334.937 441.548 335.969 441.717 336.068Z" fill="#FAFAFA"/>
<path d="M440.673 353.786C440.673 353.984 441.378 354.154 442.239 354.154C443.1 354.154 443.791 353.984 443.791 353.786C443.791 353.588 443.1 353.418 442.239 353.418C441.378 353.418 440.673 353.588 440.673 353.786Z" fill="#FAFAFA"/>
<path d="M423.501 348.837C423.685 348.738 423.318 347.847 423.05 346.744C422.782 345.641 422.669 344.679 422.457 344.665C422.246 344.651 422.02 345.683 422.33 346.914C422.641 348.144 423.346 348.95 423.501 348.837Z" fill="#FAFAFA"/>
<path d="M406.442 354.79C406.625 354.86 407.147 353.856 407.599 352.57C408.05 351.283 408.262 350.18 408.079 350.123C407.895 350.067 407.359 351.043 406.907 352.329C406.456 353.616 406.244 354.719 406.442 354.79Z" fill="#FAFAFA"/>
<path d="M409.165 379.111C409.334 379.012 408.897 377.824 408.191 376.453C407.486 375.081 406.78 374.049 406.569 374.148C406.357 374.247 406.823 375.435 407.542 376.792C408.262 378.15 408.981 379.238 409.165 379.111Z" fill="#FAFAFA"/>
<path d="M424.73 393.379C424.913 393.449 425.491 392.474 426.028 391.187C426.564 389.9 426.832 388.797 426.634 388.712C426.437 388.628 425.872 389.617 425.35 390.904C424.828 392.191 424.546 393.379 424.73 393.379Z" fill="#FAFAFA"/>
<path d="M441.97 398.907C441.97 399.105 442.562 399.275 443.282 399.275C444.002 399.275 444.58 399.105 444.58 398.907C444.58 398.709 443.987 398.54 443.282 398.54C442.576 398.54 441.97 398.709 441.97 398.907Z" fill="#FAFAFA"/>
<path d="M432.094 421.659C432.278 421.659 432.673 420.881 432.969 419.807C433.265 418.732 433.322 417.799 433.124 417.756C432.927 417.714 432.546 418.534 432.249 419.609C431.953 420.683 431.897 421.546 432.094 421.659Z" fill="#FAFAFA"/>
<path d="M444.58 414.023C444.75 413.924 444.58 413.26 444.115 412.539C443.649 411.817 443.183 411.323 443.014 411.422C442.845 411.521 443.014 412.199 443.48 412.92C443.945 413.642 444.397 414.136 444.58 414.023Z" fill="#FAFAFA"/>
<path d="M444.835 439.066C445.033 439.066 445.315 438.118 445.456 436.888C445.597 435.658 445.555 434.654 445.357 434.626C445.16 434.598 444.877 435.573 444.736 436.803C444.595 438.034 444.638 439.038 444.835 439.066Z" fill="#FAFAFA"/>
</g>
<defs>
<clipPath id="clip0_927_443">
<rect width="625" height="556" fill="white"/>
</clipPath>
</defs>
</svg>
