<svg width="158" height="70" viewBox="0 0 158 70" fill="none" xmlns="http://www.w3.org/2000/svg">
<g clip-path="url(#clip0_967_604)">
<path d="M68.9171 38.2112C68.788 35.1105 66.5273 32.5586 62.8772 29.684C59.8087 27.1968 51.2167 20.1553 51.2167 20.1553C53.607 18.2494 54.1559 17.6035 55.9969 16.15C61.5849 11.6925 60.8421 7.42882 60.2932 5.8138C59.2269 2.80984 56.126 0.774902 52.5731 0.774902H37.8118H31.9977H12.8434C7.1909 0.774902 2.41038 3.97266 0.666161 8.91465C-1.20728 14.2766 0.92456 20.1229 6.38335 24.5158C8.80592 26.4539 13.1665 29.9424 17.6885 33.56C16.0735 34.0122 14.4262 34.852 12.9081 36.3056C10.7762 38.3405 9.67801 41.1183 9.80724 44.1546C9.96871 47.9662 12.036 51.6806 15.6537 54.5554L34.9048 69.9628L64.5567 46.1894C67.5607 43.7347 69.0462 41.0537 68.9171 38.2112ZM37.8118 6.589H52.5731C53.6393 6.589 54.5759 7.07352 54.802 7.71953C55.0602 8.39783 54.5435 9.8514 52.3792 11.5956C48.4064 14.7611 42.1402 19.7999 37.8118 23.2561V6.589ZM10.001 19.9292C6.54489 17.1513 5.09133 13.7274 6.12495 10.7881C7.02936 8.20404 9.64569 6.55669 12.8112 6.55669H31.9655V37.4683C25.6021 32.3971 14.4908 23.5145 10.001 19.9292ZM19.3035 49.9364C17.0426 48.1276 15.7182 45.8988 15.6213 43.8317C15.5568 42.5073 16.0089 41.3121 16.9457 40.4401C20.2726 37.3391 23.6641 38.2112 27.1526 41.0214C28.3479 41.9582 30.738 43.8638 31.9977 44.8974V60.1112L19.3035 49.9364ZM60.6161 41.8612L37.7796 60.1112V30.6852C38.6193 30.007 41.0096 28.3272 42.5278 27.0999C45.0472 25.0649 47.9865 24.9034 50.4414 26.8738C54.1238 29.8131 56.8047 32.268 59.6472 34.5936C61.6496 36.241 62.7805 37.5976 62.8127 38.6957C62.8772 39.891 61.4882 41.183 60.6161 41.8612Z" fill="white"/>
<path d="M82.3224 2.99316C85.9403 2.99316 88.3951 4.28518 88.3951 7.09534C88.3951 8.5166 87.1996 9.97008 86.3281 10.7453C88.3628 11.6821 89.4608 13.2001 89.4608 15.0736C89.4608 18.2391 87.5228 20.5647 83.0011 20.5647H78.0265V5.80331L77.6711 3.12237L82.3224 2.99316ZM81.4179 10.0024C83.4534 10.0024 84.0669 10.1316 84.3893 10.164C84.8093 9.55016 85.2293 8.58117 85.2293 7.64446C85.2293 6.06174 84.3893 5.51261 82.4836 5.51261C82.1603 5.51261 81.8056 5.54492 81.4179 5.57723V10.0024ZM81.4179 18.0452H83.0334C84.9383 18.0452 86.0048 16.9794 86.0048 15.2028C86.0048 13.6201 85.0036 12.5219 82.3869 12.5219H81.4179V18.0452Z" fill="white"/>
<path d="M100.636 10.8422C100.636 10.8422 99.8939 10.1316 98.8927 10.1316C97.536 10.1316 95.9212 11.8113 95.9212 13.8462V18.3359L96.2115 20.597H92.691V10.0994L92.3355 7.45065L95.9535 7.06306V9.45332C95.9535 9.45332 97.245 7.03076 99.5062 7.03076C100.314 7.03076 101.056 7.35377 101.671 7.99976L100.636 10.8422Z" fill="white"/>
<path d="M106.903 18.336L107.194 20.5971H103.672V10.0347L103.318 7.38606L106.935 6.99846V18.336H106.903ZM105.256 1.70117C106.192 1.70117 106.999 2.50868 106.999 3.5423C106.999 4.51131 106.192 5.28653 105.256 5.28653C104.254 5.28653 103.414 4.51131 103.414 3.5423C103.414 2.50868 104.254 1.70117 105.256 1.70117Z" fill="white"/>
<path d="M119.759 11.1003C118.791 9.90508 117.498 9.48523 116.562 9.48523C114.301 9.48523 113.332 11.6171 113.332 13.975C113.332 16.1714 114.333 18.2709 116.465 18.2709C118.726 18.2709 120.76 16.1714 120.76 16.1714L121.245 18.8847C121.245 18.8847 119.274 20.9195 115.851 20.9195C111.943 20.9195 110.037 17.5604 110.037 14.2011C110.037 10.3896 112.298 6.99805 116.53 6.99805C119.727 6.99805 121.309 8.74229 121.309 8.74229L119.759 11.1003Z" fill="white"/>
<path d="M127.156 13.3615L130.741 8.80714L131.355 7.38594H135.716L130.419 13.3615L135.974 20.5645H131.937L127.156 13.9429V18.3035L127.446 20.5645H123.926V3.73596L123.57 1.0873L127.188 0.699707V13.3615H127.156Z" fill="white"/>
<path d="M102.414 25.6792V32.9144C102.414 32.9144 103.674 31.9455 105.289 31.9455C108.067 31.9455 110.812 34.1743 110.812 38.6318C110.812 42.5401 108.001 45.867 103.9 45.867C101.703 45.867 99.7327 44.8012 99.1515 43.606V28.7154L98.796 26.0668L102.414 25.6792ZM102.414 42.7661C102.898 43.2184 103.576 43.5091 104.352 43.5091C105.999 43.5091 107.356 41.4741 107.356 38.8579C107.356 36.2415 105.999 34.4327 104.352 34.4327C103.285 34.4327 102.414 35.0464 102.414 35.0464V42.7661Z" fill="white"/>
<path d="M121.793 35.7885C121.793 35.7885 121.05 35.078 120.048 35.078C118.692 35.078 117.077 36.7575 117.077 38.7926V43.2824L117.367 45.5435H113.847V35.0134L113.491 32.3647L117.109 31.9771V34.3674C117.109 34.3674 118.401 31.9448 120.662 31.9448C121.47 31.9448 122.213 32.2678 122.826 32.9138L121.793 35.7885Z" fill="white"/>
<path d="M128.091 43.2827L128.382 45.5438H124.861V34.9815L124.506 32.3329L128.124 31.9451V43.2827H128.091ZM126.412 26.6479C127.349 26.6479 128.156 27.4555 128.156 28.489C128.156 29.458 127.349 30.2334 126.412 30.2334C125.41 30.2334 124.571 29.458 124.571 28.489C124.603 27.4555 125.442 26.6479 126.412 26.6479Z" fill="white"/>
<path d="M140.914 36.047C139.946 34.8519 138.653 34.4319 137.717 34.4319C135.455 34.4319 134.486 36.5639 134.486 38.9219C134.486 41.1181 135.488 43.2177 137.62 43.2177C139.88 43.2177 141.915 41.1181 141.915 41.1181L142.4 43.8315C142.4 43.8315 140.43 45.8664 137.006 45.8664C133.098 45.8664 131.192 42.5071 131.192 39.1479C131.192 35.3364 133.453 31.9448 137.684 31.9448C140.882 31.9448 142.464 33.689 142.464 33.689L140.914 36.047Z" fill="white"/>
<path d="M148.345 38.276L151.93 33.7215L152.543 32.3004H156.904L151.607 38.276L157.163 45.4791H153.125L148.345 38.8575V43.218L148.635 45.4791H145.115V28.6504L144.759 26.0018L148.377 25.6143V38.276H148.345Z" fill="white"/>
<path d="M79.1574 32.6881H81.7411L81.1922 34.3031H79.1252V38.9222C79.1252 39.536 79.4477 39.7297 79.8677 39.7297C80.5134 39.7297 81.4824 39.2451 81.8709 38.9222L82.0966 40.828C82.0966 40.828 81.1277 41.7322 79.2219 41.7322C77.7357 41.7322 76.9929 40.9571 76.9929 38.9222V34.3355H75.9271V32.7205H76.9929V31.1378L79.3187 30.8794L79.1574 32.6881Z" fill="#FFBD27"/>
<path d="M86.7158 41.7001C84.0676 41.7001 82.6786 39.3743 82.6786 37.178C82.6786 34.594 84.3256 32.3975 87.2979 32.3975C89.5906 32.3975 91.3028 33.7864 91.3028 36.855C91.3028 39.4712 89.6228 41.7001 86.7158 41.7001ZM86.9746 40.1496C88.2346 40.1496 88.9771 38.793 88.9771 37.0487C88.9771 35.3045 88.2346 33.9801 86.9746 33.9801C85.7146 33.9801 84.9721 35.3367 84.9721 37.0487C84.9721 38.793 85.7469 40.1496 86.9746 40.1496Z" fill="#FFBD27"/>
<path d="M91.3012 43.8315L90.8812 45.4466H76.4111V43.8315H91.3012Z" fill="#FFBD27"/>
<path d="M37.8111 6.58936H52.5726C53.6383 6.58936 54.5748 7.07383 54.8014 7.71984C55.0599 8.39818 54.5426 9.85166 52.3787 11.5959C48.4057 14.7614 42.1393 19.8002 37.8111 23.2564V6.58936Z" fill="#FFBD27"/>
<path d="M10.0012 19.9291C6.545 17.1512 5.0915 13.7274 6.12511 10.7881C7.02953 8.20405 9.64585 6.55664 12.8113 6.55664H31.9657V37.4684C25.6023 32.3971 14.491 23.5144 10.0012 19.9291Z" fill="#9ECB45"/>
<path d="M19.3034 49.9364C17.0423 48.1275 15.7179 45.8987 15.621 43.8315C15.5565 42.5071 16.0086 41.312 16.9454 40.4399C20.2722 37.339 23.664 38.2113 27.1523 41.0214C28.3475 41.958 30.7377 43.8639 31.9974 44.8974V60.1111L19.3034 49.9364Z" fill="#FFBD27"/>
<path d="M60.6161 41.8613L37.7794 60.1112V30.6853C38.6191 30.0071 41.0095 28.3274 42.5275 27.1001C45.0471 25.065 47.9863 24.9036 50.4412 26.8738C54.1238 29.8132 56.8042 32.2681 59.6467 34.5938C61.6497 36.2411 62.78 37.5977 62.8122 38.6958C62.8768 39.891 61.4882 41.183 60.6161 41.8613Z" fill="#458AFB"/>
<path d="M82.4333 57.3155L82.4663 59.0166H76.3198L76.3613 57.3913L76.3198 53.61H77.1837L77.1418 57.3155L77.1584 58.301H78.9773L79.0025 57.3913L78.9608 53.61H79.8338L79.7921 57.3155L79.8087 58.301H81.6357L81.6523 57.3913L81.6192 53.61H82.4828L82.4333 57.3155ZM84.9218 57.3155L84.9541 59.0166H84.0991L84.14 57.3913L84.0991 53.61H84.9627L84.9218 57.3155ZM85.8766 56.1533C86.5192 57.0294 87.253 57.9221 88.0781 58.8313L88.0694 58.9323C87.8264 59 87.5511 59.0534 87.2475 59.0928L87.139 59.0418C86.2974 57.9977 85.5833 57.0487 84.9965 56.1953V56.1362L86.6576 54.0985L86.9896 53.61H87.9287L85.8766 56.1533ZM90.8954 53.5425C91.6324 53.5425 92.2002 53.7726 92.599 54.2333C92.9978 54.6935 93.1968 55.3505 93.1968 56.2039C93.1968 57.1248 92.9836 57.8378 92.5573 58.343C92.131 58.8425 91.5246 59.0928 90.7381 59.0928C90.0074 59.0928 89.4419 58.8567 89.0439 58.3853C88.6499 57.908 88.4541 57.2343 88.4541 56.3638C88.4541 55.4601 88.6641 54.7637 89.0848 54.2751C89.5119 53.7868 90.1152 53.5425 90.8954 53.5425ZM90.8293 54.25C90.3252 54.25 89.9492 54.4154 89.6999 54.747C89.4561 55.0725 89.3342 55.5777 89.3342 56.2629C89.3342 57.0097 89.4537 57.5568 89.6912 57.905C89.9351 58.2476 90.3087 58.4186 90.8128 58.4186C91.3217 58.4186 91.6992 58.253 91.943 57.9221C92.1861 57.5906 92.308 57.0744 92.308 56.3724C92.308 55.6367 92.1861 55.1008 91.943 54.7636C91.7047 54.4211 91.3335 54.25 90.8293 54.25ZM97.6933 57.3155L97.7176 59.0166H96.8627L96.9036 57.3913L96.8706 54.2751H95.6412L95.5996 54.7047C95.4997 55.8053 95.3841 56.6585 95.2503 57.2651C95.1237 57.8716 94.9601 58.3146 94.7603 58.5959C94.5669 58.8763 94.312 59.0504 93.9966 59.1179L93.7552 59.1348L93.5971 58.4357C93.8637 58.346 94.0714 58.1774 94.2208 57.9302C94.3757 57.6833 94.5 57.3013 94.5944 56.7851C94.6935 56.2685 94.7855 55.5247 94.8681 54.5533L94.9601 53.6269L94.9515 53.61H97.7342L97.6933 57.3155ZM103.312 59.0166H102.431L102.306 58.4106L102.074 57.6608L100.944 57.6354L99.9222 57.6608L99.6737 58.3682L99.54 59.0166H98.6851L100.587 53.61H101.592L103.312 59.0166ZM101.858 56.9531L101.094 54.4604H101.035L100.164 56.9531L101.002 56.9704L101.858 56.9531ZM109.583 59.0166H108.702L108.577 58.4106L108.345 57.6608L107.215 57.6354L106.193 57.6608L105.945 58.3682L105.811 59.0166H104.956L106.858 53.61H107.863L109.583 59.0166ZM108.129 56.9531L107.365 54.4604H107.306L106.435 56.9531L107.273 56.9704L108.129 56.9531ZM112.37 53.6015C112.908 53.6015 113.321 53.7418 113.608 54.0225C113.902 54.2979 114.049 54.6966 114.049 55.2184C114.049 55.8249 113.863 56.3049 113.492 56.6585C113.126 57.0123 112.623 57.1893 111.98 57.1893H111.39V57.3155L111.432 59.0166H110.56L110.618 57.3913L110.56 53.61L112.37 53.6015ZM112.23 56.5152C112.534 56.4536 112.764 56.322 112.919 56.1196C113.08 55.9117 113.16 55.6367 113.16 55.2941C113.16 54.9575 113.074 54.7077 112.902 54.5446C112.736 54.3817 112.481 54.2949 112.138 54.2839L111.432 54.3091L111.399 56.4985L112.23 56.5152ZM117.346 56.1953L119.132 59.0166H118.093L117.852 58.5367L116.765 56.8775L115.627 58.5873L115.402 59.0166H114.505L116.266 56.3135L114.547 53.61H115.576L115.817 54.0814L116.831 55.6478L117.861 54.0648L118.085 53.61H118.999L117.346 56.1953ZM120.173 57.3913L120.132 53.6354L120.996 53.5929L120.946 57.6693H121.013L123.513 53.61H124.418L124.377 57.3155L124.41 59.0166H123.546L123.588 57.3913V54.9575H123.521L121.021 59.0166H120.132L120.173 57.3913ZM129.038 53.6858L128.989 54.3428L128.025 54.292H127.577L127.535 57.3155L127.577 59.0166H126.713L126.763 57.3913L126.721 54.292H126.273L125.292 54.3428L125.234 54.2665L125.301 53.61H128.989L129.038 53.6858ZM133.088 58.2758L133.138 58.3516L133.08 59.0166H129.932L129.99 57.3913L129.932 53.61H133.097L133.147 53.6858L133.08 54.3509L131.818 54.3171L130.804 54.3257L130.779 55.9007L131.743 55.9178L132.623 55.8921L132.681 55.9596L132.615 56.6247L131.676 56.5995L130.771 56.6167L130.762 57.3155L130.788 58.3092L131.801 58.3177L133.088 58.2758ZM135.2 57.3155L135.233 59.0166H134.377L134.419 57.3913L134.377 53.61H135.242L135.2 57.3155ZM136.155 56.1533C136.797 57.0294 137.531 57.9221 138.356 58.8313L138.348 58.9323C138.104 59 137.83 59.0534 137.526 59.0928L137.418 59.0418C136.576 57.9977 135.861 57.0487 135.275 56.1953V56.1362L136.936 54.0985L137.268 53.61H138.207L136.155 56.1533ZM142.261 53.6858L142.212 54.3428L141.248 54.292H140.8L140.758 57.3155L140.8 59.0166H139.936L139.986 57.3913L139.944 54.292H139.496L138.515 54.3428L138.458 54.2665L138.524 53.61H142.212L142.261 53.6858ZM146.91 53.6183L145.366 57.3493C145.155 57.8207 144.961 58.1718 144.784 58.402C144.613 58.632 144.408 58.7976 144.169 58.8991C143.937 58.9944 143.616 59.056 143.206 59.0842L143.131 59.0756C143.071 58.8793 143.02 58.6548 142.982 58.402L143.023 58.3177C143.45 58.2672 143.763 58.2027 143.962 58.1239C144.161 58.0397 144.324 57.905 144.452 57.7197L142.425 53.6183L143.347 53.61L143.539 54.1404L144.777 56.7932H144.868L145.905 54.0985L146.063 53.6183H146.91ZM149.638 53.6015C150.174 53.6015 150.587 53.7418 150.875 54.0225C151.169 54.2979 151.316 54.6966 151.316 55.2184C151.316 55.8249 151.13 56.3049 150.759 56.6585C150.394 57.0123 149.89 57.1893 149.247 57.1893H148.657V57.3155L148.699 59.0166H147.827L147.885 57.3913L147.827 53.61L149.638 53.6015ZM149.496 56.5152C149.801 56.4536 150.03 56.322 150.185 56.1196C150.346 55.9117 150.427 55.6367 150.427 55.2941C150.427 54.9575 150.34 54.7077 150.169 54.5446C150.003 54.3817 149.748 54.2949 149.405 54.2839L148.699 54.3091L148.666 56.4985L149.496 56.5152ZM154.08 55.7826C154.562 55.7826 154.93 55.9093 155.185 56.1619C155.446 56.4088 155.575 56.768 155.575 57.2399C155.575 57.8009 155.395 58.239 155.036 58.5533C154.676 58.8621 154.168 59.0166 153.516 59.0166H152.211L152.252 57.3999L152.211 53.61H153.075L153.051 55.7826H154.08ZM157.112 57.3155L157.154 59.0166H156.282L156.339 57.3913L156.282 53.61H157.162L157.112 57.3155ZM153.798 58.402C154.086 58.3571 154.308 58.2444 154.462 58.065C154.617 57.8852 154.694 57.6466 154.694 57.3493C154.694 57.046 154.617 56.813 154.462 56.6504C154.308 56.4875 154.088 56.4088 153.807 56.4142L153.042 56.4228L153.033 57.3241L153.051 58.3682L153.798 58.402ZM76.3613 67.2167L76.3198 63.4609L77.1837 63.4183L77.1338 67.4947H77.2004L79.7009 63.4354H80.6062L80.5645 67.141L80.5975 68.8426H79.7339L79.7756 67.2167V64.7828H79.7088L77.2085 68.8426H76.3198L76.3613 67.2167ZM88.292 68.1264V69.8779L87.6526 69.937L87.5275 68.8426H83.9646L83.8474 69.8779L83.1993 69.937V68.1264H83.6406C83.8726 67.9972 84.0558 67.8009 84.188 67.5371C84.3217 67.2733 84.4294 66.8997 84.512 66.4169C84.5954 65.934 84.6756 65.2547 84.7535 64.3786L84.8447 63.4354H87.5944L87.5614 67.141L87.5771 68.1264H88.292ZM86.7717 67.2167L86.7387 64.1005H85.5424L85.5007 64.5301C85.4071 65.6084 85.2875 66.4169 85.1436 66.9558C84.9997 67.4892 84.7952 67.8792 84.5293 68.1264H86.7465L86.7717 67.2167ZM89.4553 67.2167L89.4128 63.4609L90.2772 63.4183L90.2276 67.4947H90.2937L92.7941 63.4354H93.7001L93.6576 67.141L93.6915 68.8426H92.8271L92.8688 67.2167V64.7828H92.8027L90.3024 68.8426H89.4128L89.4553 67.2167ZM97.3039 66.0213C98.0291 66.2064 98.3925 66.6384 98.3925 67.318C98.3925 67.8122 98.2069 68.2021 97.8356 68.4888C97.4644 68.7749 96.961 68.9182 96.3239 68.9182C96.0361 68.9182 95.7616 68.8844 95.5012 68.8167C95.2417 68.7497 95.0199 68.6543 94.8366 68.5306L94.9947 67.7728L95.0694 67.7474C95.2417 67.8878 95.4352 67.9972 95.6515 68.076C95.8725 68.1548 96.0943 68.1936 96.3161 68.1936C96.6755 68.1936 96.9665 68.1068 97.1875 67.9327C97.4148 67.7586 97.5281 67.5315 97.5281 67.2505C97.5281 67.0258 97.4589 66.8407 97.3205 66.6949C97.182 66.5485 96.9885 66.4506 96.7392 66.4001H95.6176L95.5516 66.3326L95.609 65.7345L96.681 65.7513C96.858 65.6731 96.9996 65.5518 97.1042 65.3894C97.2151 65.2263 97.2709 65.0469 97.2709 64.8505C97.2709 64.3675 96.961 64.1259 96.3405 64.1259C95.9087 64.1259 95.4627 64.2692 95.0034 64.5558L94.9035 64.5133L94.9782 63.7469C95.4155 63.5 95.8803 63.3765 96.3735 63.3765C96.9217 63.3765 97.3535 63.497 97.6697 63.7389C97.9851 63.9744 98.1431 64.2998 98.1431 64.7157C98.1431 65.0019 98.0684 65.2603 97.919 65.4904C97.7743 65.7205 97.5698 65.8976 97.3039 66.0213ZM103.58 68.8426H102.699L102.575 68.236L102.343 67.4865L101.213 67.4608L100.191 67.4865L99.9419 68.1936L99.809 68.8426H98.9533L100.856 63.4354H101.861L103.58 68.8426ZM102.127 66.7791L101.362 64.2858H101.304L100.433 66.7791L101.271 66.7957L102.127 66.7791ZM104.6 67.2167L104.559 63.4609L105.422 63.4183L105.373 67.4947H105.44L107.94 63.4354H108.845L108.804 67.141L108.837 68.8426H107.972L108.014 67.2167V64.7828H107.948L105.448 68.8426H104.559L104.6 67.2167ZM107.956 62.2395C107.845 62.4808 107.668 62.6691 107.424 62.8038C107.181 62.9385 106.896 63.0061 106.568 63.0061C106.242 63.0061 105.963 62.9415 105.73 62.8124C105.497 62.6776 105.326 62.4864 105.215 62.2395L105.647 61.9363H105.746C105.812 62.127 105.912 62.2673 106.045 62.3576C106.178 62.4414 106.358 62.4838 106.585 62.4838C106.818 62.4838 106.998 62.4414 107.125 62.3576C107.258 62.2734 107.361 62.1326 107.433 61.9363H107.533L107.956 62.2395ZM114.7 67.141L114.725 68.8426H113.87L113.911 67.2167L113.903 66.4839L112.54 66.4759L111.295 66.4839L111.287 67.141L111.32 68.8426H110.473L110.506 67.2167L110.473 63.4354H111.328L111.303 65.7598L112.607 65.777L113.895 65.7598L113.87 63.4354H114.742L114.7 67.141ZM120.316 68.8426H119.435L119.311 68.236L119.078 67.4865L117.948 67.4608L116.926 67.4865L116.677 68.1936L116.545 68.8426H115.689L117.591 63.4354H118.596L120.316 68.8426ZM118.862 66.7791L118.098 64.2858H118.04L117.167 66.7791L118.006 66.7957L118.862 66.7791Z" fill="white"/>
</g>
<defs>
<clipPath id="clip0_967_604">
<rect width="157.303" height="70" fill="white"/>
</clipPath>
</defs>
</svg>
