<svg width="89" height="89" viewBox="0 0 89 89" fill="none" xmlns="http://www.w3.org/2000/svg">
<circle cx="44.5" cy="44.5" r="44.5" fill="#FFBD27"/>
<path d="M47.7578 48H43.9609V23.5781C43.9609 21.5469 44.0234 19.625 44.1484 17.8125C43.8203 18.1406 43.4531 18.4844 43.0469 18.8438C42.6406 19.2031 40.7812 20.7266 37.4688 23.4141L35.4062 20.7422L44.4766 13.7344H47.7578V48Z" fill="#0D2839"/>
<path d="M25.2696 55.756H26.6736L27.1236 57.016L28.7616 61.444H28.8696L30.6516 56.962L31.0836 55.756H32.4876L33.2796 64H32.1276L31.9476 61.408L31.5876 57.682H31.4796L29.2656 63.064H28.2396L26.1876 57.682H26.0976L25.7016 61.174L25.4676 64H24.3696L25.2696 55.756ZM36.3798 59.824V59.86C36.3798 60.868 36.6078 61.642 37.0638 62.182C37.5198 62.722 38.1678 62.992 39.0078 62.992C39.4278 62.992 39.8478 62.926 40.2678 62.794C40.6878 62.65 41.0718 62.452 41.4198 62.2L41.5638 62.308L41.3478 63.532C40.5078 63.94 39.6678 64.144 38.8278 64.144C37.6518 64.144 36.7278 63.772 36.0558 63.028C35.3838 62.272 35.0478 61.24 35.0478 59.932C35.0478 58.612 35.3838 57.562 36.0558 56.782C36.7278 56.002 37.6338 55.612 38.7738 55.612C39.7338 55.612 40.4778 55.888 41.0058 56.44C41.5338 56.98 41.7978 57.736 41.7978 58.708C41.7978 59.032 41.7738 59.338 41.7258 59.626L41.5458 59.806L36.3798 59.824ZM38.7738 56.62C38.1738 56.62 37.6698 56.818 37.2618 57.214C36.8658 57.598 36.6018 58.144 36.4698 58.852L40.4478 58.78L40.4838 58.528C40.4838 57.916 40.3338 57.448 40.0338 57.124C39.7458 56.788 39.3258 56.62 38.7738 56.62ZM46.9816 55.612C47.3536 55.612 47.7376 55.66 48.1336 55.756C48.5416 55.84 48.8956 55.954 49.1956 56.098L48.9436 57.34L48.7816 57.394C48.1576 56.986 47.5396 56.782 46.9276 56.782C46.2196 56.782 45.6676 57.052 45.2716 57.592C44.8756 58.132 44.6776 58.888 44.6776 59.86C44.6776 60.832 44.8816 61.6 45.2896 62.164C45.7096 62.716 46.2856 62.992 47.0176 62.992C47.3416 62.992 47.6776 62.938 48.0256 62.83C48.3856 62.722 48.7216 62.572 49.0336 62.38L49.1956 62.47L49.0336 63.676C48.3016 63.988 47.5696 64.144 46.8376 64.144C45.7456 64.144 44.8876 63.772 44.2636 63.028C43.6396 62.272 43.3276 61.24 43.3276 59.932C43.3276 58.6 43.6516 57.55 44.2996 56.782C44.9596 56.002 45.8536 55.612 46.9816 55.612ZM56.5989 60.382L56.6349 64H55.3209L55.3569 60.958H53.7909C53.3109 61.822 52.6629 62.836 51.8469 64L51.6849 64.108C51.2049 64.096 50.8029 64.012 50.4789 63.856L50.4609 63.694C51.3729 62.626 52.1349 61.642 52.7469 60.742C52.1469 60.538 51.6969 60.238 51.3969 59.842C51.1089 59.446 50.9649 58.948 50.9649 58.348C50.9649 57.568 51.2349 56.938 51.7749 56.458C52.3269 55.978 53.0529 55.738 53.9529 55.738L56.6349 55.756L56.5989 60.382ZM54.0429 56.656C53.5029 56.656 53.0769 56.806 52.7649 57.106C52.4529 57.406 52.2969 57.814 52.2969 58.33C52.2969 58.798 52.4229 59.188 52.6749 59.5C52.9389 59.8 53.3229 59.998 53.8269 60.094L55.3569 60.04V56.692L54.0429 56.656ZM67.0441 65.908L66.0541 66.016L65.8741 64H59.4301L59.5021 60.508L59.4481 55.756H60.8341L60.7801 60.382L60.8161 62.92L64.4161 62.938L64.4521 60.508L64.3981 55.756H65.7841L65.7481 60.382L65.7661 62.938H67.0441V65.908Z" fill="#0D2839"/>
</svg>
