<svg width="89" height="89" viewBox="0 0 89 89" fill="none" xmlns="http://www.w3.org/2000/svg">
<circle cx="44.5" cy="44.5" r="44.5" fill="#FFBD27"/>
<path d="M47.7578 48H43.9609V23.5781C43.9609 21.5469 44.0234 19.625 44.1484 17.8125C43.8203 18.1406 43.4531 18.4844 43.0469 18.8438C42.6406 19.2031 40.7812 20.7266 37.4688 23.4141L35.4062 20.7422L44.4766 13.7344H47.7578V48Z" fill="#0D2839"/>
<path d="M39.5398 55.846L39.4318 56.8L37.5598 56.764H36.1198L36.0838 60.382L36.1378 64H34.7338L34.8058 60.508L34.7518 55.756H39.4498L39.5398 55.846ZM43.5753 55.612C44.6913 55.612 45.5553 55.978 46.1673 56.71C46.7913 57.43 47.1033 58.45 47.1033 59.77C47.1033 61.162 46.7793 62.242 46.1313 63.01C45.4833 63.766 44.5593 64.144 43.3593 64.144C42.2313 64.144 41.3553 63.784 40.7313 63.064C40.1193 62.332 39.8133 61.306 39.8133 59.986C39.8133 58.594 40.1373 57.52 40.7853 56.764C41.4453 55.996 42.3753 55.612 43.5753 55.612ZM43.4853 56.62C42.7293 56.62 42.1533 56.878 41.7573 57.394C41.3613 57.91 41.1633 58.666 41.1633 59.662C41.1633 60.814 41.3553 61.678 41.7393 62.254C42.1353 62.83 42.7053 63.118 43.4493 63.118C44.2053 63.118 44.7813 62.866 45.1773 62.362C45.5733 61.858 45.7713 61.102 45.7713 60.094C45.7713 58.954 45.5733 58.09 45.1773 57.502C44.7933 56.914 44.2293 56.62 43.4853 56.62ZM56.0603 62.956V65.908L55.1063 66.016L54.9443 64H48.9683L48.8063 65.908L47.8343 66.016V62.956H48.5003C48.8603 62.728 49.1423 62.41 49.3463 62.002C49.5623 61.594 49.7363 61.018 49.8683 60.274C50.0123 59.53 50.1443 58.492 50.2643 57.16L50.3903 55.756H54.8903L54.8543 60.382L54.8723 62.956H56.0603ZM53.5763 60.508L53.5403 56.71H51.4343L51.3623 57.376C51.2063 59.044 51.0083 60.298 50.7683 61.138C50.5403 61.966 50.2103 62.572 49.7783 62.956H53.5403L53.5763 60.508Z" fill="#0D2839"/>
</svg>
