<svg width="18" height="18" viewBox="0 0 18 18" fill="none" xmlns="http://www.w3.org/2000/svg">
<path d="M17.3915 3.54584L11.9376 9.00029L17.3915 14.4545C18.2027 15.266 18.2027 16.5806 17.3915 17.3922C16.9861 17.7975 16.4547 18.0003 15.9235 18.0003C15.3915 18.0003 14.86 17.7978 14.455 17.3922L8.99992 11.9374L3.54524 17.3921C3.13995 17.7975 2.60848 18.0003 2.07685 18.0003C1.54538 18.0003 1.01426 17.7978 0.608619 17.3921C-0.202622 16.5809 -0.202622 15.2663 0.608619 14.4544L6.06236 9.00024L0.608308 3.54584C-0.202932 2.7346 -0.202932 1.41969 0.608308 0.608452C1.41939 -0.202166 2.73353 -0.202166 3.54493 0.608452L8.99986 6.06291L14.4544 0.608452C15.2659 -0.202166 16.5802 -0.202166 17.3912 0.608452C18.2027 1.41969 18.2027 2.7346 17.3915 3.54584Z" fill="white"/>
</svg>
