<svg width="51" height="51" viewBox="0 0 51 51" fill="none" xmlns="http://www.w3.org/2000/svg">
<g clip-path="url(#clip0)">
<path d="M41.4553 16.691C41.3144 16.3989 41.0197 16.214 40.6956 16.214H28.5226L35.5486 1.38016C35.6727 1.11847 35.6542 0.812035 35.4988 0.567224C35.3452 0.323257 35.0759 0.174683 34.7864 0.174683H17.9028C17.4959 0.174683 17.1465 0.465079 17.073 0.865218L12.8521 23.6579C12.8066 23.9044 12.8724 24.1585 13.0336 24.351C13.1932 24.5443 13.4312 24.6558 13.682 24.6558H23.4246L13.7385 49.6763C13.5883 50.0654 13.7444 50.5061 14.1066 50.7129C14.2374 50.7889 14.3826 50.8252 14.5253 50.8252C14.776 50.8252 15.0217 50.7138 15.1871 50.5061L41.3566 17.5833C41.5575 17.3292 41.5963 16.9831 41.4553 16.691ZM17.3145 45.116L25.4439 24.1163C25.5443 23.8563 25.5106 23.5642 25.3535 23.3338C25.1957 23.105 24.9348 22.9674 24.6562 22.9674H14.6967L18.6052 1.86303H33.4526L26.4265 16.6969C26.3024 16.9586 26.321 17.265 26.4763 17.5098C26.6299 17.7538 26.8992 17.9024 27.1888 17.9024H38.9464L17.3145 45.116Z" fill="white"/>
<path d="M8.61692 24.6559H0.175171V26.3442H8.61692V24.6559Z" fill="white"/>
<path d="M50.8257 24.6559H42.3839V26.3442H50.8257V24.6559Z" fill="white"/>
<path d="M49.8058 0.423109L43.897 6.33191L45.0908 7.52574L50.9996 1.61694L49.8058 0.423109Z" fill="white"/>
<path d="M5.91191 42.6305L0.00311279 48.5393L1.19695 49.7331L7.10575 43.8244L5.91191 42.6305Z" fill="white"/>
<path d="M45.0898 43.4751L43.8959 44.6689L49.8047 50.5777L50.9986 49.3839L45.0898 43.4751Z" fill="white"/>
<path d="M1.19383 0.421523L0 1.61536L5.9088 7.52416L7.10263 6.33033L1.19383 0.421523Z" fill="white"/>
</g>
<defs>
<clipPath id="clip0">
<rect width="51" height="51" fill="white"/>
</clipPath>
</defs>
</svg>
