<svg width="89" height="89" viewBox="0 0 89 89" fill="none" xmlns="http://www.w3.org/2000/svg">
<circle cx="44.5" cy="44.5" r="44.5" fill="#FFBD27"/>
<path d="M47.7578 48H43.9609V23.5781C43.9609 21.5469 44.0234 19.625 44.1484 17.8125C43.8203 18.1406 43.4531 18.4844 43.0469 18.8438C42.6406 19.2031 40.7812 20.7266 37.4688 23.4141L35.4062 20.7422L44.4766 13.7344H47.7578V48Z" fill="#0D2839"/>
<path d="M21.1423 59.698C22.2943 59.986 22.8703 60.64 22.8703 61.66C22.8703 62.416 22.5763 63.016 21.9883 63.46C21.4003 63.904 20.6083 64.126 19.6123 64.126C19.1563 64.126 18.7183 64.072 18.2983 63.964C17.8783 63.856 17.5243 63.706 17.2363 63.514L17.4883 62.416L17.5963 62.362C17.8723 62.566 18.1783 62.728 18.5143 62.848C18.8623 62.956 19.2223 63.01 19.5943 63.01C20.1703 63.01 20.6383 62.878 20.9983 62.614C21.3583 62.35 21.5383 62.002 21.5383 61.57C21.5383 61.222 21.4243 60.94 21.1963 60.724C20.9803 60.496 20.6623 60.346 20.2423 60.274H18.4783L18.3703 60.166L18.4603 59.266L20.1523 59.284C20.4403 59.164 20.6743 58.978 20.8543 58.726C21.0343 58.474 21.1243 58.198 21.1243 57.898C21.1243 57.538 20.9923 57.268 20.7283 57.088C20.4763 56.896 20.1043 56.8 19.6123 56.8C18.9163 56.8 18.2143 57.004 17.5063 57.412L17.3443 57.358L17.4523 56.224C18.1363 55.852 18.8803 55.666 19.6843 55.666C20.5363 55.666 21.2083 55.852 21.7003 56.224C22.2043 56.584 22.4563 57.076 22.4563 57.7C22.4563 58.132 22.3423 58.528 22.1143 58.888C21.8863 59.236 21.5623 59.506 21.1423 59.698ZM27.7382 55.612C28.5182 55.612 29.1302 55.804 29.5742 56.188C30.0302 56.572 30.2582 57.1 30.2582 57.772C30.2582 57.976 30.2222 58.714 30.1502 59.986C30.0782 61.258 30.0422 62.002 30.0422 62.218C30.0422 62.482 30.0842 62.668 30.1682 62.776C30.2522 62.872 30.3962 62.92 30.6002 62.92C30.7802 62.92 30.9842 62.884 31.2122 62.812L31.3562 62.938L31.2122 63.748C30.8642 63.952 30.5222 64.072 30.1862 64.108C29.8142 64.072 29.5142 63.94 29.2862 63.712C29.0702 63.484 28.9562 63.172 28.9442 62.776H28.8182C28.1702 63.436 27.5282 63.886 26.8922 64.126C26.0882 64.126 25.4582 63.928 25.0022 63.532C24.5582 63.124 24.3362 62.572 24.3362 61.876C24.3362 61.348 24.4742 60.928 24.7502 60.616C25.0382 60.304 25.4582 60.082 26.0102 59.95L28.9262 59.266L28.9442 58.096C28.9442 57.628 28.8182 57.268 28.5662 57.016C28.3262 56.764 27.9782 56.638 27.5222 56.638C27.1142 56.638 26.7062 56.734 26.2982 56.926C25.8902 57.118 25.4522 57.418 24.9842 57.826L24.8402 57.754L24.6602 56.728C25.6562 55.984 26.6822 55.612 27.7382 55.612ZM26.2982 60.814C26.0582 60.886 25.8842 60.988 25.7762 61.12C25.6682 61.24 25.6142 61.426 25.6142 61.678C25.6142 62.074 25.7222 62.386 25.9382 62.614C26.1662 62.83 26.4662 62.938 26.8382 62.938C27.4982 62.938 28.1702 62.512 28.8542 61.66L28.9082 60.184L26.2982 60.814ZM39.767 60.382L39.821 64H38.417L38.471 60.508V60.382L34.493 60.4L34.547 64H33.143L33.215 60.508L33.161 55.756H34.547L34.511 59.302L38.471 59.32L38.435 55.756H39.821L39.767 60.382ZM47.9778 60.382L48.0138 64H46.6998L46.7358 60.958H45.1698C44.6898 61.822 44.0418 62.836 43.2258 64L43.0638 64.108C42.5838 64.096 42.1818 64.012 41.8578 63.856L41.8398 63.694C42.7518 62.626 43.5138 61.642 44.1258 60.742C43.5258 60.538 43.0758 60.238 42.7758 59.842C42.4878 59.446 42.3438 58.948 42.3438 58.348C42.3438 57.568 42.6138 56.938 43.1538 56.458C43.7058 55.978 44.4318 55.738 45.3318 55.738L48.0138 55.756L47.9778 60.382ZM45.4218 56.656C44.8818 56.656 44.4558 56.806 44.1438 57.106C43.8318 57.406 43.6758 57.814 43.6758 58.33C43.6758 58.798 43.8018 59.188 44.0538 59.5C44.3178 59.8 44.7018 59.998 45.2058 60.094L46.7358 60.04V56.692L45.4218 56.656ZM55.8323 55.846L55.7243 56.8L54.2123 56.764H53.2043L53.1683 60.382L53.2223 64H51.8183L51.8723 60.508L51.8363 56.764H50.8283L49.2983 56.8L49.2083 56.674L49.2983 55.756H55.7243L55.8323 55.846ZM57.3146 60.508L57.2426 55.792L58.6286 55.72L58.5926 61.966H58.7006L62.4266 55.756H63.8306L63.7766 60.364L63.8306 64H62.4446L62.4986 60.598V57.7H62.3906L58.6106 64H57.2426L57.3146 60.508ZM67.2919 59.824V59.86C67.2919 60.868 67.5199 61.642 67.9759 62.182C68.4319 62.722 69.0799 62.992 69.9199 62.992C70.3399 62.992 70.7599 62.926 71.1799 62.794C71.5999 62.65 71.9839 62.452 72.3319 62.2L72.4759 62.308L72.2599 63.532C71.4199 63.94 70.5799 64.144 69.7399 64.144C68.5639 64.144 67.6399 63.772 66.9679 63.028C66.2959 62.272 65.9599 61.24 65.9599 59.932C65.9599 58.612 66.2959 57.562 66.9679 56.782C67.6399 56.002 68.5459 55.612 69.6859 55.612C70.6459 55.612 71.3899 55.888 71.9179 56.44C72.4459 56.98 72.7099 57.736 72.7099 58.708C72.7099 59.032 72.6859 59.338 72.6379 59.626L72.4579 59.806L67.2919 59.824ZM69.6859 56.62C69.0859 56.62 68.5819 56.818 68.1739 57.214C67.7779 57.598 67.5139 58.144 67.3819 58.852L71.3599 58.78L71.3959 58.528C71.3959 57.916 71.2459 57.448 70.9459 57.124C70.6579 56.788 70.2379 56.62 69.6859 56.62Z" fill="#0D2839"/>
</svg>
