<svg width="89" height="89" viewBox="0 0 89 89" fill="none" xmlns="http://www.w3.org/2000/svg">
<circle cx="44.5" cy="44.5" r="44.5" fill="#FFBD27"/>
<path d="M54.5781 21.7969C54.5781 23.9844 53.9609 25.7734 52.7266 27.1641C51.5078 28.5547 49.7734 29.4844 47.5234 29.9531V30.1406C50.2734 30.4844 52.3125 31.3594 53.6406 32.7656C54.9688 34.1719 55.6328 36.0156 55.6328 38.2969C55.6328 41.5625 54.5 44.0781 52.2344 45.8438C49.9688 47.5938 46.75 48.4688 42.5781 48.4688C40.7656 48.4688 39.1016 48.3281 37.5859 48.0469C36.0859 47.7812 34.625 47.3047 33.2031 46.6172V42.9141C34.6875 43.6484 36.2656 44.2109 37.9375 44.6016C39.625 44.9766 41.2188 45.1641 42.7188 45.1641C48.6406 45.1641 51.6016 42.8438 51.6016 38.2031C51.6016 34.0469 48.3359 31.9688 41.8047 31.9688H38.4297V28.6172H41.8516C44.5234 28.6172 46.6406 28.0312 48.2031 26.8594C49.7656 25.6719 50.5469 24.0312 50.5469 21.9375C50.5469 20.2656 49.9688 18.9531 48.8125 18C47.6719 17.0469 46.1172 16.5703 44.1484 16.5703C42.6484 16.5703 41.2344 16.7734 39.9062 17.1797C38.5781 17.5859 37.0625 18.3359 35.3594 19.4297L33.3906 16.8047C34.7969 15.6953 36.4141 14.8281 38.2422 14.2031C40.0859 13.5625 42.0234 13.2422 44.0547 13.2422C47.3828 13.2422 49.9688 14.0078 51.8125 15.5391C53.6562 17.0547 54.5781 19.1406 54.5781 21.7969Z" fill="#0D2839"/>
<path d="M35.4265 55.846L35.3185 56.8L33.4465 56.764H32.0065L31.9705 60.382L32.0245 64H30.6205L30.6925 60.508L30.6385 55.756H35.3365L35.4265 55.846ZM39.462 55.612C40.578 55.612 41.442 55.978 42.054 56.71C42.678 57.43 42.99 58.45 42.99 59.77C42.99 61.162 42.666 62.242 42.018 63.01C41.37 63.766 40.446 64.144 39.246 64.144C38.118 64.144 37.242 63.784 36.618 63.064C36.006 62.332 35.7 61.306 35.7 59.986C35.7 58.594 36.024 57.52 36.672 56.764C37.332 55.996 38.262 55.612 39.462 55.612ZM39.372 56.62C38.616 56.62 38.04 56.878 37.644 57.394C37.248 57.91 37.05 58.666 37.05 59.662C37.05 60.814 37.242 61.678 37.626 62.254C38.022 62.83 38.592 63.118 39.336 63.118C40.092 63.118 40.668 62.866 41.064 62.362C41.46 61.858 41.658 61.102 41.658 60.094C41.658 58.954 41.46 58.09 41.064 57.502C40.68 56.914 40.116 56.62 39.372 56.62ZM51.947 62.956V65.908L50.993 66.016L50.831 64H44.855L44.693 65.908L43.721 66.016V62.956H44.387C44.747 62.728 45.029 62.41 45.233 62.002C45.449 61.594 45.623 61.018 45.755 60.274C45.899 59.53 46.031 58.492 46.151 57.16L46.277 55.756H50.777L50.741 60.382L50.759 62.956H51.947ZM49.463 60.508L49.427 56.71H47.321L47.249 57.376C47.093 59.044 46.895 60.298 46.655 61.138C46.427 61.966 46.097 62.572 45.665 62.956H49.427L49.463 60.508ZM56.7509 55.612C57.5309 55.612 58.1429 55.804 58.5869 56.188C59.0429 56.572 59.2709 57.1 59.2709 57.772C59.2709 57.976 59.2349 58.714 59.1629 59.986C59.0909 61.258 59.0549 62.002 59.0549 62.218C59.0549 62.482 59.0969 62.668 59.1809 62.776C59.2649 62.872 59.4089 62.92 59.6129 62.92C59.7929 62.92 59.9969 62.884 60.2249 62.812L60.3689 62.938L60.2249 63.748C59.8769 63.952 59.5349 64.072 59.1989 64.108C58.8269 64.072 58.5269 63.94 58.2989 63.712C58.0829 63.484 57.9689 63.172 57.9569 62.776H57.8309C57.1829 63.436 56.5409 63.886 55.9049 64.126C55.1009 64.126 54.4709 63.928 54.0149 63.532C53.5709 63.124 53.3489 62.572 53.3489 61.876C53.3489 61.348 53.4869 60.928 53.7629 60.616C54.0509 60.304 54.4709 60.082 55.0229 59.95L57.9389 59.266L57.9569 58.096C57.9569 57.628 57.8309 57.268 57.5789 57.016C57.3389 56.764 56.9909 56.638 56.5349 56.638C56.1269 56.638 55.7189 56.734 55.3109 56.926C54.9029 57.118 54.4649 57.418 53.9969 57.826L53.8529 57.754L53.6729 56.728C54.6689 55.984 55.6949 55.612 56.7509 55.612ZM55.3109 60.814C55.0709 60.886 54.8969 60.988 54.7889 61.12C54.6809 61.24 54.6269 61.426 54.6269 61.678C54.6269 62.074 54.7349 62.386 54.9509 62.614C55.1789 62.83 55.4789 62.938 55.8509 62.938C56.5109 62.938 57.1829 62.512 57.8669 61.66L57.9209 60.184L55.3109 60.814Z" fill="#0D2839"/>
</svg>
