<svg width="158" height="70" viewBox="0 0 158 70" fill="none" xmlns="http://www.w3.org/2000/svg">
<path d="M68.9537 38.2315C68.8244 35.129 66.5622 32.5759 62.9103 29.6997C59.8401 27.2112 51.2436 20.166 51.2436 20.166C53.6351 18.2592 54.1845 17.6129 56.0266 16.1586C61.6176 11.6988 60.8743 7.43283 60.3249 5.81694C59.2584 2.8114 56.1559 0.775391 52.601 0.775391H37.8318H32.0146H12.8503C7.19467 0.775391 2.41166 3.97484 0.66651 8.91944C-1.20791 14.2842 0.92505 20.1337 6.38673 24.5289C8.81055 26.4679 13.1734 29.9582 17.6979 33.5778C16.082 34.0302 14.4338 34.8705 12.9149 36.3248C10.7819 38.3608 9.68313 41.1401 9.8124 44.178C9.97399 47.9915 12.0423 51.708 15.6619 54.5843L34.9232 69.9998L64.5908 46.214C67.5963 43.7579 69.0829 41.0755 68.9537 38.2315ZM37.8318 6.59257H52.601C53.6674 6.59257 54.6046 7.07733 54.8309 7.72368C55.0894 8.40235 54.5723 9.85665 52.407 11.6018C48.432 14.7689 42.1624 19.8105 37.8318 23.2685V6.59257ZM10.0063 19.9397C6.54832 17.1604 5.09402 13.7348 6.12819 10.7939C7.03308 8.20845 9.65081 6.56025 12.8179 6.56025H31.9823V37.4882C25.6157 32.4144 14.4985 23.527 10.0063 19.9397ZM19.3138 49.9628C17.0515 48.1531 15.7265 45.9231 15.6296 43.8548C15.5649 42.5298 16.0174 41.334 16.9546 40.4614C20.2833 37.359 23.6767 38.2315 27.167 41.0432C28.3627 41.9804 30.7542 43.8871 32.0146 44.9213V60.1429L19.3138 49.9628ZM60.648 41.8834L37.7995 60.1429V30.7015C38.6397 30.0229 41.0312 28.3423 42.5502 27.1143C45.0709 25.0783 48.0118 24.9167 50.468 26.888C54.1522 29.8289 56.8346 32.2851 59.6785 34.612C61.6822 36.2602 62.8133 37.6175 62.8456 38.7163C62.9103 39.912 61.5206 41.2048 60.648 41.8834Z" fill="white"/>
<path d="M82.3657 2.29444C85.9852 2.29444 88.4414 3.58714 88.4414 6.39877C88.4414 7.82075 87.2456 9.27505 86.373 10.0507C88.4091 10.9879 89.5079 12.5068 89.5079 14.3812C89.5079 17.5484 87.5688 19.8752 83.0443 19.8752H78.0674V5.10607L77.7119 2.42371L82.3657 2.29444ZM81.4608 9.30736C83.4968 9.30736 84.1108 9.43663 84.434 9.46895C84.8541 8.85491 85.2742 7.88539 85.2742 6.94818C85.2742 5.36461 84.434 4.81521 82.5272 4.81521C82.2041 4.81521 81.8486 4.84753 81.4608 4.87985V9.30736ZM81.4608 17.3544H83.0766C84.9834 17.3544 86.0499 16.288 86.0499 14.5105C86.0499 12.9269 85.048 11.8281 82.4303 11.8281H81.4608V17.3544Z" fill="white"/>
<path d="M100.69 10.148C100.69 10.148 99.9466 9.43696 98.9448 9.43696C97.5874 9.43696 95.9715 11.1175 95.9715 13.1535V17.6456L96.2624 19.9079H92.7398V9.40465L92.3843 6.7546L96.0039 6.36679V8.7583C96.0039 8.7583 97.2966 6.33448 99.5588 6.33448C100.367 6.33448 101.11 6.65765 101.724 7.30401L100.69 10.148Z" fill="white"/>
<path d="M106.959 17.6455L107.25 19.9078H103.728V9.3399L103.372 6.68985L106.992 6.30205V17.6455H106.959ZM105.311 1.00196C106.248 1.00196 107.056 1.80989 107.056 2.84406C107.056 3.81359 106.248 4.58921 105.311 4.58921C104.309 4.58921 103.469 3.81359 103.469 2.84406C103.469 1.80989 104.309 1.00196 105.311 1.00196Z" fill="white"/>
<path d="M119.822 10.4061C118.852 9.21034 117.56 8.79021 116.622 8.79021C114.36 8.79021 113.391 10.9232 113.391 13.2824C113.391 15.48 114.392 17.5806 116.525 17.5806C118.788 17.5806 120.824 15.48 120.824 15.48L121.308 18.1946C121.308 18.1946 119.337 20.2307 115.911 20.2307C112.001 20.2307 110.094 16.8696 110.094 13.5086C110.094 9.69511 112.356 6.30176 116.59 6.30176C119.79 6.30176 121.373 8.04691 121.373 8.04691L119.822 10.4061Z" fill="white"/>
<path d="M127.223 12.6685L130.81 8.11173L131.424 6.68975H135.787L130.487 12.6685L136.045 19.8754H132.006L127.223 13.2502V17.6131L127.513 19.8754H123.991V3.03786L123.635 0.387808L127.255 1.97251e-06V12.6685H127.223Z" fill="white"/>
<path d="M102.467 25.6924V32.9315C102.467 32.9315 103.728 31.962 105.343 31.962C108.123 31.962 110.87 34.1919 110.87 38.6518C110.87 42.5622 108.058 45.8909 103.954 45.8909C101.756 45.8909 99.7849 44.8244 99.2031 43.6287V28.7302L98.8477 26.0802L102.467 25.6924ZM102.467 42.7884C102.952 43.2409 103.631 43.5317 104.406 43.5317C106.054 43.5317 107.412 41.4957 107.412 38.878C107.412 36.2602 106.054 34.4505 104.406 34.4505C103.34 34.4505 102.467 35.0645 102.467 35.0645V42.7884Z" fill="white"/>
<path d="M121.858 35.8082C121.858 35.8082 121.115 35.0972 120.113 35.0972C118.755 35.0972 117.14 36.7777 117.14 38.8137V43.3059L117.43 45.5681H113.908V35.0326L113.552 32.3825L117.172 31.9947V34.3862C117.172 34.3862 118.465 31.9624 120.727 31.9624C121.535 31.9624 122.278 32.2856 122.892 32.9319L121.858 35.8082Z" fill="white"/>
<path d="M128.16 43.3057L128.45 45.5679H124.928V35.0001L124.572 32.35L128.192 31.9622V43.3057H128.16ZM126.479 26.6621C127.416 26.6621 128.224 27.47 128.224 28.5042C128.224 29.4737 127.416 30.2494 126.479 30.2494C125.477 30.2494 124.637 29.4737 124.637 28.5042C124.669 27.47 125.509 26.6621 126.479 26.6621Z" fill="white"/>
<path d="M140.99 36.0667C140.02 34.871 138.728 34.4509 137.79 34.4509C135.528 34.4509 134.559 36.5838 134.559 38.943C134.559 41.1406 135.56 43.2413 137.693 43.2413C139.956 43.2413 141.992 41.1406 141.992 41.1406L142.476 43.8553C142.476 43.8553 140.505 45.8913 137.079 45.8913C133.169 45.8913 131.262 42.5303 131.262 39.1692C131.262 35.3558 133.524 31.9624 137.758 31.9624C140.958 31.9624 142.541 33.7076 142.541 33.7076L140.99 36.0667Z" fill="white"/>
<path d="M148.423 38.2964L152.01 33.7397L152.624 32.3177H156.987L151.687 38.2964L157.245 45.5033H153.206L148.423 38.8782V43.241L148.714 45.5033H145.191V28.6658L144.835 26.0157L148.455 25.6279V38.2964H148.423Z" fill="white"/>
<path d="M79.1986 32.7053H81.784L81.2346 34.3212H79.1662V38.9426C79.1662 39.5566 79.4894 39.7505 79.9096 39.7505C80.5559 39.7505 81.5254 39.2658 81.9132 38.9426L82.1395 40.8493C82.1395 40.8493 81.1699 41.7542 79.2632 41.7542C77.7766 41.7542 77.0333 40.9786 77.0333 38.9426V34.3535H75.9668V32.7376H77.0333V31.154L79.3601 30.8955L79.1986 32.7053Z" fill="#FFBD27"/>
<path d="M86.7614 41.722C84.1113 41.722 82.7217 39.3952 82.7217 37.1976C82.7217 34.6122 84.3699 32.4145 87.3431 32.4145C89.6377 32.4145 91.3505 33.8042 91.3505 36.8744C91.3505 39.4921 89.67 41.722 86.7614 41.722ZM87.0199 40.1708C88.2803 40.1708 89.0236 38.8134 89.0236 37.0683C89.0236 35.3231 88.2803 33.9981 87.0199 33.9981C85.7595 33.9981 85.0162 35.3555 85.0162 37.0683C85.0162 38.8134 85.7919 40.1708 87.0199 40.1708Z" fill="#FFBD27"/>
<path d="M91.3501 43.855L90.93 45.4709H76.4517V43.855H91.3501Z" fill="#FFBD27"/>
<path d="M37.8315 6.59277H52.6007C53.6672 6.59277 54.6044 7.07754 54.8306 7.72389C55.0892 8.40256 54.5721 9.85685 52.4068 11.602C48.4317 14.7691 42.1621 19.8107 37.8315 23.2687V6.59277Z" fill="#FFBD27"/>
<path d="M10.0062 19.94C6.54822 17.1607 5.09393 13.7351 6.12809 10.7942C7.03299 8.20875 9.65072 6.56054 12.8178 6.56054H31.9822V37.4885C25.6156 32.4147 14.4984 23.5273 10.0062 19.94Z" fill="#9ECB45"/>
<path d="M19.3138 49.9629C17.0516 48.1531 15.7266 45.9231 15.6296 43.8548C15.565 42.5298 16.0174 41.334 16.9546 40.4615C20.2833 37.359 23.6767 38.2316 27.167 41.0432C28.3628 41.9804 30.7543 43.8871 32.0146 44.9213V60.1429L19.3138 49.9629Z" fill="#FFBD27"/>
<path d="M60.6479 41.8837L37.7993 60.1431V30.7018C38.6396 30.0231 41.0311 28.3426 42.55 27.1145C45.0708 25.0785 48.0117 24.9169 50.4678 26.8883C54.152 29.8292 56.8344 32.2853 59.6784 34.6122C61.6821 36.2604 62.8132 37.6177 62.8455 38.7165C62.9101 39.9123 61.5205 41.205 60.6479 41.8837Z" fill="#458AFB"/>
<path d="M77.227 61.6297H76.5483V59.8522L76.9038 59.7876C77.0331 59.6906 77.1301 59.5937 77.227 59.4644C77.2916 59.3351 77.3563 59.1412 77.4209 58.915C77.4532 58.6888 77.4855 58.4302 77.5179 58.0747C77.5502 57.7516 77.5502 57.3314 77.5502 56.879L77.6148 54.4229H80.8143C80.8143 55.3277 80.8143 56.2326 80.8143 57.1052C80.8143 58.0101 80.8143 58.8827 80.8143 59.7876H81.2344V61.6297H80.5557V60.4016H77.1947V61.6297H77.227ZM80.1356 59.7876V55.0369H78.3258L78.2612 57.1052C78.2289 57.7839 78.1965 58.3333 78.1642 58.7534C78.1319 59.2059 78.0026 59.529 77.841 59.7876H80.1356Z" fill="white"/>
<path d="M82.5918 60.4018V54.3907H83.3028V58.9475H83.3351L84.24 57.1377L85.662 54.3584H86.373V60.3695H85.662V55.7804H85.6297L84.7894 57.4609L83.3028 60.3695H82.5918V60.4018Z" fill="white"/>
<path d="M89.3462 60.4662C89.12 60.4662 88.9261 60.4339 88.6999 60.3693C88.506 60.3046 88.3121 60.24 88.1828 60.1107C88.0212 60.0138 87.8919 59.8522 87.795 59.6906C87.698 59.529 87.6334 59.3351 87.6011 59.1089L88.2797 58.8826C88.3444 59.1735 88.4413 59.3997 88.6352 59.5613C88.8291 59.7229 89.0554 59.7875 89.3462 59.7875C89.6371 59.7875 89.8956 59.6906 90.0895 59.529C90.2834 59.3674 90.3804 59.0442 90.3804 58.6564C90.3804 58.3333 90.3158 58.0747 90.1542 57.8808C89.9926 57.6869 89.7664 57.5576 89.4432 57.5576H88.9261V56.9113H89.4432C89.734 56.9113 89.9603 56.8143 90.1218 56.6204C90.2834 56.4265 90.3481 56.2003 90.3481 55.9094C90.3481 55.5863 90.2511 55.36 90.0895 55.1984C89.9279 55.0692 89.7017 54.9722 89.4109 54.9722C89.12 54.9722 88.8938 55.0692 88.7322 55.1984C88.5706 55.36 88.4413 55.5539 88.3767 55.8125L87.698 55.5863C87.795 55.1661 87.9889 54.8429 88.2797 54.6167C88.6029 54.3905 88.9584 54.2612 89.4109 54.2612C89.9603 54.2612 90.3804 54.3905 90.6389 54.649C90.9298 54.9076 91.0591 55.2954 91.0591 55.8125C91.0591 55.9094 91.0591 56.0387 91.0267 56.168C90.9944 56.2972 90.9621 56.4265 90.8975 56.5558C90.8328 56.6851 90.7682 56.782 90.6712 56.9113C90.5743 57.0082 90.4773 57.1052 90.3481 57.1375V57.1698C90.5097 57.2345 90.6389 57.3314 90.7359 57.4284C90.8328 57.5253 90.8975 57.6546 90.9621 57.7839C91.0267 57.9131 91.0591 58.0424 91.0591 58.1717C91.0914 58.3009 91.0914 58.4302 91.0914 58.5595C91.0914 59.1089 90.9298 59.529 90.6389 59.8522C90.3481 60.3046 89.9279 60.4662 89.3462 60.4662Z" fill="white"/>
<path d="M95.6155 60.4017L95.2277 59.0444H93.321L92.9655 60.4017H92.2222L93.9673 54.3906H94.6137L96.3588 60.4017H95.6155ZM94.646 56.8468L94.3228 55.5217H94.2905L93.9673 56.8468L93.5149 58.398H95.0984L94.646 56.8468Z" fill="white"/>
<path d="M97.5869 60.4018V54.3907H98.2979V58.9475H98.3302L99.2351 57.1377L100.657 54.3584H101.368V60.3695H100.657V55.7804H100.625L99.7845 57.4609L98.2979 60.3695H97.5869V60.4018ZM98.8473 52.9688C98.8473 53.0334 98.8796 53.098 98.9119 53.1627C98.9443 53.2273 98.9766 53.2919 99.0412 53.3242C99.1058 53.3889 99.1705 53.4212 99.2351 53.4535C99.2997 53.4858 99.3967 53.5182 99.4613 53.5182C99.5583 53.5182 99.6552 53.4858 99.7199 53.4535C99.7845 53.4212 99.8492 53.3889 99.9138 53.3242C99.9784 53.2596 100.011 53.195 100.043 53.1627C100.075 53.098 100.075 53.0334 100.075 52.9688H100.657C100.657 53.098 100.625 53.195 100.56 53.3242C100.528 53.4535 100.463 53.5828 100.366 53.6797C100.269 53.7767 100.172 53.8736 100.011 53.9383C99.8491 54.0029 99.6876 54.0352 99.4613 54.0352C99.2351 54.0352 99.0412 54.0029 98.9119 53.9383C98.7503 53.8736 98.6534 53.7767 98.5564 53.6797C98.4595 53.5828 98.3949 53.4535 98.3625 53.3242C98.3302 53.195 98.2979 53.0657 98.2979 52.9688H98.8473Z" fill="white"/>
<path d="M105.796 60.4017V57.6547H103.76V60.4017H103.049V54.3906H103.76V57.0407H105.796V54.3906H106.507V60.4017H105.796Z" fill="white"/>
<path d="M110.644 60.4018V54.3907H111.355V58.9475H111.387L112.292 57.1377L113.714 54.3584H114.425V60.3695H113.714V55.7804H113.681L112.841 57.4609L111.355 60.3695H110.644V60.4018Z" fill="white"/>
<path d="M118.852 60.4017V57.6547H116.848V60.4017H116.137V54.3906H116.848V57.0407H118.884V54.3906H119.595V60.4017H118.852Z" fill="white"/>
<path d="M122.86 55.0692V60.4339H122.149V55.0692H120.792V54.4229H124.249V55.0692H122.86Z" fill="white"/>
<path d="M125.413 60.4017V54.3906H128.612V55.0693H126.156V57.0407H128.257V57.687H126.156V59.723H128.612V60.434H125.413V60.4017Z" fill="white"/>
<path d="M133.395 56.2003C133.395 56.4265 133.363 56.6528 133.298 56.879C133.233 57.1052 133.136 57.2991 133.007 57.4607C132.878 57.6223 132.684 57.7516 132.49 57.8485C132.264 57.9455 132.005 58.0101 131.682 58.0101H130.648V60.4339H129.937V54.4229H131.65C132.199 54.4229 132.652 54.5844 132.943 54.8753C133.233 55.1338 133.395 55.5863 133.395 56.2003ZM132.652 56.2003C132.652 55.8448 132.587 55.5863 132.425 55.3924C132.264 55.1985 132.005 55.1015 131.618 55.1015H130.648V57.3314H131.618C131.811 57.3314 131.973 57.2991 132.102 57.2345C132.232 57.1699 132.329 57.0729 132.425 56.9759C132.49 56.879 132.555 56.7497 132.587 56.6204C132.652 56.4912 132.652 56.3296 132.652 56.2003Z" fill="white"/>
<path d="M134.688 60.4017V54.3906H135.399V56.8791H136.369C136.692 56.8791 136.95 56.9114 137.176 57.0084C137.403 57.1053 137.597 57.2023 137.726 57.3638C137.855 57.5254 137.984 57.687 138.049 57.9132C138.114 58.1395 138.146 58.3657 138.146 58.5919C138.146 59.1736 137.984 59.6261 137.694 59.9493C137.403 60.2401 136.95 60.4017 136.401 60.4017H134.688ZM135.431 59.7554H136.401C136.789 59.7554 137.047 59.6584 137.209 59.4645C137.37 59.2706 137.435 59.012 137.435 58.6566C137.435 58.5273 137.403 58.398 137.37 58.2687C137.338 58.1395 137.273 58.0102 137.209 57.9132C137.144 57.8163 137.015 57.7517 136.886 57.687C136.756 57.6224 136.595 57.5901 136.369 57.5901H135.399V59.7554H135.431Z" fill="white"/>
<path d="M139.471 60.4017V54.3906H142.67V55.0693H140.214V57.0407H142.315V57.687H140.214V59.723H142.67V60.434H139.471V60.4017Z" fill="white"/>
<path d="M147.485 56.2003C147.485 56.4265 147.453 56.6528 147.388 56.879C147.324 57.1052 147.227 57.2991 147.098 57.4607C146.968 57.6223 146.774 57.7516 146.58 57.8485C146.354 57.9455 146.096 58.0101 145.772 58.0101H144.738V60.4339H144.027V54.4229H145.74C146.29 54.4229 146.742 54.5844 147.033 54.8753C147.324 55.1338 147.485 55.5863 147.485 56.2003ZM146.742 56.2003C146.742 55.8448 146.677 55.5863 146.516 55.3924C146.354 55.1985 146.096 55.1015 145.708 55.1015H144.738V57.3314H145.708C145.902 57.3314 146.063 57.2991 146.193 57.2345C146.322 57.1699 146.419 57.0729 146.516 56.9759C146.58 56.879 146.645 56.7497 146.677 56.6204C146.742 56.4912 146.742 56.3296 146.742 56.2003Z" fill="white"/>
<path d="M152.139 58.6566C152.139 58.9475 152.107 59.1737 152.01 59.3999C151.913 59.6262 151.816 59.8201 151.654 59.9817C151.493 60.1433 151.299 60.2725 151.105 60.3372C150.879 60.4341 150.653 60.4664 150.394 60.4664C150.071 60.4664 149.812 60.4018 149.586 60.3048C149.36 60.2079 149.166 60.0463 149.037 59.8847C148.907 59.7231 148.778 59.4969 148.746 59.2707C148.681 59.0445 148.649 58.7859 148.649 58.5597V56.1359C148.649 55.942 148.681 55.7157 148.746 55.5218C148.811 55.2956 148.907 55.1017 149.037 54.9401C149.166 54.7785 149.36 54.6169 149.586 54.52C149.812 54.423 150.071 54.3584 150.394 54.3584C150.685 54.3584 150.976 54.423 151.17 54.52C151.396 54.6169 151.59 54.7462 151.719 54.9401C151.848 55.1017 151.978 55.2956 152.042 55.5218C152.107 55.7481 152.139 55.942 152.139 56.1682V58.6566ZM151.396 56.1682C151.396 56.0712 151.396 55.9743 151.364 55.845C151.331 55.7157 151.267 55.5865 151.202 55.4895C151.137 55.3602 151.008 55.2633 150.879 55.1987C150.75 55.1017 150.588 55.0694 150.362 55.0694C150.168 55.0694 149.974 55.1017 149.845 55.1987C149.715 55.2633 149.618 55.3602 149.521 55.4895C149.425 55.5865 149.392 55.7157 149.36 55.845C149.328 55.9743 149.328 56.1036 149.328 56.2005V58.5597C149.328 58.7213 149.36 58.8829 149.392 59.0445C149.425 59.206 149.489 59.3353 149.586 59.4323C149.683 59.5292 149.78 59.6262 149.909 59.6908C150.039 59.7554 150.2 59.7878 150.394 59.7878C150.523 59.7878 150.653 59.7554 150.782 59.7231C150.911 59.6585 151.008 59.5939 151.105 59.4969C151.202 59.4 151.267 59.303 151.331 59.1737C151.396 59.0445 151.428 58.8829 151.428 58.7213V56.1682H151.396Z" fill="white"/>
<path d="M157.148 58.6889C157.148 59.2383 156.987 59.6907 156.728 59.9816C156.437 60.2724 156.05 60.4017 155.565 60.4017H153.69V54.3906H155.403C155.953 54.3906 156.373 54.5199 156.631 54.8108C156.89 55.1016 157.019 55.4894 157.019 55.9742C157.019 56.265 156.955 56.4913 156.858 56.7175C156.761 56.9437 156.567 57.1053 156.244 57.2669V57.2992C156.405 57.3315 156.534 57.3962 156.631 57.4931C156.728 57.5901 156.825 57.687 156.89 57.8163C156.955 57.9456 157.019 58.0748 157.051 58.2364C157.116 58.3657 157.148 58.5273 157.148 58.6889ZM154.401 55.0693V57.0084H155.339C155.694 57.0084 155.92 56.9114 156.082 56.7498C156.244 56.5559 156.308 56.3297 156.308 56.0388C156.308 55.748 156.244 55.5217 156.082 55.3602C155.92 55.1986 155.662 55.1016 155.339 55.1016H154.401V55.0693ZM154.401 57.6224V59.723H155.436C155.629 59.723 155.791 59.6907 155.92 59.6261C156.05 59.5614 156.147 59.4968 156.211 59.3999C156.276 59.3029 156.34 59.1736 156.373 59.0444C156.405 58.9151 156.405 58.7858 156.405 58.6242C156.405 58.3334 156.34 58.0748 156.179 57.8809C156.017 57.687 155.759 57.5901 155.403 57.5901H154.401V57.6224Z" fill="white"/>
</svg>
