<svg width="1114" height="1118" viewBox="0 0 1114 1118" fill="none" xmlns="http://www.w3.org/2000/svg">
<path d="M1113.47 604.386C1111.38 554.325 1074.85 513.121 1015.89 466.711C966.3 426.554 827.489 312.876 827.489 312.876C866.104 282.115 874.982 271.687 904.718 248.212C995.003 176.248 983.009 107.41 974.131 81.3461C956.912 32.8554 906.814 0 849.409 0H610.911H516.973H207.505C116.173 0 38.9436 51.6178 10.7651 131.407C-19.5092 217.975 14.9423 312.353 103.131 383.285C142.27 414.569 212.716 470.885 285.782 529.294C259.685 536.596 233.078 550.151 208.553 573.625C174.101 606.48 156.359 651.321 158.455 700.349C161.06 761.886 194.464 821.852 252.916 868.262L563.942 1117.01L1043.02 733.204C1091.55 693.571 1115.56 650.288 1113.47 604.4V604.386ZM610.911 93.8543H849.409C866.628 93.8543 881.765 101.679 885.418 112.107C889.595 123.059 881.241 146.519 846.28 174.691C782.092 225.799 680.848 307.146 610.925 362.937V93.8543H610.911ZM161.584 309.226C105.751 264.371 82.2592 209.103 98.9681 161.645C113.581 119.932 155.849 93.3308 206.981 93.3308H516.449V592.387C413.647 510.518 234.126 367.112 161.584 309.226V309.226ZM311.879 793.68C275.346 764.475 253.95 728.493 252.392 695.114C251.345 673.734 258.651 654.433 273.788 640.355C327.54 590.293 382.339 604.372 438.696 649.736C457.997 664.862 496.625 695.623 516.973 712.32V957.928L311.879 793.666V793.68ZM979.342 663.305L610.387 957.943V482.884C623.953 471.932 662.567 444.807 687.092 424.998C727.788 392.142 775.295 389.539 814.943 421.347C874.43 468.805 917.746 508.424 963.681 545.977C996.037 572.578 1014.3 594.467 1014.81 612.197C1015.86 631.497 993.417 652.353 979.328 663.305H979.342Z" fill="#E1E4E7"/>
</svg>
